<svg width="39" height="39" viewBox="0 0 39 39" fill="none" xmlns="http://www.w3.org/2000/svg">
<path d="M38.4395 21.5747C38.3595 21.4859 38.9058 21.0324 38.8069 20.8454L29.6982 19.9244L28.5537 19.6252C28.5537 19.6252 28.7468 19.4289 28.6762 19.3261L27.0231 18.4705C27.1644 18.2368 27.5458 18.349 27.1785 18.0451C26.2365 17.2691 23.8816 16.8624 22.6948 16.465C20.8627 15.8526 19.1436 15.0953 17.2503 14.5577C14.7164 13.8377 12.4322 13.7769 10.3599 11.9537C8.98465 10.7429 8.64083 8.96647 8.37238 7.22273C8.0945 5.41821 8.34412 2.43095 7.01125 1.07523C6.50731 0.560989 5.49 0 4.76469 0C4.36907 0 3.79448 0.24777 3.53544 0.243095C3.40357 0.243095 3.26699 0.098173 3.10215 0.0701236C2.70182 0.0046749 2.34387 0.0747985 2.14135 0.448791C2.04716 0.626437 2.05658 0.832133 2.0189 0.902257C1.81167 1.25755 0.568291 1.25287 0.163251 2.25798C-0.23237 3.23503 0.153831 2.83767 0.653066 2.6834C1.00159 2.57587 1.96709 2.44965 2.24026 2.6834C2.31561 2.74884 2.31561 2.95454 2.4051 3.08544C2.50401 3.23036 2.69711 3.28178 2.78659 3.43605C3.94519 5.41821 1.42547 7.72762 1.2465 9.73315C1.14288 10.8785 2.47575 11.8556 3.01266 10.6962C3.59196 9.44798 3.48835 7.49387 3.8981 6.1475C4.07707 5.54911 4.15242 5.76883 4.1901 6.25035C4.25133 7.05911 4.02055 8.03149 3.82745 8.82155C3.44125 10.411 2.73007 11.8602 2.34387 13.445C2.41923 13.5759 2.56523 13.3983 2.51813 13.5572L0.930943 21.1539L1.17585 21.0932V23.468L1.45373 23.4072C2.11309 25.2538 2.76775 27.1518 4.15242 28.5917C4.51508 28.9704 4.97663 29.2789 5.32045 29.6856C5.75846 30.1999 6.04575 30.7609 6.60621 31.2097C6.86054 31.4154 7.06777 31.4434 7.30797 31.6117C7.48223 31.7333 8.11805 32.5373 8.29702 32.369L8.38651 32.1259C8.71148 32.3597 9.42266 33.0936 9.79944 33.103C9.94073 33.1077 10.0632 33.0235 10.2139 33.0469C10.5059 33.0937 10.9298 33.5284 11.3019 33.463C11.3725 33.5331 10.7791 35.1085 10.6802 35.3142C10.5671 35.548 9.79473 36.9177 9.66756 36.9925C9.33788 37.1795 8.3818 36.9317 7.98618 36.8476C7.24674 36.6933 6.96887 36.4456 6.13995 36.6606C5.79142 36.7494 5.70665 36.9224 5.5889 37.2403C5.8291 37.1982 6.03162 37.0159 6.29066 37.058L8.10863 37.7265H6.05046C5.782 37.7265 5.25451 38.1192 5.18857 38.395C5.08967 38.7924 5.58419 38.3295 5.67368 38.3436C5.73491 38.3529 5.81026 38.4698 5.89504 38.4885C6.52615 38.6521 7.12429 38.4932 7.77424 38.5119C8.13218 38.5212 8.57961 38.6194 8.93755 38.6334C9.39911 38.6568 10.3081 38.7363 10.7178 38.6942C11.1794 38.6428 11.4102 38.4371 11.575 38.0257C11.8482 38.4558 12.2532 38.9139 12.8137 38.9373C12.9832 38.942 13.1292 38.8531 13.2941 38.8765C13.4118 38.8952 13.4495 39.0168 13.572 38.9981C13.6379 38.6334 13.4778 38.6474 13.3271 38.4838C13.247 38.3997 13.1952 38.2734 13.1057 38.2127C13.0398 38.1659 12.1261 37.8667 12.2862 37.6564C12.4134 37.4881 12.7242 37.7171 12.8372 37.7499C13.3836 37.9041 15.9174 37.2777 16.558 37.0486C16.704 36.9972 17.1137 36.7401 17.1702 36.7401C17.2126 36.7401 17.3963 37.2216 17.7825 37.2356C17.9049 37.2356 18.0604 37.1702 18.1404 37.1842C18.1922 37.1935 18.4324 37.4133 18.4136 37.1468C18.3901 36.7494 17.7872 36.4876 17.5753 36.2118C16.9536 35.4171 17.5658 33.4115 17.8108 32.4999C17.9002 32.4392 18.423 32.4672 18.5643 32.4906C19.0165 32.5514 19.9396 33.0095 20.2504 33.0095C20.5283 33.0095 20.3776 32.5934 20.5424 32.6589C20.7261 32.729 20.8627 32.9254 21.1641 32.9581C21.4279 32.9861 21.5503 32.8552 21.588 32.8552C21.6398 32.8552 22.0872 33.3788 22.4499 33.3928C23.0998 33.4209 22.8031 32.4625 22.6336 32.1072C22.5582 31.9436 22.1249 31.3826 22.1155 31.3406C22.1061 31.2938 22.2521 31.0928 22.2662 30.9572C22.285 30.7889 22.1908 30.5879 22.2332 30.4056C22.5158 30.644 22.7136 31.0647 22.9915 31.2985C23.081 31.378 23.2552 31.4808 23.373 31.4995C23.6462 31.5463 23.9193 31.4247 24.103 31.4434C24.2207 31.4528 24.3008 31.5837 24.4233 31.6117C24.979 31.7426 25.1674 31.2564 25.3323 31.2564C25.4123 31.2564 25.5489 31.3826 25.6666 31.4154C26.1188 31.5276 26.4155 31.2751 26.5945 30.8918C26.8959 31.1442 27.2915 31.3686 27.7013 31.233C27.852 31.1816 27.9368 30.9572 27.9744 30.9572C27.998 30.9572 28.2476 31.191 28.3559 31.2471C29.0059 31.593 29.6511 31.6304 30.188 31.0788C30.2963 30.9666 30.546 30.5225 30.5836 30.4991C30.8286 30.3495 31.3749 30.616 31.7846 30.1064C31.9683 29.8773 31.9401 29.6202 32.0295 29.494C32.0814 29.4238 32.6795 29.2743 32.9479 28.8816C33.1363 28.6104 33.1693 28.0868 33.24 27.984C33.2588 27.9606 33.645 27.7549 33.7486 27.6661C34.0265 27.4277 34.2102 27.2313 34.2949 26.862C34.3185 26.7498 34.2667 26.6423 34.2714 26.6329C34.2949 26.6049 34.8554 26.4787 35.0014 26.4085C35.5289 26.1654 35.9339 25.6325 36.047 25.0715C36.0658 24.9827 36.0281 24.7817 36.0564 24.7489C36.0658 24.7349 36.2589 24.7022 36.3531 24.6461C36.8288 24.375 37.1349 24.0243 37.4128 23.5615C37.4882 23.4353 37.54 23.1688 37.6012 23.1081C37.6624 23.0473 37.9262 22.9772 38.0345 22.9024C38.2511 22.7528 39 22.0188 39 21.7851L38.4442 21.57L38.4395 21.5747ZM16.1718 33.9351C16.0681 34.2857 15.6443 35.403 15.47 35.6742C15.1356 36.1931 13.8216 36.296 13.2423 36.2632C12.7901 36.2399 12.3192 36.0809 11.8623 36.0809C12.0413 35.4919 12.1496 34.8795 12.3663 34.2998C12.4699 34.024 12.8985 33.0422 13.0586 32.8552C13.1952 32.701 13.4024 32.7103 13.5814 32.5233C13.7321 32.3644 13.7274 32.2054 13.8216 32.0932C13.9016 31.995 14.0995 31.9436 14.2266 31.8221C14.3726 31.6865 14.4056 31.5322 14.5328 31.392C14.5846 31.4341 14.6034 31.5042 14.6505 31.5463C15.1592 32.0231 15.0084 31.8548 15.6207 32.0137C15.8703 32.0792 16.1529 32.4345 16.525 32.3036C16.3978 32.8319 16.3272 33.4162 16.1765 33.9351H16.1718Z" fill="#ECEFDF"/>
</svg>
