<svg width="109" height="86" viewBox="0 0 109 86" fill="none" xmlns="http://www.w3.org/2000/svg">
<path d="M67.2335 33.9247C67.2335 33.9247 67.2678 33.8904 67.2764 33.8818L67.2421 33.9161L67.225 33.9332L67.2335 33.9247Z" fill="white"/>
<path d="M90.7372 43.46C90.754 43.5105 90.7624 43.561 90.7793 43.6031L90.6951 43.2579C90.7119 43.3337 90.7287 43.401 90.7456 43.46H90.7372Z" fill="white"/>
<path d="M64.0509 18.9122C64.0509 18.9122 63.9247 18.9964 63.7565 19.1227C63.9079 19.0217 64.0088 18.9459 64.0509 18.9122Z" fill="white"/>
<path d="M59.783 38.9033C59.783 38.9033 59.7917 38.8946 59.8005 38.8858H59.7917V38.9033H59.783Z" fill="white"/>
<path d="M100.098 1.08706H100.435C100.334 1.07021 100.225 1.07863 100.124 1.08706H100.107H100.098Z" fill="white"/>
<path d="M108.862 5.56891C108.862 5.56891 108.862 5.52678 108.862 5.5015C108.862 5.40882 108.87 5.31614 108.862 5.22346C108.862 5.22346 108.853 5.20661 108.845 5.19818V5.56891H108.862Z" fill="white"/>
<path d="M101.824 20.1422C101.833 20.2935 101.866 20.4028 101.883 20.4616L101.816 20.0329C101.816 20.0329 101.816 20.1086 101.816 20.1422H101.824Z" fill="white"/>
<path d="M63.0574 19.7378C63.0574 19.7378 63.0155 19.7714 62.9988 19.7883C63.0239 19.7714 63.049 19.7546 63.0574 19.7378Z" fill="white"/>
<path d="M59.7834 38.9033L59.7922 38.8858C59.7922 38.8858 59.7834 38.8946 59.7747 38.9033H59.7834Z" fill="white"/>
<path d="M67.2334 33.9249L67.2505 33.9078L67.2848 33.8735C67.2848 33.8735 67.2505 33.9078 67.242 33.9164L67.2334 33.9249Z" fill="white"/>
<path d="M90.7372 43.46C90.7203 43.401 90.7035 43.3337 90.6866 43.2579L90.7708 43.6031C90.754 43.561 90.7456 43.5105 90.7287 43.46H90.7372Z" fill="white"/>
<path d="M97.657 1.98905C97.657 1.98905 97.6657 1.98905 97.6745 1.98029C97.6745 1.98029 97.6657 1.98029 97.657 1.98905Z" fill="white"/>
<path d="M100.098 1.08737H100.115C100.225 1.07895 100.326 1.07895 100.427 1.08737H100.09H100.098Z" fill="white"/>
<path d="M101.883 20.4616C101.866 20.4028 101.833 20.2935 101.824 20.1422C101.824 20.1086 101.824 20.0749 101.824 20.0329L101.891 20.4616H101.883Z" fill="white"/>
<path d="M108.87 5.49278C108.87 5.49278 108.87 5.5349 108.87 5.56018V5.18945C108.87 5.18945 108.879 5.21473 108.887 5.21473C108.887 5.29899 108.887 5.39167 108.887 5.49278H108.87Z" fill="white"/>
<path d="M108.803 3.96801L108.828 3.90904C108.828 3.90904 108.853 3.8248 108.87 3.78268C108.895 3.69844 108.912 3.62263 108.929 3.53839C108.963 3.37833 108.988 3.21827 108.988 3.06664C108.988 2.91501 108.963 2.76338 108.912 2.63701C108.862 2.51065 108.769 2.40114 108.668 2.34217C108.458 2.21581 108.264 2.23266 108.146 2.24109C108.02 2.24951 107.961 2.27478 107.961 2.28321C107.961 2.27478 107.877 2.26636 107.734 2.29163C107.658 2.30848 107.574 2.33375 107.481 2.38429C107.473 2.38429 107.464 2.40114 107.447 2.40114C107.355 2.40114 107.254 2.40114 107.17 2.40114C106.85 2.40957 106.235 2.47696 105.537 2.62859C105.031 2.7381 104.585 2.88131 104.257 2.89816C103.971 2.91501 103.785 2.86446 103.735 2.86446C103.609 2.78865 103.466 2.67913 103.381 2.50223C103.398 2.47696 103.407 2.43484 103.415 2.36745C103.415 2.26636 103.398 2.13157 103.322 1.99679C103.247 1.862 103.146 1.76934 103.053 1.7188C102.969 1.66825 102.902 1.65983 102.893 1.6851C102.885 1.71037 102.952 1.76934 103.045 1.87043C102.918 1.78619 102.775 1.7188 102.632 1.64298C102.203 1.43238 101.673 1.17123 101.041 1.0196C100.721 0.943784 100.385 0.910088 100.023 0.93536C99.6689 0.960632 99.307 1.0533 98.9618 1.17966C98.2631 1.43238 97.6317 1.76092 97.0929 2.12315C96.5542 2.47696 96.1164 2.86446 95.7713 3.20142C95.7376 3.23512 95.7039 3.26882 95.6702 3.31094C95.6702 3.31094 95.4935 3.44572 95.2577 3.67317C95.2493 3.68159 95.2409 3.69002 95.2325 3.69844C95.2072 3.72371 95.1736 3.75741 95.1483 3.78268C94.9799 3.95116 94.8032 4.14492 94.6432 4.38921C94.3738 4.76829 94.2223 5.18107 94.1802 5.48434C94.1297 5.7876 94.1718 5.98136 94.1802 5.97293C94.1886 5.97293 94.197 5.93081 94.2139 5.85499C94.2391 5.76233 94.2896 5.64439 94.357 5.56015C94.2896 5.88869 94.2476 6.26777 94.2139 6.6637C94.197 6.93327 94.1802 7.21969 94.1297 7.50611C94.0792 7.79252 94.0034 8.08736 93.9024 8.38221C93.7004 8.97189 93.4394 9.51103 93.1784 9.98277C93.0522 10.2186 92.9259 10.4461 92.7996 10.6483C92.6733 10.8504 92.5218 11.0189 92.3955 11.179C92.1346 11.4991 91.9409 11.7687 91.8062 11.9624C91.8062 11.9708 91.7894 11.9793 91.781 11.9961C91.6379 12.1562 91.5116 12.2825 91.4443 12.3247C91.4443 12.3247 91.5116 12.2994 91.621 12.2573C91.7221 12.2151 91.8483 12.1562 91.9746 12.0888C91.9578 12.1056 91.9494 12.1225 91.9325 12.1393C91.7726 12.3162 91.6042 12.451 91.4695 12.5268C91.3348 12.6026 91.2422 12.6363 91.2506 12.6616C91.0991 12.729 90.9392 12.788 90.7708 12.8048C90.7708 12.8048 91.158 12.9143 91.52 12.8554C91.4863 12.8638 91.4527 12.8806 91.4106 12.8975C91.1496 12.9902 90.7876 13.1081 90.392 13.2681C89.9963 13.4366 89.6764 13.6809 89.4912 13.8999C89.4912 13.8999 89.4828 13.9084 89.4744 13.9168C89.3565 14.0179 89.2808 14.119 89.2639 14.2201C89.0535 14.2201 88.8177 14.2116 88.5652 14.2201C88.22 14.2369 87.8412 14.2959 87.454 14.3885C87.4035 14.397 87.3614 14.4138 87.3109 14.4222C87.0499 14.4559 86.7468 14.5149 86.4017 14.5907C86.006 14.6834 85.5683 14.8013 85.08 14.9108C84.0951 15.1299 82.9081 15.2983 81.578 15.45C80.2479 15.6016 78.7915 15.7448 77.251 15.8122C75.7104 15.888 74.2456 15.8712 72.9156 15.7869C72.2505 15.7364 71.6191 15.6774 71.0298 15.5932C70.9457 15.5848 70.8615 15.5679 70.7773 15.5595C70.651 15.5342 70.4911 15.5005 70.3059 15.4668C70.1796 15.45 70.0449 15.4247 69.8934 15.4078C69.7418 15.3994 69.5819 15.3826 69.4135 15.3657C69.2452 15.3489 69.0684 15.3657 68.8832 15.3573C68.7906 15.3573 68.6896 15.3657 68.5885 15.3742C68.4623 15.3657 68.3276 15.3573 68.2013 15.3573C68.1676 15.3573 68.1255 15.3573 68.0919 15.3573C67.9572 15.3405 67.8141 15.3152 67.6794 15.2983C66.7702 15.1888 65.76 15.1972 64.834 15.4331C64.3289 15.5258 63.8322 15.6774 63.3523 15.8964C62.0559 16.4861 61.1047 17.5307 60.3975 18.7522C59.6062 20.1085 59.0758 21.5995 58.4192 23.0147C58.0656 23.7813 57.67 24.5648 57.1228 25.2218C56.7945 25.3903 56.4746 25.5672 56.1631 25.7441C55.557 26.0979 55.0014 26.4855 54.5047 26.8982C54.0164 27.311 53.5787 27.7575 53.2335 28.2124C52.88 28.6673 52.619 29.139 52.4254 29.5855C52.0381 30.4869 51.9624 31.2956 51.9792 31.8347C51.996 32.1043 52.0213 32.3149 52.055 32.4581C52.0802 32.7024 52.1476 32.8372 52.1644 32.8287C52.1728 32.8287 52.1644 32.7866 52.1644 32.7108C52.1644 32.6181 52.1644 32.4749 52.1644 32.298C52.1897 32.02 52.2738 31.6578 52.3749 31.2703C52.5516 30.6216 52.7789 30.0909 52.8631 29.8719C52.9221 29.8551 52.358 32.0369 52.358 32.0369L52.5348 31.5988C52.5011 31.7252 52.4759 31.8431 52.459 31.9358C52.4254 32.1464 52.4254 32.2812 52.4338 32.2812C52.459 32.2812 52.518 31.7589 52.7621 31.1524C52.821 31.0007 52.8715 30.6216 53.1073 30.6722C53.2083 30.689 53.1999 30.7901 53.1746 30.8659C53.0736 31.2282 52.9389 31.5736 52.7789 31.9021C52.6948 32.0706 52.5853 32.2138 52.5011 32.3823C52.4506 32.4581 52.3328 32.5929 52.3917 32.694C52.4085 32.7277 53.0147 32.3149 53.5198 31.582C53.7134 31.304 53.8817 31.0007 54.008 30.6806C54.0417 30.6048 54.0669 30.5206 54.0922 30.4363C54.1006 30.3942 54.109 30.3605 54.1259 30.3184C54.1259 30.3015 54.1848 30.2004 54.2016 30.2426C54.2016 30.251 54.2016 30.2678 54.2016 30.2763C54.1427 30.4953 54.1764 30.7312 54.1511 30.9502C54.1175 31.2619 54.0417 31.5146 54.0333 31.6157C53.9575 31.7589 53.9154 31.8431 53.9323 31.86C53.9323 31.86 53.9491 31.86 53.9743 31.8347V31.8516C53.9996 31.8853 54.471 31.5314 54.8835 30.9418C55.0856 30.6469 55.2371 30.3605 55.3213 30.1415C55.3213 30.1499 55.3213 30.1583 55.3213 30.1752C55.2539 30.529 55.1782 30.807 55.2118 30.8238C55.2203 30.8238 55.2371 30.8154 55.2623 30.7817C55.3044 30.7986 55.4307 30.5037 55.6412 30.1752C55.7422 30.0067 55.8516 29.8719 55.9274 29.7624C55.9274 29.8045 55.9106 29.8382 55.9021 29.8803C55.8348 30.3015 55.8853 30.6469 55.9274 30.6469C55.9695 30.6469 55.9863 30.31 56.0537 29.9056C56.1042 29.6108 56.1631 29.3665 56.1799 29.2485L56.4157 29.0464C56.3567 29.1306 56.2473 29.3665 56.1799 29.6697C56.0958 30.0657 56.1547 30.3942 56.1968 30.3858C56.2136 30.3858 56.2305 30.3184 56.2389 30.2257C56.2557 30.1836 56.2725 30.1162 56.3062 30.032C56.3651 29.8803 56.4746 29.6866 56.6093 29.476C56.7861 29.2148 56.9376 28.9874 57.0218 28.8358L57.1228 28.8021C57.0218 28.9621 56.9123 29.2064 56.8534 29.5013C56.8029 29.7877 56.8197 30.0657 56.8618 30.251C56.9039 30.4363 56.9628 30.5458 56.9797 30.5374C56.9881 30.5374 56.9881 30.5037 56.9797 30.4616C57.0218 30.4363 57.0386 30.0909 57.1312 29.6866C57.1649 29.5181 57.207 29.3665 57.2406 29.2485C57.2238 29.5181 57.2575 29.7624 57.308 29.9309C57.3585 30.0994 57.4174 30.192 57.4343 30.1836C57.4764 30.1667 57.3501 29.7624 57.3922 29.257C57.4259 28.7515 57.6111 28.3724 57.5774 28.3472L58.0993 28.0439C58.0993 28.0439 58.032 28.1029 57.9983 28.1366C57.8636 28.2713 57.7037 28.4988 57.6111 28.7852C57.5185 29.0716 57.5016 29.3412 57.5269 29.5349C57.5521 29.7287 57.5942 29.8382 57.6195 29.8382C57.6363 29.8382 57.6363 29.7792 57.6363 29.6866C57.6531 29.636 57.67 29.5602 57.6952 29.476C57.7457 29.2991 57.8468 29.0548 57.9815 28.8021C58.0909 28.5999 58.2088 28.4146 58.3098 28.2713C58.2593 28.3893 58.2172 28.5325 58.1919 28.6925C58.1582 28.9284 58.1582 29.139 58.1667 29.2991C58.1751 29.4507 58.2003 29.5434 58.2172 29.5434C58.2677 29.5434 58.2761 29.1643 58.3434 28.7178C58.3434 28.6841 58.3519 28.6504 58.3603 28.6167C58.3771 28.7936 58.4024 28.9537 58.4108 29.0716C58.4108 29.139 58.4192 29.1896 58.4276 29.2233V29.2401C58.4276 29.257 58.4361 29.2654 58.4445 29.2654C58.4529 29.2654 58.4697 29.2485 58.4866 29.2064C58.6128 29.1053 58.8991 28.7852 59.0927 28.3135C59.2695 27.8838 59.3031 27.4963 59.2947 27.3026L59.5388 26.6876C59.522 26.814 59.5388 27.2352 59.4631 27.7322C59.421 28.0776 59.3452 28.3809 59.3031 28.5746C59.2695 28.642 59.2526 28.6841 59.2695 28.6925C59.2695 28.6925 59.2695 28.6925 59.2779 28.6925C59.261 28.7599 59.261 28.8021 59.2779 28.8021C59.2947 28.8021 59.3452 28.7262 59.4126 28.5662C59.5304 28.4314 59.7072 28.204 59.8756 27.926C60.0187 27.6985 60.1281 27.4711 60.1702 27.2942C60.1702 27.2773 60.1786 27.252 60.1871 27.2352C60.1702 27.37 60.1534 27.5385 60.1281 27.7238C60.0692 28.1534 59.985 28.4904 60.0187 28.5072C60.0271 28.5072 60.0439 28.4904 60.0608 28.4567C60.1029 28.4398 60.1702 28.3724 60.2376 28.2545C60.3217 28.0944 60.3975 27.867 60.4649 27.6143C60.549 27.3026 60.5911 27.033 60.5996 26.8561C60.5996 26.9488 60.6164 27.0077 60.6332 26.9993C60.6416 26.9993 60.6585 26.974 60.6669 26.9403C60.6837 26.9403 60.7342 26.8393 60.8016 26.6961C60.8016 26.755 60.8016 26.8056 60.8016 26.8561C60.7932 26.8898 60.7763 26.9151 60.7679 26.9488C60.7595 26.974 60.7427 26.9909 60.7343 27.0162C60.6669 27.1762 60.6164 27.3363 60.608 27.4542C60.608 27.5806 60.6416 27.648 60.6585 27.648C60.6669 27.648 60.6753 27.6311 60.6753 27.6143L60.8184 27.4374C60.8184 27.4374 60.8184 27.4711 60.8184 27.4879C60.709 27.6817 60.5911 27.9512 60.5659 28.2629C60.5659 28.2882 60.5575 28.3219 60.549 28.3556C60.5406 28.4735 60.549 28.5662 60.5743 28.6336C60.5659 28.6673 60.5575 28.6841 60.5743 28.6925C60.5743 28.6925 60.5827 28.6925 60.5911 28.6757C60.5996 28.701 60.6164 28.7178 60.6332 28.7178C60.6669 28.7178 60.6837 28.6336 60.6922 28.5241L60.8437 28.364C60.7174 28.5325 60.5659 28.8273 60.6332 29.2738C60.6332 29.2738 60.6669 29.2401 60.709 29.1811L60.8437 29.0127C60.8268 29.1053 60.8184 29.2064 60.8016 29.3159C60.7511 29.7287 60.7258 30.0825 60.7343 30.2426C60.7174 30.3437 60.7006 30.4447 60.6837 30.5627C60.5659 31.2787 60.3807 32.2812 59.8756 33.2668C59.3789 34.2524 58.6297 34.96 58.0488 35.3812C58.0067 35.4149 57.9646 35.4402 57.9225 35.4739C57.8636 35.4655 57.3922 35.6339 56.8871 35.9962C56.6261 36.1899 56.4157 36.409 56.3062 36.5943C56.2978 36.6111 56.2894 36.628 56.281 36.6448C56.2473 36.7038 56.222 36.7543 56.2052 36.8133C56.1799 36.8807 56.1799 36.9228 56.1884 36.9228C56.2136 36.9228 56.2641 36.8133 56.3988 36.6617C56.4157 36.6448 56.4325 36.6196 56.4493 36.6027C56.5756 36.4763 56.7187 36.3753 56.8366 36.4258C56.7861 36.4679 56.7524 36.5016 56.7608 36.51C56.7608 36.5185 56.7945 36.51 56.845 36.4932C56.8029 36.51 56.744 36.5437 56.685 36.5774C56.6429 36.5774 56.6009 36.6027 56.5756 36.628C56.4914 36.6954 56.4493 36.7712 56.4325 36.8302C56.3736 36.9228 56.3399 37.0239 56.3399 37.1503C56.3399 37.1503 56.584 36.8723 56.7861 37.0071C56.7524 37.0408 56.7103 37.0745 56.6766 37.1166C56.5083 37.2935 56.3904 37.4957 56.3483 37.6473C56.2978 37.7989 56.3062 37.9084 56.3231 37.9084C56.3483 37.9084 56.3736 37.8242 56.4493 37.6894C56.5083 37.5715 56.6009 37.4367 56.7271 37.2935C56.7103 37.3777 56.6935 37.4535 56.6682 37.5462C56.6682 37.5715 56.6598 37.5967 56.6514 37.6136C56.5335 37.8242 56.4072 38.1527 56.4241 38.5318C56.222 39.29 55.9695 40.1661 55.6159 41.0759C55.4896 41.4128 55.3465 41.7329 55.2118 42.0446C55.0687 42.3563 54.9256 42.6512 54.8078 42.9376C54.5636 43.5188 54.3953 44.0748 54.37 44.555C54.3363 45.0352 54.4374 45.4311 54.5636 45.667C54.5973 45.7512 54.6394 45.8354 54.6899 45.9028C54.7404 45.9787 54.8078 46.0292 54.8583 46.0713C54.8414 46.105 55.296 46.324 55.9021 46.3156C56.0537 46.3156 56.1968 46.2988 56.3231 46.2735C56.4493 46.2567 56.5672 46.2398 56.6598 46.2145C56.7524 46.1893 56.8282 46.1556 56.8871 46.1303V46.0966C56.8871 46.0966 56.9797 46.1303 57.0554 46.1387C57.1649 46.164 57.3164 46.1893 57.4932 46.1893C57.67 46.1893 57.8384 46.1471 57.9394 46.0797C57.973 46.0629 57.9983 46.0376 58.0236 46.0208C58.0993 46.0629 58.2677 46.1134 58.4781 46.0966C58.5876 46.0966 58.6886 46.0629 58.7728 46.0208C58.7896 46.0208 58.798 46.0208 58.8149 46.0039C58.857 45.9871 58.9075 45.9365 58.9327 45.8607C58.958 45.8439 58.9917 45.7428 59.0085 45.5827C59.0253 45.3974 58.9832 45.1363 58.8401 44.892C58.697 44.6477 58.4866 44.4792 58.3182 44.4034C58.1498 44.3275 58.032 44.3191 58.032 44.336H58.0151C58.0151 44.336 57.9562 44.2854 57.8889 44.2265C57.8131 44.1591 57.7121 44.0243 57.6616 43.8474C57.6111 43.6621 57.6111 43.4346 57.6279 43.1735C57.6531 42.9207 57.7205 42.6427 57.8131 42.3563C57.9983 41.7835 58.2508 41.2949 58.436 40.9495C58.5539 40.7389 58.6465 40.5789 58.697 40.4778C58.7728 40.3598 58.857 40.2419 58.9411 40.124C59.623 39.1889 60.3554 38.4391 60.8942 37.8832L60.911 37.9C60.911 37.9 60.8858 37.9758 60.8942 38.1275C60.8942 38.1443 60.8942 38.1696 60.8942 38.1864C60.8942 38.2791 60.9195 38.397 60.9447 38.515C60.97 38.6413 61.0036 38.7845 61.0373 38.9446C61.1888 39.5848 61.4246 40.4609 61.8118 41.3876C62.1906 42.3142 62.662 43.1061 63.0577 43.6284C63.1503 43.7631 63.2513 43.8811 63.3355 43.9737C63.4197 44.0748 63.4955 44.1591 63.5544 44.2265C63.6049 44.277 63.6386 44.3191 63.6722 44.3444C63.7059 44.4034 63.7817 44.4792 63.9164 44.5297C63.9164 44.5466 64.1016 44.6392 64.4383 44.6814C64.775 44.7235 65.2296 44.7151 65.7347 44.7151C66.2398 44.7066 66.6944 44.6561 67.0227 44.5887C67.1911 44.555 67.3258 44.5129 67.4352 44.4792C67.4436 44.4792 67.4605 44.4792 67.4689 44.4708L67.7635 44.3612C67.7635 44.3612 67.7551 44.2349 67.6878 44.0496C67.6204 43.8642 67.511 43.6115 67.3005 43.3672C67.0985 43.1229 66.8291 42.9881 66.6355 42.946C66.4334 42.8955 66.3072 42.9123 66.3072 42.9292L66.1893 42.9039C66.122 42.8365 65.9283 42.6764 65.6758 42.4069C65.3643 42.0699 64.9771 41.556 64.6824 40.9158C64.4888 40.503 64.3541 40.0987 64.2784 39.7449C64.2278 39.4669 64.1858 39.0794 64.2363 38.6245C64.2615 38.3802 64.3204 38.119 64.413 37.8495C64.5393 37.5294 64.7414 37.1166 65.0528 36.6617C65.1034 36.5943 65.1454 36.5185 65.196 36.4511C65.2549 36.3668 65.3222 36.2826 65.3812 36.1984C65.6842 35.8024 66.0546 35.3812 66.4755 34.96C67.0648 34.3619 67.7551 33.7385 68.4202 33.0141C68.5885 32.8372 68.7485 32.6518 68.9 32.4665C69.06 32.2812 69.1862 32.0706 69.2873 31.8684C69.4977 31.4556 69.6492 31.0344 69.8008 30.6385C69.9691 30.1752 70.1291 29.7371 70.289 29.3412L70.6258 28.5578C70.6258 28.5578 70.912 28.4651 71.274 28.4061C71.2992 28.4061 71.3245 28.4061 71.3582 28.4061C71.5097 28.4061 71.7117 28.4061 71.9306 28.4314C72.1495 28.4651 72.3263 28.5409 72.4441 28.6167C72.562 28.6925 72.6293 28.7599 72.6462 28.7515C72.663 28.7431 72.6293 28.642 72.5115 28.5325C72.4525 28.4735 72.3684 28.423 72.2589 28.3724C72.04 28.1955 71.7538 28.0186 71.4844 28.0102C71.5265 27.9934 71.5686 27.9765 71.6191 27.9597C71.9138 27.8586 72.3431 27.7827 72.8061 27.8923C72.8566 27.9007 72.9155 27.9175 72.9661 27.9344C73.4038 28.1703 74.0857 28.5915 74.3214 29.0969C74.3382 29.1727 74.3551 29.2148 74.3719 29.2148C74.3888 29.2148 74.4056 29.1474 74.4056 29.0464C74.4308 28.8273 74.4308 28.4146 74.1867 27.9681C74.2372 28.0102 74.2877 28.0523 74.3298 28.0944C74.5908 28.4398 74.9696 29.08 74.9023 29.8382C74.877 29.9646 74.8518 30.0404 74.8686 30.0488C74.877 30.0488 74.9107 30.0151 74.9528 29.9309C75.1043 29.7119 75.3821 29.2233 75.3484 28.642C75.3569 28.6588 75.3737 28.6757 75.3821 28.6925C75.4495 28.8105 75.4831 28.9031 75.5084 28.9368C75.5421 29.0211 75.5757 29.08 75.5926 29.0716C75.601 29.0716 75.6094 29.0548 75.6094 29.0295C75.6515 28.9368 75.7525 28.7094 75.7694 28.5072C75.9967 28.8358 76.1482 29.1306 76.1903 29.1137C76.1903 29.1137 76.1903 29.1053 76.1903 29.0969C76.2913 29.2738 76.3839 29.4507 76.4176 29.5602C76.4176 29.5602 76.4681 29.1222 76.3502 28.5915C76.4428 28.8863 76.628 29.3496 76.9311 29.5265C76.9479 29.5434 76.9648 29.5518 76.9732 29.5518C76.99 29.5518 76.9816 29.5097 76.9732 29.4423C76.9732 29.2906 76.9732 29.0211 77.0321 28.8863C77.091 29.0042 77.1752 29.1474 77.2931 29.3075C77.5119 29.6529 77.8823 30.0741 78.4548 30.2004C78.4969 30.2173 78.5306 30.2257 78.5306 30.2173C78.5474 30.2004 78.4548 30.1162 78.3369 29.9898C78.278 29.8972 78.2359 29.7792 78.2191 29.636C78.2948 29.7119 78.379 29.7877 78.48 29.8719C78.6905 30.0741 79.0441 30.3268 79.6081 30.4869C79.6081 30.4869 79.4903 30.3437 79.465 30.1836C79.5408 30.251 79.6249 30.3184 79.7175 30.3858C79.9617 30.6385 80.4078 30.9923 81.0897 31.1776C81.0897 31.1776 81.0476 31.1271 80.9803 31.0597C80.9466 31.0007 80.8456 30.8912 80.7193 30.7312C80.6772 30.6722 80.6436 30.6132 80.6436 30.5627C80.7277 30.6216 80.8288 30.689 80.9466 30.748C81.014 30.7817 81.0982 30.8154 81.1823 30.8491C81.3423 30.9333 81.5275 31.026 81.7379 31.1187C82.1504 31.304 82.664 31.5062 83.2448 31.6747C83.8257 31.8431 84.4823 31.9779 85.1726 32.0622C85.4841 32.0959 85.7871 32.1211 86.0902 32.1296C86.0902 32.1464 86.368 32.1885 86.7973 32.1632C86.932 32.1632 87.0836 32.138 87.2351 32.1043C87.7065 32.0706 88.1359 32.0032 88.5315 31.9274H88.5484C88.6073 31.9105 88.6746 31.8937 88.7251 31.8853C89.1713 31.7842 89.5249 31.6662 89.7606 31.582C89.8195 31.5567 89.8784 31.5399 89.9205 31.5146L90.2657 31.4135C90.2657 31.5146 90.2741 31.6157 90.2825 31.7252C90.3499 32.9551 90.4341 34.0755 90.5014 34.9095C90.5519 35.735 90.6024 36.7628 90.6193 37.8832C90.6445 39.2479 90.5772 40.4862 90.493 41.3791C90.4846 41.4802 90.4762 41.5813 90.4677 41.674C90.4341 41.9014 90.4004 42.1794 90.4088 42.4827C90.4088 42.8702 90.493 43.2156 90.5856 43.4515C90.6782 43.6873 90.7708 43.8137 90.7876 43.8053C90.7876 43.8053 90.7876 43.78 90.7876 43.7463C90.7792 43.6031 90.7708 43.2493 90.9223 43.1398C91.1665 43.3672 91.419 43.7547 91.6126 44.2265C91.8147 44.7066 92.042 45.1363 92.2608 45.4142C92.4208 45.6164 92.5723 45.7259 92.6565 45.7681C92.7659 45.8439 92.9427 45.9197 93.1784 45.9702C93.6414 46.0798 94.2896 46.0882 94.9968 46.0461C95.7039 46.0124 96.3437 45.9534 96.7983 45.8523C97.0256 45.8018 97.2108 45.7428 97.3287 45.6754C97.396 45.6417 97.4381 45.5996 97.4633 45.5743H97.497C97.497 45.5743 97.4802 45.3974 97.3707 45.1531C97.2866 44.9678 97.1519 44.7403 96.9583 44.5213C97.3287 44.6224 98.2631 44.833 99.0628 44.5803C99.0712 44.5803 99.0881 44.5803 99.1049 44.5803C99.2144 44.555 99.307 44.5213 99.3575 44.4876C99.3996 44.4623 99.4248 44.4371 99.4417 44.4371C99.4585 44.4371 99.4417 44.2854 99.349 44.058C99.2649 43.839 99.1133 43.5273 98.8355 43.2661C98.5661 43.005 98.2126 42.8955 97.9769 42.8786C97.9348 42.8786 97.8927 42.8786 97.859 42.8786C97.7159 42.8449 97.5728 42.8281 97.4633 42.8449C97.4044 42.8112 97.3371 42.7775 97.2613 42.7354C97.034 42.6175 96.7478 42.4153 96.5121 42.112C96.2848 41.8088 96.1417 41.4802 96.0575 41.2444C95.9986 41.0759 95.9565 40.9579 95.9312 40.899C95.9312 40.8484 95.9228 40.7895 95.9144 40.7221C95.906 40.5873 95.8891 40.4272 95.8723 40.2419C95.8554 40.0566 95.8386 39.846 95.8302 39.6101C95.8049 39.1383 95.7881 38.5739 95.7881 37.9506C95.7881 37.3272 95.8218 36.6448 95.8723 35.9204C95.9312 35.2043 96.0238 34.522 96.1164 33.907C96.2174 33.2921 96.3269 32.7445 96.4363 32.2812C96.4363 32.2475 96.4531 32.2138 96.4616 32.1801L96.9667 30.3184C97.0761 30.1499 97.1771 29.9898 97.2781 29.8466C97.7917 29.4423 98.9786 28.4819 99.2901 28.0102C99.2901 28.0102 99.2901 28.0102 99.307 27.9934C99.4332 27.8417 99.5595 27.6901 99.6858 27.5216C99.7868 27.3868 99.8794 27.252 99.972 27.1173C100.418 26.4855 100.94 25.6599 100.991 25.1629C100.991 25.1629 101.066 25.2808 101.066 25.4661C101.05 25.5335 101.041 25.5757 101.05 25.5841C101.066 25.5841 101.176 25.3988 101.218 25.0618C101.268 24.8006 101.294 24.43 101.243 23.9245C101.243 23.9245 101.412 24.1099 101.428 24.3289C101.428 24.3289 101.428 24.1941 101.428 24.0172C101.428 24.0004 101.428 23.9582 101.428 23.8993C101.428 23.6887 101.412 23.4359 101.378 23.2338C101.344 22.7452 101.344 22.0713 101.395 21.3299C101.445 20.5886 101.529 19.9147 101.605 19.4345C101.605 19.4177 101.605 19.4093 101.605 19.3924C101.605 19.6788 101.639 19.9316 101.673 20.1337C101.715 20.3864 101.832 20.5128 101.849 20.5044C101.849 20.5044 101.849 20.4875 101.849 20.4623C101.832 20.2769 101.765 19.4261 101.9 19.047C101.933 19.2239 101.976 19.384 102.026 19.5104C102.102 19.6873 102.178 19.7799 102.194 19.7715C102.203 19.7715 102.194 19.7462 102.194 19.7041C102.194 19.7041 102.018 18.9291 102.211 18.4826C102.27 18.7269 102.38 18.8533 102.388 18.8449C102.413 18.8364 102.287 18.6343 102.279 18.272C102.279 18.2215 102.279 18.1794 102.279 18.1288L102.354 17.6486L102.405 17.4633C102.455 17.2864 102.523 17.1011 102.59 16.8989C102.683 16.6293 102.758 16.3682 102.792 16.1155C102.792 16.0649 102.801 16.0228 102.801 15.9638C102.809 15.7701 102.792 15.5932 102.758 15.45C102.733 15.3573 102.716 15.2646 102.691 15.1888C102.691 15.1888 102.885 15.5342 102.969 15.8543C102.969 15.9807 102.977 16.0649 103.003 16.0649C103.045 16.0733 103.146 15.7111 103.053 15.2646C103.011 15.0456 102.927 14.8519 102.843 14.7255C102.784 14.6328 102.725 14.5823 102.691 14.5654C102.801 14.4981 103.011 14.2875 103.154 13.9758C103.205 13.8662 103.247 13.7483 103.264 13.6472C103.322 13.7652 103.482 14.0432 103.626 13.9421C103.651 13.9336 103.592 13.782 103.533 13.5377C103.474 13.2934 103.424 12.9565 103.474 12.5774C103.491 12.4089 103.533 12.2404 103.567 12.0972C103.592 12.0298 103.617 11.9624 103.651 11.8866C103.819 11.5075 104.038 11.061 104.383 10.6314C104.467 10.5303 104.56 10.4292 104.669 10.3366C104.779 10.2439 104.888 10.1513 105.015 10.067C105.259 9.89011 105.52 9.73005 105.797 9.57842C106.353 9.26673 106.909 9.00558 107.389 8.72759C107.633 8.58438 107.86 8.4496 108.054 8.28954C108.155 8.21372 108.239 8.12948 108.323 8.04524C108.365 8.00312 108.399 7.961 108.432 7.91046C108.466 7.86834 108.508 7.82622 108.533 7.77567C108.761 7.41344 108.862 7.05963 108.803 6.81533C108.794 6.76479 108.778 6.71425 108.761 6.67213C108.761 6.64685 108.744 6.62158 108.735 6.58789C108.702 6.50365 108.651 6.42783 108.609 6.38571C108.592 6.36886 108.584 6.35201 108.576 6.34359C108.643 6.25935 108.71 6.17511 108.752 6.09087C108.862 5.88869 108.904 5.66967 108.912 5.47591C108.912 5.28216 108.912 5.11368 108.895 4.97047C108.895 4.88623 108.879 4.80199 108.879 4.7346C108.879 4.65036 108.879 4.524 108.879 4.38921C108.87 4.22073 108.853 4.07752 108.836 3.99328V3.97644V3.95116L108.803 3.96801Z" fill="white"/>
<path d="M10.2329 45.6671C9.1806 45.844 7.75791 45.7008 7.55587 45.5829C7.35383 45.4649 7.24439 45.069 7.24439 45.069C7.24439 45.069 6.95817 44.8668 6.89924 44.7826C6.55409 44.0918 6.96659 42.2975 6.96659 42.2975C6.96659 42.2975 6.57935 42.5586 6.49516 43.0304C6.45307 42.3228 6.62144 41.91 6.62144 41.91L6.22578 42.1122C6.22578 42.1122 6.57093 41.632 6.37731 41.2445C6.13318 41.4888 6.02374 41.8679 6.03216 42.1627C5.45129 41.1771 6.15001 39.8377 6.15001 39.8377C6.15001 39.8377 5.76277 40.023 5.55231 40.579C5.41762 39.6776 6.62986 38.3887 6.62986 38.3887L6.11634 38.5909C6.11634 38.5909 7.15179 37.024 7.93469 36.2406C8.70918 35.4572 8.625 34.5727 8.56607 34.6822C8.35561 35.5835 7.71582 36.0469 7.71582 36.0469C7.71582 36.0469 8.3051 35.1539 8.16199 34.7496C7.69898 34.817 7.5222 35.6509 7.5222 35.6509C7.5222 35.6509 7.4801 34.6064 7.95153 33.8313C7.54745 34.4968 6.99184 34.6653 6.99184 34.6653C6.99184 34.6653 7.62322 34.2441 7.69898 32.6604C7.69898 32.534 8.18724 29.0296 7.79158 28.9538C7.32016 28.878 6.80664 29.5351 6.80664 29.5351C6.80664 29.5351 6.77297 29.2655 6.89082 29.1728C6.67195 29.156 5.8217 29.7962 5.8217 29.7962C5.8217 29.7962 5.93955 29.3498 6.25103 29.1728C5.71226 29.1981 5.19032 29.6951 5.19032 29.6951C5.19032 29.6951 5.27451 29.3835 5.40078 29.2739C4.9967 29.3245 4.44951 29.9563 4.44951 29.9563C4.44951 29.9563 4.43268 29.5014 4.67681 29.2402C4.42426 29.2908 4.16329 29.6951 4.16329 29.6951C4.16329 29.6951 3.85181 27.488 5.5018 26.9573C5.87221 26.8478 6.46991 26.7888 6.58776 26.7299C6.70562 26.6709 10.376 24.0426 13.5329 23.6551C16.6897 23.2592 19.1731 23.8236 19.4004 23.8236C19.6277 23.8236 26.4045 24.051 26.8591 24.051C32.1542 24.1016 35.6057 17.3202 36.9274 17.0085C37.4156 16.7979 38.2154 16.7221 38.2995 16.7221C38.3837 16.7221 40.0674 16.4947 40.522 16.6632C40.9766 16.8316 42.4329 17.5477 42.4329 17.5477C42.4329 17.5477 42.7444 17.6067 42.9465 17.6909C43.1485 17.7751 43.3169 17.9183 43.3758 18.0868C43.4347 18.2553 43.4852 18.5417 43.5189 18.626C43.5526 18.7102 43.8304 19.1735 44.1419 19.3083C44.4533 19.4431 45.5056 19.6537 45.9939 19.7632C46.4737 19.8811 47.8796 20.235 48.0732 20.5045C48.2668 20.7741 48.048 21.2458 48.048 21.2458C48.048 21.2458 47.7954 21.6418 47.7954 21.726C47.7954 21.8102 47.686 22.7369 47.3156 23.2339C46.9367 23.7393 46.036 24.2869 45.7161 24.3712C45.4046 24.4554 42.8286 24.5986 42.3235 24.7081C41.8184 24.8176 41.8857 25.3146 41.9026 25.5505C41.9194 25.7864 42.1636 26.2581 42.1636 27.0079C41.8016 26.4435 41.3722 26.3508 41.3722 26.3508C41.3722 26.3508 41.4143 27.3785 41.2544 27.8587C41.0271 27.109 40.6819 26.9152 40.6567 26.831C40.9092 28.3557 40.2021 28.9959 40.2021 28.9959C40.2021 28.9959 40.2526 27.6902 39.7138 27.6818C39.6549 28.3304 39.8401 29.2908 39.6212 29.8299C39.6549 29.1307 38.9478 28.7095 38.9478 28.7095C38.9478 28.7095 39.4697 29.8889 39.1498 30.7144C38.872 29.6951 38.3501 29.6446 38.3501 29.6446C38.3501 29.6446 39.2508 31.0177 39.0656 32.2055C38.8888 31.3968 38.6952 31.3715 38.6615 31.3547C39.1666 32.6688 38.7878 33.9661 38.7878 33.9661L38.611 33.4944C38.611 33.4944 38.611 34.3452 38.3669 34.8001C38.3669 34.4294 38.3585 34.3199 38.3585 34.3199C38.3585 34.3199 37.7439 36.4007 37.3651 36.5607C37.584 36.1058 37.4914 35.3898 37.4914 35.3898C37.4914 35.3898 36.9021 37.3947 36.2202 37.7654C36.4391 37.2515 36.4054 37.142 36.3212 36.9482C34.7891 37.7654 34.9743 42.6681 34.9743 42.6681C34.9743 42.6681 36.1024 42.5755 36.9695 42.9377C37.8365 43.3 37.8029 44.3614 37.3483 44.572C36.8937 44.7826 36.4644 44.6983 36.4644 44.6983C36.4644 44.6983 36.7253 44.9595 36.6748 45.4818C36.5822 46.2484 35.7235 46.3579 34.5871 46.2821C33.4506 46.2062 32.3141 46.2821 31.9606 46.0715C31.607 45.8693 31.2618 45.347 31.2618 45.347C31.2618 45.347 30.7315 45.4144 30.8325 46.1052C30.42 45.5997 30.4453 45.2038 30.4453 45.2038L30.1422 45.507C30.1422 45.507 29.7045 44.9005 30.0412 44.294C29.595 44.5383 29.4435 45.0943 29.393 45.2796C29.2751 44.9932 29.1994 44.5467 29.1994 44.5467L28.8963 44.9342L28.7616 44.2434C28.7616 44.2434 28.4838 44.5636 28.4754 44.9342C28.0966 44.4288 28.2902 42.5418 28.2902 42.5418C28.2902 42.5418 28.0545 42.9124 27.9114 43.4516C27.4652 43.0641 27.4147 42.0869 27.4147 42.0869C27.4147 42.0869 27.2295 42.2217 27.1453 42.3902C27.019 42.2385 27.0695 41.632 27.0695 41.632C27.0695 41.632 27.0106 41.7752 26.7833 41.8847C26.8422 41.5983 26.5392 40.5706 26.5392 40.5706C26.5392 40.5706 26.1603 41.1602 26.1435 41.5309C25.8825 41.3119 25.8152 41.1013 25.8152 41.1013C25.8152 41.1013 25.8657 41.7415 25.6216 42.0111C25.5879 41.4719 25.1249 40.3768 25.0912 40.4948C24.9565 40.6127 24.8639 40.8907 24.8639 41.0255C24.7376 40.9581 24.6282 40.7222 24.6366 40.6043C24.4598 40.6548 24.3925 41.017 24.443 41.2866C24.1063 41.1013 24.0221 40.1831 24.0221 40.1831C24.0221 40.1831 23.618 40.6885 23.719 41.2445C23.1718 40.5706 23.0961 39.5007 23.0961 39.5007C23.0961 39.5007 22.9445 40.0735 22.7509 40.1578C22.5573 39.2901 21.9175 38.6499 21.9175 38.6499C21.9175 38.6499 21.7744 39.1048 21.9428 39.3828C20.9747 39.029 20.1581 37.4874 20.1581 37.4874C20.1581 37.4874 20.4443 38.4393 20.3517 38.6667C20.2675 38.254 19.8971 37.9086 19.8971 37.9086C19.8971 37.9086 19.7288 38.254 19.8971 38.4814C19.2405 38.2624 18.8701 37.2262 18.8701 37.2262C18.8701 37.2262 18.7017 37.9254 19.1395 38.4814C18.3902 38.3887 17.8094 37.3779 17.6578 36.6618C17.5063 35.9373 16.3698 34.9517 16.3698 34.9517C16.3698 34.9517 17.0096 35.9373 16.715 36.9904C16.614 35.6846 15.9153 35.255 15.9153 35.255C15.9153 35.255 15.5196 36.0806 15.4859 37.0493C15.065 36.586 15.0061 35.8278 15.0061 35.8278C15.0061 35.8278 14.9051 37.2852 14.038 38.0602C14.0801 37.2347 13.8191 36.8387 13.5245 37.1167C13.2214 38.5319 12.4722 38.3382 11.9334 40.7643C11.9334 40.8823 11.8745 41.851 12.026 42.0532C12.1859 42.2554 12.3038 42.3902 12.4722 42.4154C12.6405 42.4407 13.4908 42.2891 13.6002 42.3312C13.7181 42.3649 14.2737 42.188 14.3158 43.3421C14.3158 43.679 13.8275 43.8896 13.676 43.8896C13.5245 43.8896 11.8745 43.9402 11.5546 43.9233C11.2263 43.9065 10.9821 43.7464 10.8053 43.6538C10.6286 43.5611 10.6033 43.123 10.6033 43.123L10.4097 43.1989L10.2076 42.3312L9.87091 42.7861C9.87091 42.7861 9.79514 41.4214 9.64361 41.3793C9.49208 41.632 9.44157 42.3649 9.34055 42.8198C9.2227 43.3758 9.03749 43.8728 9.35739 44.0918C9.65203 44.294 10.2834 43.9907 10.7969 44.0244C11.3104 44.0497 11.3946 44.6983 11.3441 45.0269C11.2936 45.3554 11.2178 45.5239 10.3087 45.684L10.2329 45.6671Z" fill="white"/>
</svg>
