<svg width="62" height="63" viewBox="0 0 62 63" fill="none" xmlns="http://www.w3.org/2000/svg">
<path d="M60.7517 35.2043C60.6255 35.0634 61.4863 34.344 61.3305 34.0474L46.9798 32.5864L45.1766 32.1118C45.1766 32.1118 45.4809 31.8003 45.3696 31.6371L42.7651 30.28C42.9877 29.9092 43.5887 30.0872 43.0099 29.6051C41.5259 28.3741 37.8158 27.7289 35.9459 27.0985C33.0594 26.127 30.351 24.9256 27.3681 24.0727C23.376 22.9306 19.7772 22.8342 16.5123 19.942C14.3456 18.0212 13.8039 15.2031 13.381 12.4369C12.9432 9.57426 13.3364 4.83537 11.2365 2.68471C10.4426 1.86894 8.83978 0.979004 7.69707 0.979004C7.07377 0.979004 6.1685 1.37206 5.76039 1.36464C5.55262 1.36464 5.33744 1.13474 5.07773 1.09025C4.44701 0.98642 3.88307 1.09766 3.564 1.69095C3.4156 1.97276 3.43044 2.29907 3.37108 2.41031C3.04459 2.97393 1.08565 2.96652 0.447508 4.56098C-0.175791 6.11094 0.432668 5.48057 1.21921 5.23584C1.76831 5.06527 3.28946 4.86504 3.71983 5.23584C3.83855 5.33967 3.83855 5.66597 3.97954 5.87363C4.13536 6.10352 4.43959 6.1851 4.58057 6.42983C6.40595 9.57425 2.43613 13.2378 2.15416 16.4193C1.99092 18.2363 4.09084 19.7862 4.93675 17.947C5.84943 15.9669 5.68619 12.867 6.33175 10.7312C6.61372 9.78191 6.73244 10.1305 6.7918 10.8943C6.88826 12.1773 6.52467 13.7199 6.22044 14.9732C5.61199 17.4946 4.49153 19.7936 3.88307 22.3077C4.0018 22.5153 4.23182 22.2335 4.15762 22.4857L1.65701 34.5368L2.04286 34.4404V38.2078L2.48065 38.1114C3.51948 41.0407 4.55089 44.0517 6.73244 46.3358C7.3038 46.9365 8.03098 47.426 8.57266 48.0712C9.26274 48.887 9.71537 49.7769 10.5984 50.4888C10.9991 50.8152 11.3256 50.8596 11.704 51.1266C11.9785 51.3194 12.9803 52.595 13.2622 52.328L13.4032 51.9424C13.9152 52.3132 15.0357 53.4775 15.6293 53.4924C15.8519 53.4998 16.0448 53.3663 16.2823 53.4034C16.7423 53.4775 17.4101 54.1672 17.9963 54.0634C18.1076 54.1746 17.1727 56.6739 17.0169 57.0002C16.8388 57.371 15.6219 59.5439 15.4215 59.6625C14.9021 59.9592 13.3958 59.5661 12.7725 59.4326C11.6075 59.1879 11.1697 58.7949 9.86378 59.136C9.31468 59.2769 9.18112 59.5513 8.99561 60.0556C9.37404 59.9889 9.69311 59.6996 10.1012 59.7664L12.9654 60.8269H9.72279C9.29984 60.8269 8.46877 61.4498 8.36489 61.8874C8.20907 62.5177 8.98819 61.7835 9.12917 61.8058C9.22564 61.8206 9.34436 62.006 9.47792 62.0357C10.4722 62.2953 11.4146 62.0431 12.4386 62.0728C13.0025 62.0876 13.7075 62.2433 14.2714 62.2656C14.9986 62.3027 16.4307 62.4287 17.0762 62.362C17.8034 62.2804 18.167 61.9541 18.4267 61.3015C18.8571 61.9838 19.4952 62.7106 20.3782 62.7476C20.6454 62.7551 20.8754 62.6142 21.1351 62.6512C21.3206 62.6809 21.38 62.8737 21.5729 62.844C21.6768 62.2656 21.4245 62.2878 21.187 62.0283C21.0609 61.8948 20.9793 61.6946 20.8383 61.5981C20.7344 61.524 19.2949 61.0494 19.5472 60.7156C19.7475 60.4487 20.2373 60.812 20.4153 60.864C21.2761 61.1087 25.2682 60.1149 26.2773 59.7515C26.5073 59.67 27.1529 59.2621 27.2419 59.2621C27.3087 59.2621 27.5981 60.0259 28.2066 60.0482C28.3995 60.0482 28.6444 59.9444 28.7705 59.9666C28.8521 59.9814 29.2306 60.33 29.2009 59.9073C29.1638 59.2769 28.214 58.8616 27.8801 58.4241C26.9006 57.1633 27.8652 53.9818 28.2511 52.5357C28.3921 52.4393 29.2157 52.4838 29.4383 52.5208C30.1507 52.6173 31.605 53.344 32.0948 53.344C32.5326 53.344 32.2951 52.684 32.5548 52.7878C32.8442 52.8991 33.0594 53.2105 33.5343 53.2625C33.9498 53.307 34.1428 53.0993 34.2021 53.0993C34.2837 53.0993 34.9887 53.9299 35.56 53.9522C36.584 53.9967 36.1165 52.4764 35.8494 51.9127C35.7307 51.6532 35.048 50.7632 35.0332 50.6965C35.0183 50.6223 35.2484 50.3034 35.2706 50.0884C35.3003 49.8214 35.1519 49.5025 35.2187 49.2133C35.6639 49.5915 35.9756 50.2589 36.4133 50.6297C36.5543 50.7558 36.8289 50.919 37.0144 50.9486C37.4448 51.0228 37.8751 50.83 38.1645 50.8596C38.35 50.8745 38.4762 51.0821 38.6691 51.1266C39.5447 51.3343 39.8415 50.563 40.1012 50.563C40.2273 50.563 40.4425 50.7632 40.628 50.8151C41.3404 50.9931 41.8078 50.5927 42.0898 49.9845C42.5647 50.385 43.188 50.741 43.8336 50.5259C44.071 50.4443 44.2046 50.0884 44.2639 50.0884C44.301 50.0884 44.6943 50.4592 44.865 50.5482C45.889 51.097 46.9055 51.1563 47.7515 50.2812C47.9221 50.1032 48.3154 49.3987 48.3748 49.3616C48.7606 49.1243 49.6213 49.547 50.2669 48.7386C50.5563 48.3753 50.5118 47.9674 50.6528 47.7671C50.7344 47.6559 51.6768 47.4186 52.0997 46.7956C52.3965 46.3655 52.4485 45.5349 52.5598 45.3717C52.5894 45.3347 53.1979 45.0083 53.3611 44.8674C53.7989 44.4892 54.0883 44.1777 54.2219 43.5919C54.259 43.4139 54.1774 43.2433 54.1848 43.2285C54.2219 43.184 55.1049 42.9838 55.3349 42.8725C56.166 42.4869 56.8041 41.6414 56.9822 40.7515C57.0119 40.6106 56.9525 40.2917 56.9971 40.2398C57.0119 40.2176 57.3161 40.1656 57.4645 40.0766C58.214 39.6465 58.6963 39.0903 59.1341 38.3561C59.2528 38.1559 59.3344 37.7332 59.4309 37.6368C59.5274 37.5403 59.9429 37.4291 60.1136 37.3104C60.4549 37.0731 61.6347 35.9088 61.6347 35.538L60.7591 35.1969L60.7517 35.2043ZM25.6689 54.8124C25.5056 55.3686 24.8378 57.1411 24.5632 57.5712C24.0364 58.3944 21.9662 58.5575 21.0535 58.5056C20.3411 58.4686 19.5991 58.2164 18.8794 58.2164C19.1613 57.282 19.332 56.3105 19.6733 55.3909C19.8366 54.9533 20.5118 53.3959 20.7641 53.0993C20.9793 52.8546 21.3058 52.8694 21.5877 52.5728C21.8252 52.3206 21.8178 52.0685 21.9662 51.8905C22.0923 51.7347 22.404 51.6532 22.6043 51.4603C22.8343 51.2453 22.8863 51.0006 23.0866 50.7781C23.1682 50.8448 23.1979 50.9561 23.2721 51.0228C24.0735 51.7792 23.8361 51.5123 24.8007 51.7644C25.194 51.8682 25.6392 52.4319 26.2254 52.2242C26.025 53.0622 25.9137 53.9892 25.6763 54.8124H25.6689Z" fill="#ECEFDF"/>
</svg>
