<svg width="50" height="39" viewBox="0 0 50 39" fill="none" xmlns="http://www.w3.org/2000/svg">
<path d="M30.6856 15.6674C30.6856 15.6674 30.7016 15.6514 30.7056 15.6474L30.6896 15.6634L30.6816 15.6714L30.6856 15.6674Z" fill="white"/>
<path d="M41.3445 19.9911C41.3522 20.014 41.356 20.037 41.3636 20.0561L41.3254 19.8995C41.3331 19.9338 41.3407 19.9644 41.3483 19.9911H41.3445Z" fill="white"/>
<path d="M29.2431 8.85852C29.2431 8.85852 29.1855 8.89696 29.1086 8.95461C29.1778 8.90849 29.2239 8.8739 29.2431 8.85852Z" fill="white"/>
<path d="M27.3066 17.9249C27.3066 17.9249 27.3107 17.9208 27.3148 17.9167H27.3107V17.9249H27.3066Z" fill="white"/>
<path d="M45.5898 0.774734H45.7425C45.6967 0.767097 45.6471 0.770915 45.6013 0.774734H45.5937H45.5898Z" fill="white"/>
<path d="M49.5643 2.80729C49.5643 2.80729 49.5643 2.78818 49.5643 2.77672C49.5643 2.73469 49.5681 2.69266 49.5643 2.65062C49.5643 2.65062 49.5605 2.64298 49.5566 2.63916V2.80729H49.5643Z" fill="white"/>
<path d="M46.3725 9.41638C46.3763 9.48501 46.3915 9.53457 46.3991 9.56126L46.3687 9.36682C46.3687 9.36682 46.3687 9.40113 46.3687 9.41638H46.3725Z" fill="white"/>
<path d="M28.7922 9.23297C28.7922 9.23297 28.7727 9.24865 28.7649 9.25649C28.7766 9.24865 28.7883 9.24081 28.7922 9.23297Z" fill="white"/>
<path d="M27.3068 17.9249L27.3109 17.9167C27.3109 17.9167 27.3068 17.9208 27.3027 17.9249H27.3068Z" fill="white"/>
<path d="M30.6853 15.6676L30.6933 15.6596L30.7092 15.6436C30.7092 15.6436 30.6933 15.6596 30.6893 15.6636L30.6853 15.6676Z" fill="white"/>
<path d="M41.3444 19.9911C41.3368 19.9644 41.3292 19.9338 41.3215 19.8995L41.3597 20.0561C41.3521 20.037 41.3483 20.014 41.3406 19.9911H41.3444Z" fill="white"/>
<path d="M44.4827 1.18389C44.4827 1.18389 44.4867 1.18389 44.4908 1.17981C44.4908 1.17981 44.4867 1.17981 44.4827 1.18389Z" fill="white"/>
<path d="M45.5898 0.774837H45.5974C45.647 0.771018 45.6928 0.771018 45.7386 0.774837H45.5859H45.5898Z" fill="white"/>
<path d="M46.3992 9.56126C46.3916 9.53457 46.3764 9.48501 46.3726 9.41638C46.3726 9.40113 46.3726 9.38588 46.3726 9.36682L46.4031 9.56126H46.3992Z" fill="white"/>
<path d="M49.5679 2.77281C49.5679 2.77281 49.5679 2.79192 49.5679 2.80338V2.63525C49.5679 2.63525 49.5717 2.64672 49.5755 2.64672C49.5755 2.68493 49.5755 2.72696 49.5755 2.77281H49.5679Z" fill="white"/>
<path d="M49.5372 2.0813L49.5487 2.05456C49.5487 2.05456 49.5601 2.01635 49.5678 1.99725C49.5792 1.95905 49.5868 1.92467 49.5945 1.88646C49.6098 1.81388 49.6212 1.74129 49.6212 1.67252C49.6212 1.60376 49.6098 1.53499 49.5868 1.47768C49.5639 1.42038 49.5219 1.37071 49.4761 1.34397C49.3807 1.28667 49.2929 1.29431 49.2394 1.29813C49.1822 1.30195 49.1554 1.31341 49.1554 1.31723C49.1554 1.31341 49.1173 1.30959 49.0524 1.32105C49.018 1.32869 48.9798 1.34015 48.9378 1.36307C48.934 1.36307 48.9302 1.37071 48.9226 1.37071C48.8806 1.37071 48.8347 1.37071 48.7966 1.37071C48.6515 1.37453 48.3728 1.4051 48.0559 1.47386C47.8269 1.52353 47.6245 1.58847 47.4756 1.59611C47.3458 1.60376 47.2618 1.58083 47.2389 1.58083C47.1817 1.54645 47.1168 1.49679 47.0786 1.41656C47.0862 1.4051 47.09 1.386 47.0939 1.35543C47.0939 1.30959 47.0862 1.24846 47.0519 1.18734C47.0175 1.12621 46.9717 1.08419 46.9297 1.06127C46.8915 1.03834 46.861 1.03452 46.8571 1.04598C46.8533 1.05744 46.8839 1.08419 46.9259 1.13003C46.8686 1.09183 46.8037 1.06127 46.7388 1.02688C46.5441 0.931373 46.3036 0.812942 46.0172 0.744176C45.8722 0.709793 45.7195 0.694511 45.5553 0.705972C45.3949 0.717433 45.2308 0.759457 45.0743 0.816763C44.7574 0.931373 44.471 1.08037 44.2267 1.24464C43.9824 1.4051 43.7839 1.58083 43.6273 1.73365C43.6121 1.74893 43.5968 1.76421 43.5815 1.78331C43.5815 1.78331 43.5013 1.84444 43.3944 1.94759C43.3906 1.95141 43.3868 1.95523 43.383 1.95905C43.3715 1.97051 43.3563 1.98579 43.3448 1.99725C43.2685 2.07366 43.1883 2.16153 43.1157 2.27232C42.9936 2.44423 42.9249 2.63143 42.9058 2.76896C42.8829 2.9065 42.902 2.99436 42.9058 2.99054C42.9096 2.99054 42.9134 2.97144 42.921 2.93706C42.9325 2.89504 42.9554 2.84155 42.9859 2.80335C42.9554 2.95234 42.9363 3.12426 42.921 3.30381C42.9134 3.42606 42.9058 3.55596 42.8829 3.68585C42.86 3.81574 42.8256 3.94945 42.7798 4.08317C42.6882 4.35059 42.5698 4.59509 42.4515 4.80903C42.3942 4.916 42.3369 5.01915 42.2797 5.11084C42.2224 5.20253 42.1537 5.27894 42.0964 5.35152C41.9781 5.4967 41.8902 5.61895 41.8292 5.70682C41.8292 5.71064 41.8215 5.71446 41.8177 5.7221C41.7528 5.79469 41.6955 5.85199 41.665 5.87109C41.665 5.87109 41.6955 5.85963 41.7452 5.84053C41.791 5.82143 41.8482 5.79468 41.9055 5.76412C41.8979 5.77176 41.8941 5.7794 41.8864 5.78704C41.8139 5.86727 41.7375 5.9284 41.6764 5.96278C41.6154 5.99716 41.5734 6.01245 41.5772 6.02391C41.5085 6.05447 41.4359 6.08121 41.3596 6.08885C41.3596 6.08885 41.5352 6.13852 41.6994 6.11177C41.6841 6.11559 41.6688 6.12324 41.6497 6.13088C41.5314 6.1729 41.3672 6.22639 41.1878 6.29897C41.0083 6.37538 40.8633 6.48617 40.7793 6.5855C40.7793 6.5855 40.7755 6.58932 40.7716 6.59314C40.7182 6.63898 40.6838 6.68483 40.6762 6.73067C40.5808 6.73067 40.4739 6.72685 40.3593 6.73067C40.2028 6.73831 40.031 6.76506 39.8554 6.80708C39.8325 6.8109 39.8134 6.81854 39.7905 6.82236C39.6721 6.83764 39.5347 6.86438 39.3782 6.89877C39.1987 6.94079 39.0002 6.99428 38.7788 7.04394C38.3321 7.14327 37.7938 7.21968 37.1906 7.28844C36.5874 7.35721 35.9269 7.42216 35.2283 7.45272C34.5296 7.4871 33.8653 7.47946 33.2621 7.44126C32.9605 7.41834 32.6742 7.39159 32.4069 7.35339C32.3687 7.34957 32.3306 7.34193 32.2924 7.33811C32.2351 7.32665 32.1626 7.31137 32.0786 7.29608C32.0213 7.28844 31.9602 7.27698 31.8915 7.26934C31.8228 7.26552 31.7503 7.25788 31.6739 7.25024C31.5976 7.2426 31.5174 7.25024 31.4334 7.24642C31.3914 7.24642 31.3456 7.25024 31.2998 7.25406C31.2425 7.25024 31.1814 7.24642 31.1242 7.24642C31.1089 7.24642 31.0898 7.24642 31.0745 7.24642C31.0134 7.23878 30.9485 7.22732 30.8875 7.21968C30.4751 7.17001 30.017 7.17383 29.5971 7.2808C29.368 7.32283 29.1427 7.39159 28.9251 7.49092C28.3372 7.75835 27.9058 8.23207 27.5851 8.78602C27.2262 9.4011 26.9857 10.0773 26.6879 10.7191C26.5276 11.0668 26.3481 11.4221 26.1 11.7201C25.9511 11.7965 25.806 11.8767 25.6648 11.9569C25.3899 12.1174 25.1379 12.2931 24.9127 12.4803C24.6912 12.6675 24.4927 12.87 24.3362 13.0763C24.1758 13.2826 24.0575 13.4965 23.9697 13.699C23.7941 14.1078 23.7597 14.4745 23.7673 14.719C23.775 14.8413 23.7864 14.9368 23.8017 15.0017C23.8131 15.1125 23.8437 15.1737 23.8513 15.1698C23.8551 15.1698 23.8513 15.1507 23.8513 15.1164C23.8513 15.0743 23.8513 15.0094 23.8513 14.9292C23.8628 14.8031 23.901 14.6388 23.9468 14.4631C24.0269 14.1689 24.13 13.9282 24.1682 13.8289C24.1949 13.8212 23.9391 14.8107 23.9391 14.8107L24.0193 14.6121C24.004 14.6694 23.9926 14.7229 23.9849 14.7649C23.9697 14.8604 23.9697 14.9215 23.9735 14.9215C23.9849 14.9215 24.0117 14.6847 24.1224 14.4096C24.1491 14.3408 24.172 14.1689 24.2789 14.1918C24.3247 14.1995 24.3209 14.2453 24.3095 14.2797C24.2636 14.444 24.2026 14.6006 24.13 14.7496C24.0918 14.826 24.0422 14.8909 24.004 14.9674C23.9811 15.0017 23.9277 15.0629 23.9544 15.1087C23.962 15.124 24.2369 14.9368 24.466 14.6044C24.5538 14.4784 24.6301 14.3408 24.6874 14.1956C24.7027 14.1613 24.7141 14.1231 24.7256 14.0849C24.7294 14.0658 24.7332 14.0505 24.7409 14.0314C24.7409 14.0237 24.7676 13.9779 24.7752 13.997C24.7752 14.0008 24.7752 14.0084 24.7752 14.0123C24.7485 14.1116 24.7638 14.2186 24.7523 14.3179C24.737 14.4592 24.7027 14.5739 24.6989 14.6197C24.6645 14.6847 24.6454 14.7229 24.6531 14.7305C24.6531 14.7305 24.6607 14.7305 24.6721 14.719V14.7267C24.6836 14.742 24.8974 14.5815 25.0845 14.3141C25.1761 14.1804 25.2448 14.0505 25.283 13.9511C25.283 13.955 25.283 13.9588 25.283 13.9664C25.2524 14.1269 25.2181 14.253 25.2334 14.2606C25.2372 14.2606 25.2448 14.2568 25.2563 14.2415C25.2754 14.2491 25.3326 14.1154 25.4281 13.9664C25.4739 13.89 25.5235 13.8289 25.5579 13.7792C25.5579 13.7983 25.5502 13.8136 25.5464 13.8327C25.5159 14.0237 25.5388 14.1804 25.5579 14.1804C25.577 14.1804 25.5846 14.0275 25.6151 13.8442C25.638 13.7105 25.6648 13.5997 25.6724 13.5462L25.7793 13.4545C25.7526 13.4927 25.7029 13.5997 25.6724 13.7372C25.6342 13.9168 25.6609 14.0658 25.68 14.0619C25.6877 14.0619 25.6953 14.0314 25.6991 13.9893C25.7068 13.9702 25.7144 13.9397 25.7297 13.9015C25.7564 13.8327 25.806 13.7448 25.8671 13.6493C25.9473 13.5309 26.016 13.4278 26.0542 13.359L26.1 13.3437C26.0542 13.4163 26.0045 13.5271 25.9778 13.6608C25.9549 13.7907 25.9625 13.9168 25.9816 14.0008C26.0007 14.0849 26.0274 14.1345 26.0351 14.1307C26.0389 14.1307 26.0389 14.1154 26.0351 14.0963C26.0542 14.0849 26.0618 13.9282 26.1038 13.7448C26.1191 13.6684 26.1382 13.5997 26.1534 13.5462C26.1458 13.6684 26.1611 13.7792 26.184 13.8556C26.2069 13.932 26.2336 13.9741 26.2412 13.9702C26.2603 13.9626 26.2031 13.7792 26.2222 13.55C26.2374 13.3208 26.3214 13.1489 26.3061 13.1374L26.5428 12.9999C26.5428 12.9999 26.5123 13.0266 26.497 13.0419C26.4359 13.103 26.3634 13.2062 26.3214 13.3361C26.2794 13.466 26.2718 13.5882 26.2832 13.6761C26.2947 13.7639 26.3138 13.8136 26.3252 13.8136C26.3329 13.8136 26.3329 13.7869 26.3329 13.7448C26.3405 13.7219 26.3481 13.6875 26.3596 13.6493C26.3825 13.5691 26.4283 13.4583 26.4894 13.3437C26.539 13.252 26.5925 13.168 26.6383 13.103C26.6154 13.1565 26.5963 13.2215 26.5848 13.294C26.5696 13.401 26.5696 13.4965 26.5734 13.5691C26.5772 13.6379 26.5887 13.6799 26.5963 13.6799C26.6192 13.6799 26.623 13.508 26.6536 13.3055C26.6536 13.2902 26.6574 13.2749 26.6612 13.2597C26.6688 13.3399 26.6803 13.4125 26.6841 13.466C26.6841 13.4965 26.6879 13.5194 26.6917 13.5347V13.5424C26.6917 13.55 26.6956 13.5538 26.6994 13.5538C26.7032 13.5538 26.7108 13.5462 26.7185 13.5271C26.7757 13.4812 26.9055 13.3361 26.9933 13.1221C27.0735 12.9273 27.0888 12.7516 27.085 12.6637L27.1957 12.3848C27.188 12.4421 27.1957 12.6331 27.1613 12.8585C27.1422 13.0152 27.1079 13.1527 27.0888 13.2406C27.0735 13.2711 27.0659 13.2902 27.0735 13.294C27.0735 13.294 27.0735 13.294 27.0773 13.294C27.0697 13.3246 27.0697 13.3437 27.0773 13.3437C27.085 13.3437 27.1079 13.3093 27.1384 13.2367C27.1919 13.1756 27.272 13.0725 27.3484 12.9464C27.4133 12.8432 27.4629 12.7401 27.482 12.6599C27.482 12.6522 27.4858 12.6408 27.4897 12.6331C27.482 12.6942 27.4744 12.7707 27.4629 12.8547C27.4362 13.0495 27.398 13.2024 27.4133 13.21C27.4171 13.21 27.4247 13.2024 27.4324 13.1871C27.4515 13.1794 27.482 13.1489 27.5126 13.0954C27.5507 13.0228 27.5851 12.9196 27.6156 12.805C27.6538 12.6637 27.6729 12.5414 27.6767 12.4612C27.6767 12.5032 27.6844 12.53 27.692 12.5262C27.6958 12.5262 27.7034 12.5147 27.7073 12.4994C27.7149 12.4994 27.7378 12.4536 27.7683 12.3886C27.7683 12.4154 27.7683 12.4383 27.7683 12.4612C27.7645 12.4765 27.7569 12.4879 27.7531 12.5032C27.7493 12.5147 27.7416 12.5223 27.7378 12.5338C27.7073 12.6064 27.6844 12.679 27.6805 12.7324C27.6805 12.7898 27.6958 12.8203 27.7034 12.8203C27.7073 12.8203 27.7111 12.8127 27.7111 12.805L27.776 12.7248C27.776 12.7248 27.776 12.7401 27.776 12.7477C27.7264 12.8356 27.6729 12.9579 27.6614 13.0992C27.6614 13.1107 27.6576 13.1259 27.6538 13.1412C27.65 13.1947 27.6538 13.2367 27.6653 13.2673C27.6614 13.2826 27.6576 13.2902 27.6653 13.294C27.6653 13.294 27.6691 13.294 27.6729 13.2864C27.6767 13.2979 27.6844 13.3055 27.692 13.3055C27.7073 13.3055 27.7149 13.2673 27.7187 13.2176L27.7874 13.145C27.7302 13.2215 27.6614 13.3552 27.692 13.5576C27.692 13.5576 27.7073 13.5424 27.7264 13.5156L27.7874 13.4392C27.7798 13.4812 27.776 13.5271 27.7683 13.5767C27.7454 13.7639 27.734 13.9244 27.7378 13.997C27.7302 14.0428 27.7225 14.0887 27.7149 14.1422C27.6614 14.4669 27.5775 14.9215 27.3484 15.3685C27.1231 15.8155 26.7834 16.1364 26.5199 16.3274C26.5009 16.3427 26.4818 16.3541 26.4627 16.3694C26.4359 16.3656 26.2222 16.442 25.9931 16.6063C25.8747 16.6942 25.7793 16.7935 25.7297 16.8775C25.7258 16.8852 25.722 16.8928 25.7182 16.9005C25.7029 16.9272 25.6915 16.9501 25.6838 16.9769C25.6724 17.0074 25.6724 17.0265 25.6762 17.0265C25.6877 17.0265 25.7106 16.9769 25.7717 16.9081C25.7793 16.9005 25.7869 16.889 25.7946 16.8814C25.8518 16.824 25.9167 16.7782 25.9702 16.8011C25.9473 16.8202 25.932 16.8355 25.9358 16.8393C25.9358 16.8432 25.9511 16.8393 25.974 16.8317C25.9549 16.8393 25.9282 16.8546 25.9015 16.8699C25.8824 16.8699 25.8633 16.8814 25.8518 16.8928C25.8137 16.9234 25.7946 16.9578 25.7869 16.9845C25.7602 17.0265 25.7449 17.0724 25.7449 17.1297C25.7449 17.1297 25.8556 17.0036 25.9473 17.0647C25.932 17.08 25.9129 17.0953 25.8976 17.1144C25.8213 17.1946 25.7678 17.2863 25.7488 17.3551C25.7258 17.4238 25.7297 17.4735 25.7373 17.4735C25.7488 17.4735 25.7602 17.4353 25.7946 17.3742C25.8213 17.3207 25.8633 17.2596 25.9206 17.1946C25.9129 17.2328 25.9053 17.2672 25.8938 17.3092C25.8938 17.3207 25.89 17.3322 25.8862 17.3398C25.8327 17.4353 25.7755 17.5843 25.7831 17.7562C25.6915 18.1 25.577 18.4974 25.4166 18.91C25.3593 19.0628 25.2944 19.208 25.2334 19.3493C25.1685 19.4907 25.1036 19.6244 25.0501 19.7543C24.9394 20.0179 24.863 20.27 24.8516 20.4878C24.8363 20.7055 24.8821 20.8851 24.9394 20.9921C24.9547 21.0303 24.9737 21.0685 24.9967 21.099C25.0196 21.1334 25.0501 21.1563 25.073 21.1754C25.0654 21.1907 25.2715 21.29 25.5464 21.2862C25.6151 21.2862 25.68 21.2786 25.7373 21.2671C25.7946 21.2595 25.848 21.2518 25.89 21.2404C25.932 21.2289 25.9664 21.2136 25.9931 21.2022V21.1869C25.9931 21.1869 26.0351 21.2022 26.0694 21.206C26.1191 21.2175 26.1878 21.2289 26.268 21.2289C26.3481 21.2289 26.4245 21.2098 26.4703 21.1793C26.4856 21.1716 26.497 21.1602 26.5085 21.1525C26.5428 21.1716 26.6192 21.1945 26.7146 21.1869C26.7643 21.1869 26.8101 21.1716 26.8483 21.1525C26.8559 21.1525 26.8597 21.1525 26.8674 21.1449C26.8864 21.1372 26.9094 21.1143 26.9208 21.0799C26.9323 21.0723 26.9475 21.0264 26.9552 20.9539C26.9628 20.8698 26.9437 20.7514 26.8788 20.6406C26.8139 20.5298 26.7185 20.4534 26.6421 20.419C26.5658 20.3846 26.5123 20.3808 26.5123 20.3884H26.5047C26.5047 20.3884 26.4779 20.3655 26.4474 20.3388C26.413 20.3082 26.3672 20.2471 26.3443 20.1669C26.3214 20.0828 26.3214 19.9797 26.3291 19.8612C26.3405 19.7466 26.371 19.6205 26.413 19.4907C26.497 19.2309 26.6116 19.0093 26.6956 18.8527C26.749 18.7571 26.791 18.6846 26.8139 18.6387C26.8483 18.5852 26.8864 18.5317 26.9246 18.4783C27.2339 18.0542 27.566 17.7142 27.8103 17.462L27.818 17.4697C27.818 17.4697 27.8065 17.5041 27.8103 17.5728C27.8103 17.5805 27.8103 17.5919 27.8103 17.5996C27.8103 17.6416 27.8218 17.6951 27.8332 17.7486C27.8447 17.8059 27.86 17.8708 27.8752 17.9434C27.944 18.2338 28.0509 18.6311 28.2265 19.0513C28.3983 19.4716 28.6121 19.8307 28.7915 20.0675C28.8335 20.1287 28.8793 20.1821 28.9175 20.2242C28.9557 20.27 28.99 20.3082 29.0168 20.3388C29.0397 20.3617 29.0549 20.3808 29.0702 20.3923C29.0855 20.419 29.1198 20.4534 29.1809 20.4763C29.1809 20.4839 29.2649 20.526 29.4176 20.5451C29.5703 20.5642 29.7765 20.5604 30.0056 20.5604C30.2346 20.5565 30.4408 20.5336 30.5897 20.5031C30.666 20.4878 30.7271 20.4687 30.7767 20.4534C30.7806 20.4534 30.7882 20.4534 30.792 20.4496L30.9256 20.3999C30.9256 20.3999 30.9218 20.3426 30.8913 20.2585C30.8607 20.1745 30.8111 20.0599 30.7157 19.9491C30.624 19.8383 30.5019 19.7772 30.4141 19.7581C30.3224 19.7352 30.2652 19.7428 30.2652 19.7504L30.2117 19.739C30.1812 19.7084 30.0934 19.6358 29.9788 19.5136C29.8376 19.3608 29.662 19.1277 29.5283 18.8374C29.4405 18.6502 29.3794 18.4668 29.3451 18.3063C29.3222 18.1803 29.3031 18.0045 29.326 17.7982C29.3374 17.6874 29.3642 17.569 29.4062 17.4468C29.4634 17.3016 29.5551 17.1144 29.6963 16.9081C29.7192 16.8775 29.7383 16.8431 29.7612 16.8126C29.7879 16.7744 29.8185 16.7362 29.8452 16.698C29.9826 16.5184 30.1506 16.3274 30.3415 16.1364C30.6088 15.8651 30.9218 15.5824 31.2234 15.2539C31.2998 15.1737 31.3723 15.0896 31.441 15.0056C31.5136 14.9215 31.5708 14.826 31.6166 14.7343C31.7121 14.5471 31.7808 14.3561 31.8495 14.1765C31.9259 13.9664 31.9984 13.7678 32.071 13.5882L32.2237 13.2329C32.2237 13.2329 32.3535 13.1909 32.5176 13.1641C32.5291 13.1641 32.5405 13.1641 32.5558 13.1641C32.6245 13.1641 32.7162 13.1641 32.8154 13.1756C32.9147 13.1909 32.9949 13.2253 33.0483 13.2597C33.1018 13.294 33.1323 13.3246 33.1399 13.3208C33.1476 13.317 33.1323 13.2711 33.0789 13.2215C33.0521 13.1947 33.0139 13.1718 32.9643 13.1489C32.8651 13.0686 32.7353 12.9884 32.6131 12.9846C32.6322 12.977 32.6513 12.9693 32.6742 12.9617C32.8078 12.9158 33.0025 12.8814 33.2125 12.9311C33.2354 12.9349 33.2621 12.9426 33.285 12.9502C33.4835 13.0572 33.7928 13.2482 33.8997 13.4774C33.9073 13.5118 33.9149 13.5309 33.9226 13.5309C33.9302 13.5309 33.9378 13.5003 33.9378 13.4545C33.9493 13.3552 33.9493 13.168 33.8386 12.9655C33.8615 12.9846 33.8844 13.0037 33.9035 13.0228C34.0218 13.1794 34.1936 13.4698 34.1631 13.8136C34.1516 13.8709 34.1402 13.9053 34.1478 13.9091C34.1516 13.9091 34.1669 13.8938 34.186 13.8556C34.2547 13.7563 34.3807 13.5347 34.3654 13.2711C34.3693 13.2788 34.3769 13.2864 34.3807 13.294C34.4112 13.3475 34.4265 13.3896 34.438 13.4048C34.4532 13.443 34.4685 13.4698 34.4762 13.466C34.48 13.466 34.4838 13.4583 34.4838 13.4469C34.5029 13.4048 34.5487 13.3017 34.5563 13.21C34.6594 13.359 34.7281 13.4927 34.7472 13.4851C34.7472 13.4851 34.7472 13.4812 34.7472 13.4774C34.793 13.5576 34.835 13.6379 34.8503 13.6875C34.8503 13.6875 34.8732 13.4889 34.8197 13.2482C34.8617 13.3819 34.9457 13.592 35.0832 13.6723C35.0908 13.6799 35.0984 13.6837 35.1023 13.6837C35.1099 13.6837 35.1061 13.6646 35.1023 13.6341C35.1023 13.5653 35.1023 13.443 35.129 13.3819C35.1557 13.4354 35.1939 13.5003 35.2473 13.5729C35.3466 13.7296 35.5146 13.9206 35.7742 13.9779C35.7933 13.9855 35.8086 13.9893 35.8086 13.9855C35.8162 13.9779 35.7742 13.9397 35.7207 13.8824C35.694 13.8404 35.6749 13.7869 35.6673 13.7219C35.7017 13.7563 35.7398 13.7907 35.7856 13.8289C35.8811 13.9206 36.0414 14.0352 36.2972 14.1078C36.2972 14.1078 36.2438 14.0428 36.2323 13.9702C36.2667 14.0008 36.3049 14.0314 36.3469 14.0619C36.4576 14.1765 36.6599 14.337 36.9692 14.421C36.9692 14.421 36.9501 14.3981 36.9195 14.3676C36.9042 14.3408 36.8584 14.2912 36.8012 14.2186C36.7821 14.1918 36.7668 14.1651 36.7668 14.1422C36.805 14.1689 36.8508 14.1995 36.9042 14.2262C36.9348 14.2415 36.973 14.2568 37.0111 14.2721C37.0837 14.3103 37.1677 14.3523 37.2631 14.3943C37.4502 14.4784 37.6831 14.57 37.9465 14.6464C38.2099 14.7229 38.5077 14.784 38.8208 14.8222C38.962 14.8375 39.0995 14.8489 39.2369 14.8527C39.2369 14.8604 39.3629 14.8795 39.5576 14.868C39.6187 14.868 39.6874 14.8566 39.7561 14.8413C39.9699 14.826 40.1646 14.7954 40.3441 14.7611H40.3517C40.3784 14.7534 40.409 14.7458 40.4319 14.742C40.6342 14.6961 40.7945 14.6426 40.9014 14.6044C40.9282 14.593 40.9549 14.5853 40.974 14.5739L41.1305 14.528C41.1305 14.5739 41.1343 14.6197 41.1381 14.6694C41.1687 15.2271 41.2069 15.7352 41.2374 16.1135C41.2603 16.4879 41.2832 16.9539 41.2909 17.462C41.3023 18.0809 41.2718 18.6425 41.2336 19.0475C41.2298 19.0933 41.226 19.1392 41.2221 19.1812C41.2069 19.2844 41.1916 19.4104 41.1954 19.548C41.1954 19.7237 41.2336 19.8803 41.2756 19.9873C41.3176 20.0943 41.3596 20.1516 41.3672 20.1478C41.3672 20.1478 41.3672 20.1363 41.3672 20.121C41.3634 20.0561 41.3596 19.8956 41.4283 19.8459C41.539 19.9491 41.6535 20.1248 41.7414 20.3388C41.833 20.5565 41.9361 20.7514 42.0353 20.8774C42.1079 20.9691 42.1766 21.0188 42.2148 21.0379C42.2644 21.0723 42.3446 21.1067 42.4515 21.1296C42.6614 21.1793 42.9554 21.1831 43.2761 21.164C43.5968 21.1487 43.8869 21.1219 44.0931 21.0761C44.1962 21.0532 44.2802 21.0264 44.3336 20.9959C44.3642 20.9806 44.3832 20.9615 44.3947 20.95H44.41C44.41 20.95 44.4023 20.8698 44.3527 20.759C44.3145 20.675 44.2534 20.5718 44.1656 20.4725C44.3336 20.5183 44.7574 20.6138 45.1201 20.4992C45.1239 20.4992 45.1315 20.4992 45.1392 20.4992C45.1888 20.4878 45.2308 20.4725 45.2537 20.4572C45.2728 20.4457 45.2842 20.4343 45.2919 20.4343C45.2995 20.4343 45.2919 20.3655 45.2499 20.2624C45.2117 20.163 45.143 20.0217 45.017 19.9033C44.8948 19.7848 44.7345 19.7352 44.6276 19.7275C44.6085 19.7275 44.5894 19.7275 44.5741 19.7275C44.5092 19.7122 44.4443 19.7046 44.3947 19.7122C44.368 19.697 44.3374 19.6817 44.3031 19.6626C44.2 19.6091 44.0702 19.5174 43.9633 19.3799C43.8602 19.2423 43.7953 19.0933 43.7571 18.9864C43.7304 18.91 43.7113 18.8565 43.6999 18.8297C43.6999 18.8068 43.696 18.7801 43.6922 18.7495C43.6884 18.6884 43.6808 18.6158 43.6731 18.5317C43.6655 18.4477 43.6579 18.3522 43.654 18.2452C43.6426 18.0313 43.635 17.7753 43.635 17.4926C43.635 17.2099 43.6502 16.9005 43.6731 16.5719C43.6999 16.2472 43.7419 15.9377 43.7839 15.6588C43.8297 15.38 43.8793 15.1316 43.9289 14.9215C43.9289 14.9062 43.9366 14.8909 43.9404 14.8757L44.1694 14.0314C44.2191 13.955 44.2649 13.8824 44.3107 13.8174C44.5436 13.6341 45.0819 13.1985 45.2231 12.9846C45.2231 12.9846 45.2232 12.9846 45.2308 12.977C45.2881 12.9082 45.3453 12.8394 45.4026 12.763C45.4484 12.7019 45.4904 12.6408 45.5324 12.5796C45.7347 12.2931 45.9714 11.9187 45.9943 11.6933C45.9943 11.6933 46.0287 11.7468 46.0287 11.8308C46.0211 11.8614 46.0172 11.8805 46.0211 11.8843C46.0287 11.8843 46.0783 11.8003 46.0974 11.6475C46.1203 11.529 46.1318 11.3609 46.1089 11.1317C46.1089 11.1317 46.1852 11.2158 46.1929 11.3151C46.1929 11.3151 46.1929 11.254 46.1929 11.1737C46.1929 11.1661 46.1929 11.147 46.1929 11.1203C46.1929 11.0248 46.1852 10.9101 46.17 10.8185C46.1547 10.5969 46.1547 10.2912 46.1776 9.95505C46.2005 9.61886 46.2387 9.31323 46.273 9.09547C46.273 9.08783 46.273 9.08401 46.273 9.07637C46.273 9.20626 46.2883 9.32087 46.3036 9.41256C46.3227 9.52717 46.3761 9.58448 46.3837 9.58066C46.3837 9.58066 46.3837 9.57302 46.3837 9.56155C46.3761 9.47751 46.3456 9.09165 46.4067 8.91974C46.4219 8.99996 46.441 9.07255 46.4639 9.12986C46.4983 9.21008 46.5326 9.25211 46.5403 9.24829C46.5441 9.24829 46.5403 9.23682 46.5403 9.21772C46.5403 9.21772 46.4601 8.86625 46.5479 8.66377C46.5746 8.77456 46.6243 8.83187 46.6281 8.82805C46.6395 8.82423 46.5823 8.73254 46.5785 8.56826C46.5785 8.54534 46.5785 8.52624 46.5785 8.50332L46.6128 8.28556L46.6357 8.20151C46.6586 8.12128 46.6892 8.03723 46.7197 7.94554C46.7617 7.82329 46.7961 7.70486 46.8113 7.59025C46.8113 7.56733 46.8152 7.54823 46.8152 7.52149C46.819 7.43362 46.8113 7.35339 46.7961 7.28844C46.7846 7.24642 46.777 7.2044 46.7655 7.17001C46.7655 7.17001 46.8533 7.32665 46.8915 7.47182C46.8915 7.52913 46.8953 7.56733 46.9068 7.56733C46.9259 7.57115 46.9717 7.40688 46.9297 7.2044C46.9106 7.10507 46.8724 7.0172 46.8342 6.95989C46.8075 6.91787 46.7808 6.89495 46.7655 6.88731C46.8152 6.85674 46.9106 6.76123 46.9755 6.61988C46.9984 6.57022 47.0175 6.51673 47.0251 6.47089C47.0519 6.52437 47.1244 6.65044 47.1893 6.6046C47.2007 6.60078 47.174 6.53201 47.1473 6.42122C47.1206 6.31043 47.0977 6.15762 47.1206 5.9857C47.1282 5.9093 47.1473 5.83289 47.1626 5.76794C47.174 5.73738 47.1855 5.70682 47.2007 5.67243C47.2771 5.50052 47.3764 5.29804 47.5329 5.1032C47.5711 5.05736 47.6131 5.01151 47.6627 4.96949C47.7123 4.92746 47.762 4.88544 47.8192 4.84724C47.9299 4.76701 48.0483 4.69442 48.1743 4.62566C48.4263 4.4843 48.6782 4.36587 48.8958 4.2398C49.0065 4.17485 49.1096 4.11373 49.1974 4.04114C49.2432 4.00676 49.2814 3.96856 49.3196 3.93035C49.3387 3.91125 49.354 3.89215 49.3692 3.86923C49.3845 3.85012 49.4036 3.83102 49.415 3.8081C49.5181 3.64383 49.5639 3.48337 49.5372 3.37258C49.5334 3.34966 49.5258 3.32674 49.5181 3.30763C49.5181 3.29617 49.5105 3.28471 49.5067 3.26943C49.4914 3.23123 49.4685 3.19684 49.4494 3.17774C49.4418 3.1701 49.438 3.16246 49.4341 3.15864C49.4647 3.12044 49.4952 3.08223 49.5143 3.04403C49.5639 2.95234 49.583 2.85301 49.5868 2.76514C49.5868 2.67728 49.5868 2.60087 49.5792 2.53592C49.5792 2.49772 49.5716 2.45952 49.5716 2.42895C49.5716 2.39075 49.5716 2.33344 49.5716 2.27232C49.5678 2.19591 49.5601 2.13096 49.5525 2.09276V2.08512V2.07366L49.5372 2.0813Z" fill="white"/>
<path d="M4.83524 20.9921C4.35802 21.0723 3.71282 21.0074 3.62119 20.9539C3.52956 20.9004 3.47993 20.7208 3.47993 20.7208C3.47993 20.7208 3.35013 20.6292 3.3234 20.591C3.16688 20.2777 3.35395 19.4639 3.35395 19.4639C3.35395 19.4639 3.17833 19.5824 3.14015 19.7963C3.12106 19.4754 3.19742 19.2882 3.19742 19.2882L3.01798 19.3799C3.01798 19.3799 3.17451 19.1621 3.0867 18.9864C2.97599 19.0972 2.92636 19.2691 2.93018 19.4028C2.66675 18.9558 2.98362 18.3484 2.98362 18.3484C2.98362 18.3484 2.80801 18.4325 2.71256 18.6846C2.65148 18.2758 3.20124 17.6913 3.20124 17.6913L2.96835 17.783C2.96835 17.783 3.43794 17.0724 3.79299 16.7171C4.14422 16.3618 4.10605 15.9607 4.07932 16.0103C3.98388 16.4191 3.69373 16.6292 3.69373 16.6292C3.69373 16.6292 3.96097 16.2243 3.89607 16.0409C3.68609 16.0715 3.60592 16.4497 3.60592 16.4497C3.60592 16.4497 3.58683 15.976 3.80062 15.6245C3.61737 15.9263 3.3654 16.0027 3.3654 16.0027C3.3654 16.0027 3.65173 15.8117 3.68609 15.0935C3.68609 15.0362 3.90752 13.4469 3.72809 13.4125C3.51429 13.3781 3.28141 13.6761 3.28141 13.6761C3.28141 13.6761 3.26614 13.5539 3.31959 13.5118C3.22032 13.5042 2.83473 13.7945 2.83473 13.7945C2.83473 13.7945 2.88818 13.5921 3.02944 13.5118C2.7851 13.5233 2.5484 13.7487 2.5484 13.7487C2.5484 13.7487 2.58658 13.6073 2.64384 13.5577C2.46059 13.5806 2.21244 13.8671 2.21244 13.8671C2.21244 13.8671 2.2048 13.6608 2.31552 13.5424C2.20098 13.5653 2.08263 13.7487 2.08263 13.7487C2.08263 13.7487 1.94138 12.7478 2.68966 12.5071C2.85764 12.4574 3.1287 12.4307 3.18215 12.4039C3.2356 12.3772 4.90014 11.1852 6.3318 11.0095C7.76346 10.8299 8.8897 11.0859 8.99278 11.0859C9.09586 11.0859 12.1692 11.1891 12.3753 11.1891C14.7767 11.212 16.342 8.1366 16.9414 7.99524C17.1628 7.89974 17.5255 7.86535 17.5637 7.86535C17.6018 7.86535 18.3654 7.7622 18.5715 7.83861C18.7777 7.91502 19.4382 8.23975 19.4382 8.23975C19.4382 8.23975 19.5794 8.26649 19.6711 8.30469C19.7627 8.3429 19.839 8.40784 19.8658 8.48425C19.8925 8.56066 19.9154 8.69055 19.9307 8.72875C19.9459 8.76696 20.0719 8.97708 20.2132 9.0382C20.3544 9.09933 20.8317 9.19484 21.0531 9.2445C21.2707 9.29799 21.9083 9.45844 21.9961 9.58069C22.0839 9.70294 21.9846 9.91688 21.9846 9.91688C21.9846 9.91688 21.8701 10.0964 21.8701 10.1346C21.8701 10.1728 21.8205 10.5931 21.6525 10.8185C21.4807 11.0477 21.0722 11.296 20.9271 11.3342C20.7858 11.3724 19.6176 11.4374 19.3885 11.487C19.1595 11.5367 19.19 11.7621 19.1977 11.8691C19.2053 11.9761 19.316 12.19 19.316 12.53C19.1518 12.274 18.9571 12.232 18.9571 12.232C18.9571 12.232 18.9762 12.6981 18.9037 12.9159C18.8006 12.5758 18.6441 12.488 18.6326 12.4498C18.7472 13.1413 18.4265 13.4316 18.4265 13.4316C18.4265 13.4316 18.4494 12.8395 18.205 12.8356C18.1783 13.1298 18.2623 13.5653 18.163 13.8098C18.1783 13.4927 17.8576 13.3017 17.8576 13.3017C17.8576 13.3017 18.0943 13.8366 17.9492 14.211C17.8233 13.7487 17.5866 13.7258 17.5866 13.7258C17.5866 13.7258 17.9951 14.3485 17.9111 14.8872C17.8309 14.5204 17.7431 14.5089 17.7278 14.5013C17.9569 15.0973 17.7851 15.6856 17.7851 15.6856L17.7049 15.4717C17.7049 15.4717 17.7049 15.8575 17.5942 16.0638C17.5942 15.8957 17.5904 15.8461 17.5904 15.8461C17.5904 15.8461 17.3117 16.7897 17.1399 16.8623C17.2391 16.656 17.1971 16.3313 17.1971 16.3313C17.1971 16.3313 16.9299 17.2405 16.6207 17.4086C16.7199 17.1756 16.7047 17.1259 16.6665 17.038C15.9716 17.4086 16.0556 19.632 16.0556 19.632C16.0556 19.632 16.5672 19.59 16.9604 19.7543C17.3537 19.9186 17.3384 20.3999 17.1322 20.4954C16.9261 20.591 16.7314 20.5527 16.7314 20.5527C16.7314 20.5527 16.8497 20.6712 16.8268 20.908C16.7848 21.2557 16.3954 21.3054 15.88 21.271C15.3646 21.2366 14.8492 21.271 14.6889 21.1755C14.5285 21.0838 14.372 20.8469 14.372 20.8469C14.372 20.8469 14.1315 20.8775 14.1773 21.1908C13.9902 20.9615 14.0017 20.782 14.0017 20.782L13.8642 20.9195C13.8642 20.9195 13.6657 20.6444 13.8184 20.3694C13.6161 20.4802 13.5474 20.7323 13.5245 20.8164C13.471 20.6865 13.4367 20.484 13.4367 20.484L13.2992 20.6597L13.2381 20.3464C13.2381 20.3464 13.1121 20.4916 13.1083 20.6597C12.9365 20.4305 13.0243 19.5747 13.0243 19.5747C13.0243 19.5747 12.9174 19.7428 12.8525 19.9873C12.6502 19.8116 12.6273 19.3684 12.6273 19.3684C12.6273 19.3684 12.5433 19.4296 12.5051 19.506C12.4479 19.4372 12.4708 19.1621 12.4708 19.1621C12.4708 19.1621 12.444 19.2271 12.341 19.2768C12.3677 19.1469 12.2302 18.6808 12.2302 18.6808C12.2302 18.6808 12.0584 18.9482 12.0508 19.1163C11.9325 19.017 11.9019 18.9215 11.9019 18.9215C11.9019 18.9215 11.9248 19.2118 11.8141 19.3341C11.7988 19.0896 11.5889 18.5929 11.5736 18.6464C11.5125 18.6999 11.4705 18.8259 11.4705 18.8871C11.4132 18.8565 11.3636 18.7495 11.3674 18.6961C11.2873 18.719 11.2567 18.8833 11.2796 19.0055C11.1269 18.9215 11.0887 18.505 11.0887 18.505C11.0887 18.505 10.9055 18.7343 10.9513 18.9864C10.7031 18.6808 10.6688 18.1956 10.6688 18.1956C10.6688 18.1956 10.6001 18.4554 10.5122 18.4936C10.4244 18.1001 10.1343 17.8097 10.1343 17.8097C10.1343 17.8097 10.0694 18.016 10.1457 18.1421C9.7067 17.9817 9.33638 17.2825 9.33638 17.2825C9.33638 17.2825 9.46618 17.7142 9.42419 17.8174C9.38601 17.6302 9.21803 17.4735 9.21803 17.4735C9.21803 17.4735 9.14167 17.6302 9.21803 17.7333C8.92024 17.634 8.75226 17.1641 8.75226 17.1641C8.75226 17.1641 8.67591 17.4812 8.87443 17.7333C8.53465 17.6913 8.27122 17.2329 8.2025 16.9081C8.13378 16.5796 7.61839 16.1326 7.61839 16.1326C7.61839 16.1326 7.90854 16.5796 7.77491 17.0571C7.7291 16.465 7.41223 16.2701 7.41223 16.2701C7.41223 16.2701 7.23279 16.6445 7.21752 17.0839C7.02663 16.8737 6.99991 16.5299 6.99991 16.5299C6.99991 16.5299 6.95409 17.1908 6.56087 17.5423C6.57995 17.1679 6.4616 16.9884 6.32798 17.1144C6.19054 17.7563 5.85076 17.6684 5.60643 18.7686C5.60643 18.8221 5.5797 19.2615 5.64842 19.3532C5.72096 19.4448 5.77441 19.506 5.85076 19.5174C5.92712 19.5289 6.31271 19.4601 6.36234 19.4792C6.41579 19.4945 6.66776 19.4143 6.68685 19.9377C6.68685 20.0905 6.46542 20.186 6.3967 20.186C6.32798 20.186 5.5797 20.2089 5.43463 20.2013C5.28573 20.1936 5.17502 20.1211 5.09485 20.079C5.01467 20.037 5.00322 19.8383 5.00322 19.8383L4.91541 19.8727L4.82378 19.4792L4.67107 19.6855C4.67107 19.6855 4.63671 19.0666 4.56799 19.0475C4.49927 19.1621 4.47637 19.4945 4.43056 19.7008C4.37711 19.953 4.29312 20.1784 4.43819 20.2777C4.57181 20.3694 4.85814 20.2318 5.09103 20.2471C5.32391 20.2586 5.36209 20.5527 5.33918 20.7017C5.31628 20.8507 5.28192 20.9271 4.8696 20.9997L4.83524 20.9921Z" fill="white"/>
</svg>
