<svg width="154" height="123" viewBox="0 0 154 123" fill="none" xmlns="http://www.w3.org/2000/svg">
<path d="M40.1411 74.5604V60.9153H34.5629V74.6107C34.5629 77.9574 32.6016 79.5034 29.8629 79.5034C27.1242 79.5034 25.1628 77.9574 25.1628 74.6107V60.9153H19.5847V74.5604C19.5847 80.6369 23.9248 84.3961 29.8665 84.3961C35.8081 84.3961 40.1483 80.6369 40.1483 74.5604H40.1411Z" fill="#ECEFDF"/>
<path d="M50.3185 79.9159C48.2528 79.9159 47.3207 78.6281 47.1659 76.9817H41.9477C42.3075 81.4117 45.255 84.3459 50.2645 84.3459C55.274 84.3459 58.6353 81.67 58.6353 76.9817C58.6353 72.2934 56.5156 71.368 52.9024 70.3385L50.009 69.5135C48.6126 69.1547 47.6338 68.6382 47.6338 67.3505C47.6338 66.0627 48.5119 65.3417 50.063 65.3417C51.614 65.3417 52.5425 66.5792 52.5929 68.0176H57.6024C57.4981 64.1042 54.6046 60.9117 50.0594 60.9117C45.5141 60.9117 42.2068 63.4334 42.2068 67.9136C42.2068 72.3939 44.582 73.2691 47.9936 74.1945L50.9914 75.0196C52.4382 75.3783 53.1615 76.2033 53.1615 77.4408C53.1615 78.6784 51.9739 79.9123 50.3185 79.9123V79.9159Z" fill="#ECEFDF"/>
<path d="M71.1376 76.3647V65.4995H77.5938V60.9153H59.0492V65.4995H65.5054V80.3786L71.1376 76.3647Z" fill="#ECEFDF"/>
<path d="M0.672976 65.5498H11.4694V76.3647C11.4694 78.3197 10.2818 79.5572 8.4212 79.5572C6.56062 79.5572 5.37301 77.8569 5.26865 76.0562H0C0.205132 80.8449 2.94382 84.3459 8.57595 84.3459C14.2081 84.3459 17.1015 80.4827 17.1015 76.3647V60.9153H0.672976V65.5498Z" fill="#ECEFDF"/>
<path d="M9.6088 45.5197C7.85259 47.2701 7.85259 50.1541 9.6088 51.9046C11.365 53.6551 14.2585 53.6551 16.0147 51.9046C17.7709 50.1541 17.7709 47.2701 16.0147 45.5197C14.2585 43.7692 11.365 43.7692 9.6088 45.5197Z" fill="#ECEFDF"/>
<path d="M103.167 72.5015C103.167 66.8375 99.8596 61.9986 92.3165 60.9655L81.2106 68.9467V84.2921H88.6997C98.1538 84.2921 103.163 79.1949 103.163 72.5015H103.167ZM88.1347 79.7114H86.9471V65.4995H88.1347C94.0763 65.4995 97.434 67.867 97.434 72.5015C97.434 77.1359 94.7997 79.7114 88.1347 79.7114Z" fill="#ECEFDF"/>
<path d="M140.879 76.3611H147.958C147.13 78.3161 145.064 79.8119 142.12 79.8119C139.177 79.8119 135.509 77.1359 135.509 72.6019C135.509 68.0679 138.039 65.5462 142.225 65.5462C146.41 65.5462 147.133 67.1424 148.062 69.0974H153.485C152.039 64.0504 147.907 60.8579 142.171 60.8579C136.434 60.8579 130.032 66.0591 130.032 72.5983C130.032 79.1375 134.682 84.3387 142.171 84.3387C149.66 84.3387 154 79.2918 154 72.2898V71.6729H140.879V76.3611Z" fill="#ECEFDF"/>
<path d="M116.806 60.8651C109.418 60.8651 104.768 66.1165 104.768 72.6055C104.768 79.0945 109.368 84.3459 116.806 84.3459C124.245 84.3459 128.844 79.0945 128.844 72.6055C128.844 66.1165 124.195 60.8651 116.806 60.8651ZM116.806 79.6074C112.466 79.6074 110.296 76.1567 110.296 72.6055C110.296 69.0543 112.517 65.6036 116.806 65.6036C121.096 65.6036 123.367 69.0005 123.367 72.6055C123.367 76.2105 121.147 79.6074 116.806 79.6074Z" fill="#ECEFDF"/>
<path d="M33.7856 26.1568L35.5418 21.8344L34.0951 21.1636L36.1104 20.3924L38.1761 15.2916L42.1024 12.3072L49.1309 17.0457L45.0498 23.7391L47.7345 25.4358L54.9141 20.8013L66.5383 28.3736L74.5456 31.1535L96.2464 32.079L113.035 40.4727L119.801 41.556L130.701 40.01L130.032 35.4257L119.905 36.8677L114.428 36.0463L97.434 27.5485L75.4237 26.5191L68.6076 24.1516L50.4228 12.3574L42.1024 0L38.1257 1.8007V9.52721L34.3542 12.4112L32.598 16.8376L26.5556 19.0508L25.933 21.2676L27.6892 23.2728L33.7856 26.1568Z" fill="#ECEFDF"/>
<path d="M96.0377 42.7899L93.4033 37.847L87.7208 36.9717L93.2486 47.3204L120.679 48.5579L125.692 56.2306L129.463 53.6049L123.212 44.0275L96.0377 42.7899Z" fill="#ECEFDF"/>
<path d="M60.0316 41.2439L61.9426 37.2802L59.3587 29.5035L53.6258 26.9818L56.9295 37.0219L43.1892 39.0307L41.433 47.3742L45.5645 50.0501L50.6784 47.8369L46.5973 45.2112L47.0616 43.1522L59.8769 41.2977L60.0316 41.2439Z" fill="#ECEFDF"/>
<path d="M30.3127 100.104C30.9101 100.104 31.3744 99.9065 31.7055 99.6411V99.8384C32.0365 99.5729 32.2345 99.2429 32.1697 98.9129C32.1697 98.5148 31.9718 98.2529 31.6407 98.1202C31.3096 97.9229 30.9101 97.8547 30.4459 97.9229C29.9816 97.9229 29.4526 98.0556 28.9884 98.3211C28.7904 98.4538 28.5889 98.5183 28.391 98.6511C28.1246 98.6511 27.8619 98.6511 27.5956 98.5865C26.8003 98.4538 26.0697 98.3892 25.4723 98.3892H23.6154C22.0895 98.3892 20.6967 98.7874 19.5703 99.3792C18.4439 99.9065 17.5802 100.635 16.9828 101.496C16.3854 102.356 16.119 103.278 16.1874 104.337C16.1874 105.327 16.5869 106.119 17.2491 106.65C17.9112 107.246 18.7066 107.511 19.5703 107.443C20.1677 107.443 20.7651 107.246 21.2293 106.916C21.6936 106.586 22.0931 106.187 22.291 105.793C22.5573 105.33 22.6221 104.932 22.6221 104.537C22.6221 104.143 22.6221 104.207 22.4889 104.075C22.4889 104.01 22.3558 103.942 22.291 103.942C22.2262 103.942 22.1578 103.942 22.0247 104.075C21.6936 104.405 21.2941 104.602 20.8299 104.67C20.4304 104.67 20.0993 104.537 19.7682 104.272C19.5019 104.007 19.304 103.612 19.304 103.081C19.304 102.55 19.4371 101.958 19.833 101.427C20.2325 100.9 20.7615 100.502 21.4237 100.172C22.0859 99.842 22.9496 99.6447 23.8781 99.5765H25.6667C26.0661 99.5765 26.5952 99.7092 27.1242 99.842C26.5952 100.369 26.1957 101.033 25.7998 101.89C25.2024 103.146 24.7382 104.469 24.4071 105.922C24.076 107.375 23.6765 109.226 23.2123 111.475C22.748 113.72 22.4169 115.507 22.0859 116.827C21.7548 118.147 21.2905 119.205 20.7615 120.13C20.2325 121.056 19.5667 121.519 18.7066 121.519C17.8465 121.519 17.7133 121.386 17.3822 120.991C17.0511 120.593 16.918 120.066 16.8532 119.406C16.8532 118.545 16.9864 117.623 17.4506 116.629C17.9148 115.636 18.5122 114.847 19.3076 114.183L19.7718 113.853C19.7718 113.788 19.905 113.72 20.0381 113.656C20.0381 113.656 20.1713 113.523 20.1713 113.458C20.1713 113.261 20.0381 113.128 19.8402 113.06C19.6423 113.06 19.376 112.928 19.1096 112.928C18.3143 112.928 17.4506 113.326 16.5905 113.918C15.7268 114.513 15.0646 115.306 14.5356 116.296C14.0065 117.221 13.7402 118.211 13.805 119.205C13.805 120.396 14.334 121.321 15.1294 122.046C15.9247 122.774 17.0511 123.104 18.4439 122.971C20.3656 122.839 21.8915 122.11 23.0179 120.658C24.1444 119.269 24.9397 117.551 25.4723 115.636C26.0014 113.72 26.4656 111.274 26.9298 108.232C27.1962 106.381 27.4589 104.928 27.7252 103.87C27.9915 102.812 28.2542 101.822 28.5889 100.961C28.7221 100.631 28.8552 100.366 29.0531 100.1H29.1863C29.5858 100.1 29.9816 100.165 30.3127 100.1V100.104Z" fill="#ECEFDF"/>
<path d="M46.7557 108.433V108.236C46.4893 107.837 46.2914 107.507 46.0935 107.246C46.2266 107.113 46.3598 106.98 46.4246 106.783C46.7556 106.187 46.9536 105.592 46.8888 105C46.8888 104.67 46.7557 104.34 46.5577 104.139C46.3598 103.942 46.0935 103.809 45.694 103.874C45.165 103.874 44.7007 104.204 44.3013 104.735C43.9702 105.262 43.7722 105.857 43.837 106.453C43.837 106.783 43.9702 107.113 44.1033 107.443C44.2365 107.773 44.5028 108.236 44.8339 108.896C45.165 109.491 45.4313 110.018 45.6292 110.481C45.8272 110.944 45.8955 111.342 45.9603 111.801C45.9603 112.397 45.8955 112.859 45.6292 113.254C45.3629 113.649 45.0318 113.849 44.5676 113.849C44.1033 113.849 43.9702 113.849 43.7722 113.584C43.5743 113.387 43.4412 113.121 43.3728 112.791C43.3728 112.393 43.4376 112.063 43.7039 111.801C43.9018 111.536 44.1681 111.338 44.4992 111.274H44.6971C44.8303 111.274 44.8951 111.209 44.9634 111.141V110.944C44.9634 110.614 44.8303 110.348 44.564 110.083C44.2977 109.818 43.9666 109.685 43.5707 109.753C43.1712 109.753 42.8402 109.95 42.4443 110.151C42.4443 110.216 42.2463 110.348 42.178 110.417C42.178 110.417 42.178 110.284 42.1132 110.284C42.0484 110.284 41.98 110.219 41.9153 110.219C41.7821 110.219 41.649 110.284 41.5842 110.417C40.922 111.539 40.3246 112.332 39.8603 112.795C39.3961 113.258 38.9966 113.455 38.6008 113.455C38.2049 113.455 38.2013 113.39 38.0034 113.189C37.8054 112.992 37.7371 112.727 37.6723 112.264V111.604C37.8054 111.407 38.0034 111.141 38.1365 110.876C38.4676 110.348 38.7339 109.753 39.0002 109.093C39.2665 108.433 39.3313 107.902 39.3313 107.375C39.3313 106.847 39.1982 106.514 38.9319 106.317C38.7339 106.119 38.4028 105.987 38.1365 106.051C37.6723 106.051 37.2728 106.317 36.9417 106.711C36.5422 107.174 36.2795 107.769 36.0132 108.494C35.7469 109.219 35.549 110.015 35.4158 110.739C35.2827 111.468 35.2827 112.128 35.2827 112.655C34.6853 113.383 34.0879 113.846 33.4941 113.91C33.2277 113.91 32.965 113.91 32.7635 113.645C32.5656 113.379 32.4324 113.049 32.4324 112.454C32.4324 111.859 32.4324 111.331 32.5656 110.671C32.6987 110.011 32.965 109.351 33.3609 108.555C33.4941 108.358 33.5588 108.157 33.6272 108.028C33.692 107.83 33.8251 107.698 33.8251 107.565C33.8251 107.432 33.8899 107.299 33.8899 107.167C33.8899 106.837 33.692 106.507 33.4257 106.306C33.1594 106.04 32.8283 105.976 32.4324 105.976C32.0365 105.976 31.6371 106.241 31.306 106.769C30.9749 107.296 30.7086 107.959 30.4423 108.752C30.2443 109.48 30.0428 110.205 29.9133 110.933C29.7801 111.726 29.7801 112.386 29.7801 112.981C29.7801 113.907 30.1112 114.635 30.5107 115.162C30.9749 115.69 31.5723 115.89 32.4324 115.89C33.2925 115.89 34.0231 115.492 34.7536 114.768C34.9516 114.57 35.1531 114.37 35.351 114.108L35.7505 114.9C36.15 115.363 36.679 115.56 37.4096 115.56C38.1401 115.56 38.9355 115.162 39.7308 114.438C40.2598 113.975 40.7924 113.247 41.3215 112.321V112.719C41.3215 113.182 41.4546 113.58 41.7209 113.975C41.9872 114.373 42.3183 114.703 42.7826 114.9C43.2468 115.166 43.7758 115.23 44.4416 115.23C45.1074 115.23 45.9675 114.965 46.4965 114.635C47.0939 114.305 47.5582 113.842 47.8209 113.247C48.152 112.651 48.2204 112.056 48.2204 111.396C48.2204 110.736 48.0224 110.338 47.8209 109.875C47.5546 109.412 47.2235 108.949 46.7593 108.422L46.7557 108.433Z" fill="#ECEFDF"/>
<path d="M57.0338 103.87H57.0986C56.9655 103.738 56.8323 103.605 56.6991 103.673V103.938H56.566L56.4328 104.071C56.1665 104.337 55.8354 104.598 55.3712 104.864C54.9717 105.061 54.5075 105.262 53.9785 105.391C54.3779 104.071 54.8422 102.945 55.238 102.019C55.436 101.621 55.6375 101.227 55.9002 100.828C55.965 100.696 56.0334 100.563 56.0981 100.498V100.233C56.0981 99.9029 55.9002 99.6375 55.6339 99.4402C55.3676 99.2429 55.0365 99.1102 54.7054 99.1748C54.3059 99.1748 53.9749 99.4402 53.6438 99.8348C53.3127 100.233 52.9816 100.76 52.7153 101.488C52.1179 102.877 51.6536 104.398 51.2578 105.915H51.0598C50.6604 105.915 50.3293 105.915 50.0666 105.782H49.7355V105.979C49.7355 106.378 50.0018 106.639 50.466 106.905C50.5992 106.905 50.7971 107.038 50.995 107.102C50.664 108.756 50.5308 110.209 50.5956 111.464C50.5956 112.454 50.9267 113.182 51.3909 113.645C51.8552 114.108 52.4526 114.373 53.1147 114.305C53.8453 114.305 54.3743 114.04 54.8386 113.645C55.3028 113.247 55.6339 112.784 55.9002 112.192C55.9002 112.059 55.9002 111.927 56.0334 111.794V111.396C56.0334 111.199 56.0334 111.066 55.8354 111.066C55.6375 111.066 55.7023 111.066 55.5691 111.331L55.436 111.464C55.1697 111.794 54.9717 111.991 54.7738 112.124C54.5759 112.257 54.3743 112.321 54.1764 112.321C53.8453 112.321 53.6474 112.189 53.4458 111.923C53.2479 111.658 53.1147 111.195 53.1147 110.535C53.1147 109.412 53.1147 108.221 53.3811 107.03C54.7054 106.898 55.6339 106.632 56.2997 106.238C56.9619 105.775 57.2929 105.248 57.2929 104.584C57.2929 103.92 57.293 104.057 57.0266 103.856L57.0338 103.87Z" fill="#ECEFDF"/>
<path d="M86.2093 103.87H86.1446C85.8135 103.275 85.4824 102.88 85.0181 102.55C84.5539 102.285 84.0896 102.152 83.5606 102.152C83.0316 102.152 82.3658 102.417 81.9016 102.88C81.4373 103.343 81.5021 103.476 81.3726 103.806C81.0415 103.938 80.7104 104.204 80.3109 104.534C79.6487 105.129 79.1161 105.854 78.6519 106.715C78.4539 107.113 78.2524 107.576 78.1876 107.97H77.8565C77.7234 107.97 77.5902 108.035 77.5254 108.168C76.8632 109.358 76.2658 110.151 75.7368 110.614C75.2078 111.077 74.7436 111.342 74.4125 111.407C74.0814 111.407 73.8834 111.274 73.6819 110.944C73.4804 110.614 73.3508 110.151 73.3508 109.556C73.8798 108.828 74.4125 107.97 74.9415 106.977C75.9348 105.126 76.7301 103.21 77.3959 101.359C77.9933 99.4438 78.2596 97.9875 78.1912 96.9329C78.1912 96.3374 77.9933 95.8101 77.727 95.4119C77.4606 95.0138 77.0648 94.8165 76.5322 94.8165C75.5389 94.8165 74.542 95.8065 73.6819 97.6574C72.8182 99.4402 72.156 101.492 71.627 103.802C71.2959 103.669 70.9648 103.605 70.5653 103.605C69.6368 103.605 68.7084 104.068 67.913 104.728C67.0493 105.388 66.3871 106.313 65.9229 107.371C65.4586 108.429 65.2607 109.488 65.3255 110.61C65.3255 111.6 65.725 112.393 66.3187 112.924C66.9126 113.455 67.5783 113.717 68.442 113.652C69.1042 113.652 69.7664 113.387 70.4322 112.924C70.8317 112.658 71.1627 112.328 71.5586 111.866C71.5586 112.063 71.6918 112.264 71.7565 112.393C72.2208 113.053 72.7498 113.383 73.4156 113.319C74.2793 113.319 75.0746 112.92 75.8016 112.196C76.5969 111.536 77.3275 110.413 78.1228 108.824V109.552C78.1228 110.542 78.5223 111.335 79.1845 111.998C79.8467 112.594 80.642 112.924 81.7036 112.859C82.7653 112.859 83.6938 112.397 84.4207 111.737C85.2161 111.077 85.8135 110.216 86.2093 109.158C86.6088 108.168 86.7384 107.109 86.7384 106.051C86.7384 104.993 86.5404 104.53 86.2093 104.003V103.87ZM70.9576 110.678C70.8245 110.876 70.6265 111.008 70.4286 111.141C70.0291 111.471 69.5649 111.668 69.169 111.668C68.7731 111.668 68.3737 111.536 68.1074 111.141C67.841 110.743 67.6431 110.28 67.5783 109.62C67.5783 108.759 67.5783 108.035 67.9094 107.242C68.1757 106.514 68.5068 105.922 68.9027 105.459C69.3022 104.997 69.698 104.799 70.0975 104.731C70.5617 104.731 70.7597 104.928 70.8281 105.459C70.8281 105.657 70.8281 105.857 70.6949 106.055V106.32C70.6949 106.385 70.7597 106.453 70.9612 106.517C70.828 107.708 70.7633 108.698 70.7633 109.559C70.7633 110.022 70.8964 110.352 70.9612 110.682L70.9576 110.678ZM73.5416 104.928H73.6063C74.0058 103.077 74.47 101.424 74.9991 99.9065C75.5281 98.4538 75.9276 97.7256 76.2587 97.7256C76.5897 97.7256 76.4566 97.7256 76.525 97.8583C76.525 97.9229 76.6581 98.1238 76.6581 98.2565C76.6581 98.9165 76.4602 100.039 75.9959 101.628C75.4669 103.214 74.8695 104.799 74.0058 106.388C73.7395 106.916 73.4768 107.447 73.1421 107.909C73.1421 107.048 73.34 106.058 73.5416 104.936V104.928ZM84.8814 108.562L84.6834 108.695C84.4855 109.355 84.2192 109.95 83.8197 110.348C83.4203 110.811 82.956 111.008 82.427 111.077C81.8296 111.077 81.3653 110.879 81.0343 110.417C80.7032 109.954 80.5052 109.358 80.4369 108.634C80.4369 108.107 80.4369 107.511 80.6348 106.98C80.768 106.453 80.9659 105.922 81.2322 105.527C81.2322 105.527 81.3653 105.395 81.4301 105.262C81.4301 105.459 81.6281 105.66 81.8296 105.789C82.1607 106.119 82.5602 106.252 82.8912 106.252C83.2223 106.252 83.1576 106.252 83.2223 106.119C83.2223 106.119 83.3555 105.987 83.3555 105.922V105.725C83.2907 105.592 83.2223 105.395 83.2223 105.197C83.2223 105 83.2223 104.735 83.3555 104.537C83.4886 104.34 83.6218 104.272 83.8197 104.272C84.0177 104.272 84.3488 104.469 84.6151 104.867C84.8814 105.266 85.0145 105.793 85.0793 106.453C85.0793 107.181 85.0793 107.906 84.8814 108.569V108.562Z" fill="#ECEFDF"/>
<path d="M105.24 106.184C105.24 106.184 105.107 106.119 105.042 106.119H104.909C104.776 106.184 104.642 106.252 104.578 106.385C103.915 107.507 103.185 108.368 102.454 108.831C101.724 109.358 100.997 109.624 100.331 109.692C99.6689 109.692 99.2046 109.495 98.8735 109.032C98.6072 108.702 98.4741 108.171 98.4093 107.644C99.2046 107.511 100 107.246 100.662 106.916C101.526 106.453 102.188 105.926 102.717 105.33C103.181 104.735 103.379 104.075 103.379 103.479C103.379 102.884 103.113 102.421 102.649 102.091C102.184 101.761 101.587 101.564 100.86 101.628C99.9964 101.628 99.1362 102.026 98.3409 102.686C97.5456 103.347 96.9482 104.207 96.4839 105.197C96.0197 106.187 95.8217 107.181 95.8865 108.171C95.8865 108.964 96.1528 109.559 96.4839 110.087C96.815 110.614 97.2793 111.012 97.8083 111.209C98.3373 111.475 98.9347 111.539 99.5321 111.539C100.525 111.539 101.587 111.077 102.584 110.348C103.646 109.62 104.506 108.433 105.236 106.844C105.236 106.711 105.369 106.578 105.369 106.446C105.369 106.313 105.369 106.248 105.236 106.18L105.24 106.184ZM98.5424 105.258C98.7404 104.598 99.0715 104.003 99.4709 103.54C99.8704 103.077 100.201 102.812 100.533 102.812C100.864 102.812 100.799 102.812 100.932 103.009C101.065 103.142 101.065 103.339 101.13 103.605C101.13 104.132 100.997 104.595 100.666 105.126C100.335 105.653 99.8704 106.051 99.273 106.381C98.9419 106.578 98.6756 106.711 98.3445 106.844C98.3445 106.317 98.4093 105.786 98.6108 105.258H98.5424Z" fill="#ECEFDF"/>
<path d="M117.109 105.657H117.044C117.044 105.657 116.911 105.592 116.846 105.592L116.648 105.459C116.515 105.459 116.382 105.459 116.317 105.657C115.655 106.779 115.057 107.572 114.658 108.035C114.194 108.433 113.863 108.695 113.531 108.695C113.2 108.695 113.067 108.498 112.934 108.168V107.838C113.2 107.31 113.531 106.779 113.798 106.184C114.129 105.391 114.262 104.663 114.262 103.938C114.262 103.214 114.129 103.411 113.996 103.21C113.863 103.009 113.596 102.945 113.398 102.945H113.265V102.615C113.265 102.087 112.999 101.689 112.603 101.424C112.204 101.094 111.61 100.961 110.944 101.026C110.015 101.026 109.087 101.488 108.292 102.148C107.428 102.808 106.766 103.734 106.237 104.792C105.708 105.85 105.506 106.908 105.574 108.031C105.574 109.021 105.974 109.814 106.568 110.345C107.162 110.876 107.827 111.138 108.691 111.073C109.353 111.073 110.015 110.808 110.613 110.345C110.811 110.212 111.077 109.947 111.275 109.749C111.275 109.882 111.408 110.015 111.473 110.079C111.872 110.542 112.337 110.739 112.999 110.739C113.661 110.739 114.323 110.341 114.989 109.681C115.651 109.021 116.382 107.898 117.112 106.309C117.112 106.177 117.245 106.044 117.245 105.911C117.245 105.779 117.245 105.714 117.112 105.646L117.109 105.657ZM111.073 105.854H111.009C110.811 106.647 110.742 107.439 110.742 108.232V108.498C110.742 108.63 110.544 108.695 110.476 108.828C110.21 109.093 109.879 109.226 109.548 109.226C109.216 109.226 108.752 109.093 108.486 108.698C108.22 108.3 108.022 107.838 107.957 107.177C107.957 106.385 107.957 105.592 108.288 104.864C108.554 104.136 108.885 103.544 109.35 103.081C109.749 102.618 110.145 102.421 110.544 102.353C110.742 102.353 110.944 102.353 111.073 102.55C111.207 102.683 111.271 102.88 111.271 103.077C111.271 103.275 111.271 103.476 111.138 103.673V103.938C111.138 103.938 111.138 104.071 111.405 104.136H111.804C111.473 104.598 111.207 105.194 111.073 105.854Z" fill="#ECEFDF"/>
<path d="M123.871 99.7738C123.738 99.6411 123.605 99.5084 123.471 99.5765V99.7738H123.338L123.205 99.9065C122.939 100.172 122.608 100.434 122.143 100.699C121.744 100.897 121.28 101.097 120.751 101.227C121.15 99.9065 121.614 98.7802 122.01 97.8547C122.208 97.4566 122.41 97.062 122.672 96.6638C122.737 96.5311 122.806 96.3984 122.87 96.3338C122.87 96.2011 122.935 96.1365 122.935 96.0684C122.935 95.7384 122.802 95.4729 122.471 95.2756C122.205 95.0784 121.873 94.9456 121.542 95.0102C121.143 95.0102 120.812 95.2756 120.481 95.6702C120.15 96.0684 119.819 96.5957 119.552 97.3239C118.955 98.712 118.491 100.233 118.095 101.75H117.897C117.497 101.75 117.166 101.75 116.904 101.618H116.706C116.706 101.618 116.572 101.618 116.572 101.682V101.879C116.572 102.278 116.839 102.539 117.303 102.805C117.436 102.805 117.634 102.938 117.832 103.002C117.501 104.656 117.368 106.109 117.433 107.364C117.433 108.354 117.764 109.082 118.228 109.545C118.692 110.008 119.29 110.273 119.952 110.205C120.682 110.205 121.211 109.94 121.676 109.545C122.14 109.147 122.471 108.684 122.737 108.092C122.737 107.959 122.737 107.827 122.87 107.694V107.296C122.87 107.099 122.806 106.966 122.672 106.966C122.539 106.966 122.539 107.03 122.406 107.231L122.273 107.364C122.007 107.694 121.809 107.891 121.611 108.024C121.413 108.157 121.211 108.221 121.013 108.221C120.682 108.221 120.484 108.089 120.283 107.823C120.085 107.558 119.952 107.095 119.952 106.435C119.952 105.312 119.952 104.121 120.218 102.93C121.542 102.798 122.471 102.532 123.137 102.138C123.799 101.675 124.13 101.148 124.13 100.484C124.13 99.8204 124.13 99.9567 123.864 99.7559L123.871 99.7738Z" fill="#ECEFDF"/>
<path d="M131.561 93.4283C131.23 93.1629 130.831 93.0983 130.435 93.0983C130.039 93.0983 129.838 93.0983 129.64 93.2956C129.442 93.4929 129.24 93.6256 129.111 94.0238C128.913 94.3538 128.711 94.8847 128.513 95.6774C128.182 96.6674 127.916 97.7938 127.718 98.9165C127.52 100.039 127.318 101.097 127.254 102.087C127.254 103.077 127.121 103.806 127.254 104.333C127.254 104.731 127.387 104.993 127.52 105.194C127.718 105.391 127.919 105.459 128.182 105.459C128.445 105.459 128.38 105.459 128.448 105.327C128.448 105.327 128.448 105.194 128.582 104.997C128.913 103.214 129.377 101.427 129.974 99.7092C130.572 97.9911 131.101 96.6674 131.565 95.8101L131.896 95.1501C131.896 94.9528 132.094 94.8201 132.094 94.6874V94.3574C132.094 94.0274 131.896 93.6973 131.565 93.4319L131.561 93.4283Z" fill="#ECEFDF"/>
<path d="M127.783 106.647H127.718C127.189 106.647 126.725 106.977 126.325 107.375C125.926 107.773 125.796 108.236 125.796 108.695C125.796 109.154 125.994 109.355 126.26 109.62C126.527 109.886 126.923 109.95 127.322 109.95C127.722 109.95 128.315 109.685 128.646 109.29C129.046 108.892 129.175 108.429 129.175 107.902C129.175 107.375 128.978 107.242 128.776 106.977C128.51 106.711 128.179 106.647 127.783 106.647Z" fill="#ECEFDF"/>
</svg>
