<svg width="362" height="291" viewBox="0 0 362 291" fill="none" xmlns="http://www.w3.org/2000/svg">
<path d="M94.2623 176.138V144.024H81.1824V176.256C81.1824 184.132 76.5833 187.771 70.1615 187.771C63.7397 187.771 59.1407 184.132 59.1407 176.256V144.024H46.0608V176.138C46.0608 190.439 56.2378 199.286 70.17 199.286C84.1022 199.286 94.2792 190.439 94.2792 176.138H94.2623Z" fill="#ECEFDF"/>
<path d="M118.127 188.742C113.283 188.742 111.097 185.711 110.735 181.836H98.4985C99.3423 192.262 106.254 199.168 118 199.168C129.747 199.168 137.628 192.87 137.628 181.836C137.628 170.802 132.658 168.624 124.186 166.201L117.401 164.26C114.127 163.416 111.832 162.2 111.832 159.169C111.832 156.139 113.891 154.442 117.528 154.442C121.165 154.442 123.342 157.354 123.46 160.739H135.207C134.962 151.529 128.177 144.016 117.519 144.016C106.861 144.016 99.1061 149.951 99.1061 160.495C99.1061 171.039 104.676 173.099 112.675 175.277L119.705 177.218C123.097 178.063 124.793 180.004 124.793 182.917C124.793 185.829 122.009 188.733 118.127 188.733V188.742Z" fill="#ECEFDF"/>
<path d="M166.944 180.384V154.813H182.083V144.024H138.599V154.813H153.738V189.831L166.944 180.384Z" fill="#ECEFDF"/>
<path d="M1.71572 154.931H27.0316V180.384C27.0316 184.985 24.2469 187.898 19.8841 187.898C15.5213 187.898 12.7366 183.896 12.4919 179.658H0.137695C0.618698 190.928 7.0405 199.168 20.247 199.168C33.4534 199.168 40.2381 190.076 40.2381 180.384V144.024H1.71572V154.931Z" fill="#ECEFDF"/>
<path d="M22.6689 107.791C18.5508 111.911 18.5508 118.698 22.6689 122.818C26.7869 126.937 33.5716 126.937 37.6896 122.818C41.8077 118.698 41.8077 111.911 37.6896 107.791C33.5716 103.671 26.7869 103.671 22.6689 107.791Z" fill="#ECEFDF"/>
<path d="M242.048 171.292C242.048 157.962 234.293 146.574 216.606 144.142L190.564 162.926V199.041H208.125C230.293 199.041 242.04 187.045 242.04 171.292H242.048ZM206.8 188.261H204.015V154.813H206.8C220.732 154.813 228.605 160.385 228.605 171.292C228.605 182.199 222.428 188.261 206.8 188.261Z" fill="#ECEFDF"/>
<path d="M330.477 180.376H347.076C345.135 184.977 340.291 188.497 333.388 188.497C326.485 188.497 317.886 182.199 317.886 171.528C317.886 160.858 323.819 154.923 333.633 154.923C343.447 154.923 345.143 158.68 347.32 163.281H360.037C356.645 151.403 346.957 143.889 333.506 143.889C320.055 143.889 305.043 156.13 305.043 171.52C305.043 186.91 315.945 199.151 333.506 199.151C351.067 199.151 361.244 187.273 361.244 170.794V169.342H330.477V180.376Z" fill="#ECEFDF"/>
<path d="M274.031 143.906C256.706 143.906 245.803 156.265 245.803 171.537C245.803 186.809 256.588 199.168 274.031 199.168C291.473 199.168 302.258 186.809 302.258 171.537C302.258 156.265 291.355 143.906 274.031 143.906ZM274.031 188.016C263.854 188.016 258.765 179.895 258.765 171.537C258.765 163.179 263.972 155.058 274.031 155.058C284.09 155.058 289.414 163.053 289.414 171.537C289.414 180.021 284.208 188.016 274.031 188.016Z" fill="#ECEFDF"/>
<path d="M79.3596 62.2206L83.4777 52.0479L80.0854 50.4692L84.811 48.6542L89.6548 36.6496L98.8613 29.6258L115.342 40.7778L105.773 56.5306L112.068 60.5237L128.903 49.6166L156.16 67.4378L174.936 73.9804L225.821 76.1584L265.187 95.9129L281.052 98.4624L306.612 94.8239L305.043 84.0349L281.296 87.4286L268.453 85.4954L228.605 65.4961L176.995 63.0732L161.012 57.5015L118.371 29.744L98.8613 0.661057L89.5367 4.89897V23.0832L80.6929 29.8706L76.5749 40.2881L62.4064 45.4969L60.9465 50.7141L65.0646 55.4332L79.3596 62.2206Z" fill="#ECEFDF"/>
<path d="M225.331 101.366L219.154 89.7333L205.83 87.6734L218.791 112.029L283.111 114.941L294.866 132.999L303.709 126.819L289.051 104.279L225.331 101.366Z" fill="#ECEFDF"/>
<path d="M140.903 97.7279L145.384 88.3994L139.325 70.097L125.882 64.1623L133.629 87.7916L101.41 92.5192L97.2918 112.155L106.979 118.453L118.971 113.244L109.401 107.065L110.49 102.219L140.54 97.8546L140.903 97.7279Z" fill="#ECEFDF"/>
<path d="M71.2164 236.254C72.6172 236.254 73.7058 235.789 74.4821 235.165V235.629C75.2585 235.004 75.7226 234.228 75.5707 233.451C75.5707 232.514 75.1066 231.898 74.3302 231.585C73.5539 231.121 72.6172 230.961 71.5286 231.121C70.44 231.121 69.1995 231.433 68.1109 232.058C67.6468 232.37 67.1743 232.522 66.7101 232.835C66.0857 232.835 65.4697 232.835 64.8452 232.683C62.9803 232.37 61.2672 232.218 59.8664 232.218H55.5121C51.9341 232.218 48.6683 233.156 46.027 234.548C43.3857 235.789 41.3605 237.503 39.9596 239.529C38.5588 241.555 37.9344 243.725 38.0947 246.215C38.0947 248.545 39.0314 250.411 40.5841 251.661C42.1368 253.062 44.0018 253.687 46.027 253.526C47.4278 253.526 48.8287 253.062 49.9172 252.285C51.0058 251.509 51.9425 250.572 52.4066 249.643C53.0311 248.554 53.183 247.617 53.183 246.688C53.183 245.76 53.183 245.911 52.8708 245.599C52.8708 245.447 52.5585 245.287 52.4066 245.287C52.2547 245.287 52.0944 245.287 51.7822 245.599C51.0058 246.376 50.0691 246.84 48.9806 247.001C48.0439 247.001 47.2675 246.688 46.4912 246.063C45.8667 245.439 45.4026 244.51 45.4026 243.261C45.4026 242.011 45.7148 240.618 46.643 239.369C47.5797 238.128 48.8202 237.191 50.3729 236.414C51.9256 235.638 53.9509 235.173 56.1281 235.013H60.3221C61.2588 235.013 62.4993 235.325 63.7397 235.637C62.4993 236.878 61.5626 238.44 60.6343 240.458C59.2335 243.413 58.1449 246.528 57.3686 249.947C56.5922 253.366 55.6555 257.722 54.5669 263.015C53.4783 268.3 52.702 272.504 51.9256 275.611C51.1493 278.717 50.0607 281.208 48.8202 283.386C47.5797 285.564 46.0186 286.653 44.0018 286.653C41.9849 286.653 41.6727 286.341 40.8963 285.412C40.12 284.475 39.8078 283.234 39.6559 281.681C39.6559 279.654 39.9681 277.485 41.0567 275.146C42.1453 272.808 43.5461 270.951 45.411 269.389L46.4996 268.612C46.4996 268.46 46.8118 268.3 47.124 268.148C47.124 268.148 47.4363 267.836 47.4363 267.684C47.4363 267.219 47.1241 266.907 46.6599 266.747C46.1958 266.747 45.5713 266.434 44.9469 266.434C43.0819 266.434 41.0567 267.371 39.0398 268.764C37.0146 270.166 35.4618 272.031 34.2214 274.361C32.9809 276.539 32.3564 278.869 32.5083 281.208C32.5083 284.011 33.7488 286.189 35.6137 287.894C37.4787 289.608 40.12 290.384 43.3857 290.072C47.892 289.76 51.4699 288.046 54.1112 284.627C56.7525 281.36 58.6175 277.316 59.8664 272.808C61.1069 268.3 62.1955 262.542 63.284 255.383C63.9085 251.027 64.5245 247.608 65.149 245.118C65.7734 242.628 66.3895 240.298 67.1743 238.271C67.4865 237.495 67.7987 236.87 68.2628 236.245H68.5751C69.5118 236.245 70.44 236.397 71.2164 236.245V236.254Z" fill="#ECEFDF"/>
<path d="M109.773 255.856V255.392C109.148 254.455 108.684 253.678 108.22 253.062C108.532 252.75 108.844 252.437 108.996 251.973C109.773 250.572 110.237 249.17 110.085 247.777C110.085 247.001 109.773 246.224 109.308 245.751C108.844 245.287 108.22 244.974 107.283 245.126C106.043 245.126 104.954 245.903 104.017 247.152C103.241 248.393 102.777 249.795 102.929 251.196C102.929 251.973 103.241 252.75 103.553 253.526C103.865 254.303 104.49 255.392 105.266 256.945C106.043 258.347 106.667 259.588 107.131 260.677C107.595 261.766 107.756 262.703 107.908 263.783C107.908 265.185 107.756 266.274 107.131 267.202C106.507 268.131 105.73 268.604 104.642 268.604C103.553 268.604 103.241 268.604 102.777 267.979C102.313 267.515 102.001 266.89 101.84 266.113C101.84 265.176 101.992 264.4 102.617 263.783C103.081 263.159 103.705 262.694 104.481 262.542H104.946C105.258 262.542 105.41 262.39 105.57 262.23V261.766C105.57 260.989 105.258 260.364 104.633 259.74C104.009 259.115 103.233 258.803 102.304 258.963C101.368 258.963 100.591 259.427 99.663 259.9C99.663 260.052 99.1989 260.364 99.0386 260.525C99.0386 260.525 99.0386 260.212 98.8867 260.212C98.7348 260.212 98.5744 260.06 98.4225 260.06C98.1103 260.06 97.7981 260.212 97.6462 260.525C96.0935 263.167 94.6927 265.033 93.6041 266.122C92.5155 267.211 91.5788 267.675 90.6506 267.675C89.7223 267.675 89.7139 267.523 89.2497 267.05C88.7856 266.586 88.6253 265.961 88.4734 264.872V263.319C88.7856 262.855 89.2497 262.23 89.562 261.605C90.3383 260.364 90.9628 258.963 91.5872 257.41C92.2117 255.856 92.3636 254.607 92.3636 253.366C92.3636 252.125 92.0514 251.34 91.4269 250.875C90.9628 250.411 90.1864 250.099 89.562 250.251C88.4734 250.251 87.5367 250.875 86.7603 251.804C85.8236 252.893 85.2076 254.294 84.5832 256C83.9587 257.705 83.4946 259.579 83.1824 261.285C82.8701 262.998 82.8701 264.552 82.8701 265.793C81.4693 267.506 80.0685 268.595 78.6761 268.747C78.0517 268.747 77.4356 268.747 76.9631 268.123C76.4989 267.498 76.1867 266.721 76.1867 265.32C76.1867 263.918 76.1867 262.677 76.499 261.124C76.8112 259.571 77.4356 258.017 78.3639 256.143C78.6761 255.679 78.828 255.206 78.9884 254.902C79.1403 254.438 79.4525 254.126 79.4525 253.813C79.4525 253.501 79.6044 253.189 79.6044 252.876C79.6044 252.1 79.1402 251.323 78.5158 250.85C77.8913 250.225 77.115 250.073 76.1867 250.073C75.2585 250.073 74.3218 250.698 73.5454 251.939C72.7691 253.18 72.1446 254.742 71.5201 256.608C71.056 258.321 70.5835 260.027 70.2797 261.74C69.9674 263.606 69.9674 265.159 69.9674 266.561C69.9674 268.739 70.7438 270.453 71.6805 271.694C72.7691 272.935 74.1699 273.407 76.1867 273.407C78.2036 273.407 79.9166 272.47 81.6296 270.765C82.0938 270.301 82.5663 269.828 83.0305 269.212L83.9671 271.077C84.9038 272.166 86.1443 272.631 87.8574 272.631C89.5704 272.631 91.4353 271.694 93.3003 269.988C94.5408 268.899 95.7897 267.186 97.0302 265.007V265.945C97.0302 267.034 97.3424 267.971 97.9669 268.899C98.5913 269.836 99.3677 270.613 100.456 271.077C101.545 271.702 102.785 271.854 104.346 271.854C105.908 271.854 107.924 271.229 109.165 270.453C110.566 269.676 111.654 268.587 112.27 267.185C113.047 265.784 113.207 264.383 113.207 262.829C113.207 261.276 112.743 260.339 112.27 259.25C111.646 258.161 110.87 257.072 109.781 255.831L109.773 255.856Z" fill="#ECEFDF"/>
<path d="M133.873 245.118H134.025C133.713 244.806 133.401 244.493 133.088 244.654V245.278H132.776L132.464 245.591C131.84 246.215 131.063 246.832 129.975 247.456C129.038 247.921 127.949 248.393 126.709 248.697C127.646 245.591 128.734 242.94 129.662 240.762C130.127 239.825 130.599 238.896 131.215 237.959C131.367 237.647 131.527 237.334 131.679 237.182V236.558C131.679 235.781 131.215 235.156 130.591 234.692C129.966 234.228 129.19 233.915 128.413 234.067C127.477 234.067 126.7 234.692 125.924 235.621C125.148 236.558 124.371 237.799 123.747 239.512C122.346 242.779 121.257 246.359 120.329 249.93H119.865C118.928 249.93 118.152 249.93 117.536 249.618H116.76V250.082C116.76 251.019 117.384 251.635 118.473 252.26C118.785 252.26 119.249 252.572 119.713 252.724C118.937 256.616 118.625 260.035 118.777 262.99C118.777 265.32 119.553 267.034 120.641 268.123C121.73 269.212 123.131 269.836 124.684 269.676C126.397 269.676 127.637 269.051 128.726 268.123C129.814 267.186 130.591 266.096 131.215 264.704C131.215 264.391 131.215 264.079 131.527 263.766V262.829C131.527 262.365 131.527 262.053 131.063 262.053C130.599 262.053 130.751 262.053 130.439 262.677L130.126 262.99C129.502 263.766 129.038 264.231 128.574 264.543C128.11 264.855 127.637 265.007 127.173 265.007C126.397 265.007 125.933 264.695 125.46 264.07C124.996 263.446 124.684 262.357 124.684 260.803C124.684 258.161 124.684 255.358 125.308 252.555C128.413 252.243 130.591 251.618 132.152 250.69C133.704 249.601 134.481 248.36 134.481 246.798C134.481 245.236 134.481 245.557 133.856 245.084L133.873 245.118Z" fill="#ECEFDF"/>
<path d="M202.285 245.118H202.133C201.357 243.717 200.581 242.788 199.492 242.011C198.404 241.387 197.315 241.074 196.074 241.074C194.834 241.074 193.273 241.699 192.184 242.788C191.096 243.877 191.248 244.189 190.944 244.966C190.167 245.278 189.391 245.903 188.454 246.68C186.902 248.081 185.653 249.786 184.564 251.812C184.1 252.75 183.627 253.839 183.476 254.767H182.699C182.387 254.767 182.075 254.919 181.923 255.232C180.37 258.034 178.969 259.9 177.729 260.989C176.488 262.078 175.4 262.703 174.623 262.855C173.847 262.855 173.383 262.542 172.91 261.766C172.438 260.989 172.134 259.9 172.134 258.499C173.375 256.785 174.623 254.767 175.864 252.429C178.193 248.073 180.058 243.565 181.619 239.208C183.02 234.7 183.644 231.273 183.484 228.791C183.484 227.39 183.02 226.149 182.395 225.212C181.771 224.274 180.843 223.81 179.594 223.81C177.265 223.81 174.927 226.14 172.91 230.496C170.885 234.692 169.332 239.521 168.092 244.958C167.316 244.645 166.539 244.493 165.603 244.493C163.425 244.493 161.248 245.582 159.383 247.136C157.358 248.689 155.805 250.867 154.717 253.357C153.628 255.848 153.164 258.338 153.316 260.981C153.316 263.311 154.253 265.176 155.645 266.426C157.037 267.675 158.598 268.291 160.624 268.139C162.176 268.139 163.729 267.515 165.29 266.426C166.227 265.801 167.003 265.024 167.932 263.935C167.932 264.4 168.244 264.872 168.396 265.176C169.484 266.73 170.725 267.506 172.286 267.354C174.311 267.354 176.176 266.417 177.881 264.712C179.746 263.159 181.459 260.516 183.324 256.776V258.49C183.324 260.82 184.26 262.686 185.813 264.248C187.366 265.649 189.231 266.426 191.72 266.274C194.21 266.274 196.387 265.185 198.091 263.631C199.956 262.078 201.357 260.052 202.285 257.562C203.222 255.232 203.526 252.741 203.526 250.251C203.526 247.76 203.062 246.671 202.285 245.43V245.118ZM166.522 261.141C166.21 261.605 165.746 261.918 165.282 262.23C164.345 263.007 163.257 263.471 162.328 263.471C161.4 263.471 160.463 263.159 159.839 262.23C159.215 261.293 158.75 260.204 158.598 258.651C158.598 256.624 158.598 254.919 159.375 253.053C159.999 251.34 160.776 249.947 161.704 248.858C162.641 247.769 163.569 247.304 164.506 247.144C165.594 247.144 166.058 247.608 166.219 248.858C166.219 249.322 166.219 249.795 165.906 250.259V250.884C165.906 251.036 166.058 251.196 166.531 251.348C166.219 254.151 166.067 256.481 166.067 258.507C166.067 259.596 166.379 260.373 166.531 261.149L166.522 261.141ZM172.581 247.608H172.733C173.67 243.252 174.758 239.36 175.999 235.789C177.239 232.37 178.176 230.657 178.952 230.657C179.729 230.657 179.417 230.657 179.577 230.969C179.577 231.121 179.889 231.594 179.889 231.906C179.889 233.459 179.425 236.102 178.336 239.842C177.096 243.573 175.695 247.304 173.67 251.044C173.045 252.285 172.429 253.535 171.645 254.624C171.645 252.598 172.109 250.268 172.581 247.625V247.608ZM199.171 256.16L198.707 256.473C198.243 258.026 197.619 259.427 196.682 260.364C195.745 261.453 194.657 261.918 193.416 262.078C192.016 262.078 190.927 261.614 190.151 260.525C189.374 259.436 188.91 258.034 188.75 256.329C188.75 255.088 188.75 253.687 189.214 252.437C189.526 251.196 189.99 249.947 190.615 249.018C190.615 249.018 190.927 248.706 191.079 248.393C191.079 248.858 191.543 249.331 192.016 249.634C192.792 250.411 193.729 250.723 194.505 250.723C195.281 250.723 195.129 250.723 195.281 250.411C195.281 250.411 195.593 250.099 195.593 249.947V249.482C195.442 249.17 195.281 248.706 195.281 248.242C195.281 247.777 195.281 247.152 195.593 246.688C195.906 246.224 196.218 246.063 196.682 246.063C197.146 246.063 197.923 246.528 198.547 247.465C199.171 248.402 199.484 249.643 199.636 251.196C199.636 252.91 199.636 254.615 199.171 256.177V256.16Z" fill="#ECEFDF"/>
<path d="M246.909 250.563C246.909 250.563 246.597 250.411 246.445 250.411H246.133C245.82 250.563 245.508 250.723 245.356 251.036C243.803 253.678 242.09 255.704 240.377 256.793C238.664 258.034 236.96 258.659 235.399 258.819C233.846 258.819 232.757 258.355 231.981 257.266C231.356 256.489 231.044 255.24 230.892 253.999C232.757 253.687 234.622 253.062 236.175 252.285C238.2 251.196 239.753 249.955 240.993 248.554C242.082 247.152 242.546 245.599 242.546 244.198C242.546 242.796 241.922 241.707 240.833 240.931C239.744 240.154 238.344 239.69 236.639 239.842C234.614 239.842 232.597 240.779 230.732 242.332C228.867 243.885 227.466 245.911 226.378 248.242C225.289 250.572 224.825 252.91 224.977 255.24C224.977 257.106 225.601 258.507 226.378 259.748C227.154 260.989 228.243 261.926 229.483 262.39C230.724 263.015 232.124 263.167 233.525 263.167C235.854 263.167 238.344 262.078 240.681 260.364C243.171 258.651 245.187 255.856 246.9 252.116C246.9 251.804 247.213 251.492 247.213 251.179C247.213 250.867 247.213 250.715 246.9 250.555L246.909 250.563ZM231.205 248.385C231.669 246.832 232.445 245.43 233.382 244.341C234.318 243.252 235.095 242.628 235.871 242.628C236.647 242.628 236.496 242.628 236.808 243.092C237.12 243.404 237.12 243.869 237.272 244.493C237.272 245.734 236.96 246.823 236.183 248.073C235.407 249.314 234.318 250.251 232.918 251.027C232.141 251.492 231.517 251.804 230.74 252.116C230.74 250.875 230.892 249.626 231.365 248.385H231.205Z" fill="#ECEFDF"/>
<path d="M274.74 249.322H274.588C274.588 249.322 274.275 249.17 274.124 249.17L273.659 248.858C273.347 248.858 273.035 248.858 272.883 249.322C271.33 251.964 269.929 253.83 268.993 254.919C267.904 255.856 267.128 256.473 266.352 256.473C265.575 256.473 265.263 256.008 264.951 255.232V254.455C265.575 253.214 266.352 251.964 266.976 250.563C267.752 248.697 268.065 246.984 268.065 245.278C268.065 243.573 267.752 244.037 267.44 243.565C267.128 243.092 266.503 242.94 266.039 242.94H265.727V242.163C265.727 240.922 265.103 239.985 264.174 239.36C263.238 238.584 261.845 238.271 260.284 238.423C258.107 238.423 255.93 239.512 254.065 241.066C252.04 242.619 250.487 244.797 249.246 247.288C248.006 249.778 247.533 252.268 247.694 254.911C247.694 257.241 248.63 259.106 250.023 260.356C251.415 261.605 252.976 262.222 255.002 262.07C256.554 262.07 258.107 261.445 259.508 260.356C259.972 260.044 260.596 259.419 261.06 258.954C261.06 259.267 261.373 259.579 261.525 259.731C262.461 260.82 263.55 261.285 265.103 261.285C266.655 261.285 268.208 260.347 269.769 258.794C271.322 257.241 273.035 254.598 274.748 250.859C274.748 250.546 275.06 250.234 275.06 249.921C275.06 249.609 275.06 249.457 274.748 249.297L274.74 249.322ZM260.588 249.786H260.436C259.972 251.652 259.812 253.518 259.812 255.383V256.008C259.812 256.321 259.347 256.473 259.187 256.785C258.563 257.41 257.786 257.722 257.01 257.722C256.234 257.722 255.145 257.41 254.521 256.481C253.896 255.544 253.432 254.455 253.28 252.902C253.28 251.036 253.28 249.17 254.056 247.456C254.681 245.743 255.457 244.35 256.546 243.261C257.482 242.172 258.411 241.707 259.347 241.547C259.812 241.547 260.284 241.547 260.588 242.011C260.9 242.324 261.052 242.788 261.052 243.252C261.052 243.717 261.052 244.189 260.74 244.654V245.278C260.74 245.278 260.74 245.591 261.364 245.743H262.301C261.525 246.832 260.9 248.233 260.588 249.786Z" fill="#ECEFDF"/>
<path d="M290.596 235.477C290.283 235.165 289.971 234.852 289.659 235.013V235.477H289.347L289.035 235.789C288.41 236.414 287.634 237.03 286.545 237.655C285.608 238.119 284.52 238.592 283.279 238.896C284.216 235.789 285.305 233.139 286.233 230.961C286.697 230.024 287.17 229.095 287.786 228.158C287.938 227.845 288.098 227.533 288.25 227.381C288.25 227.069 288.402 226.917 288.402 226.756C288.402 225.98 288.089 225.355 287.313 224.891C286.689 224.426 285.912 224.114 285.136 224.266C284.199 224.266 283.423 224.891 282.646 225.819C281.87 226.756 281.094 227.997 280.469 229.711C279.069 232.978 277.98 236.558 277.052 240.129H276.588C275.651 240.129 274.875 240.129 274.259 239.816H273.794C273.794 239.816 273.482 239.816 273.482 239.968V240.433C273.482 241.37 274.107 241.986 275.195 242.611C275.507 242.611 275.972 242.923 276.436 243.075C275.659 246.967 275.347 250.386 275.499 253.341C275.499 255.671 276.275 257.384 277.364 258.473C278.453 259.562 279.853 260.187 281.406 260.027C283.119 260.027 284.36 259.402 285.448 258.473C286.537 257.536 287.313 256.447 287.938 255.054C287.938 254.742 287.938 254.43 288.25 254.117V253.18C288.25 252.716 288.098 252.403 287.786 252.403C287.473 252.403 287.473 252.555 287.161 253.028L286.849 253.341C286.224 254.117 285.76 254.581 285.296 254.894C284.832 255.206 284.36 255.358 283.895 255.358C283.119 255.358 282.655 255.046 282.182 254.421C281.718 253.796 281.406 252.707 281.406 251.154C281.406 248.512 281.406 245.709 282.03 242.906C285.136 242.594 287.313 241.969 288.874 241.04C290.427 239.951 291.203 238.71 291.203 237.149C291.203 235.587 291.203 235.908 290.579 235.435L290.596 235.477Z" fill="#ECEFDF"/>
<path d="M308.629 220.543C307.853 219.918 306.916 219.766 305.988 219.766C305.06 219.766 304.587 219.766 304.123 220.231C303.659 220.695 303.186 221.007 302.882 221.944C302.418 222.721 301.946 223.971 301.482 225.836C300.705 228.166 300.081 230.817 299.617 233.459C299.152 236.102 298.68 238.592 298.528 240.922C298.528 243.252 298.216 244.966 298.528 246.207C298.528 247.144 298.84 247.76 299.152 248.233C299.617 248.697 300.089 248.858 300.705 248.858C301.321 248.858 301.169 248.858 301.33 248.545C301.33 248.545 301.33 248.233 301.642 247.769C302.418 243.573 303.507 239.369 304.908 235.325C306.308 231.281 307.549 228.166 308.637 226.149L309.414 224.595C309.414 224.131 309.878 223.819 309.878 223.506V222.73C309.878 221.953 309.414 221.176 308.637 220.552L308.629 220.543Z" fill="#ECEFDF"/>
<path d="M299.769 251.652H299.617C298.376 251.652 297.288 252.429 296.351 253.366C295.414 254.303 295.11 255.392 295.11 256.473C295.11 257.553 295.574 258.026 296.199 258.651C296.823 259.275 297.752 259.427 298.688 259.427C299.625 259.427 301.017 258.803 301.794 257.874C302.73 256.937 303.034 255.848 303.034 254.607C303.034 253.366 302.57 253.053 302.098 252.429C301.473 251.804 300.697 251.652 299.769 251.652Z" fill="#ECEFDF"/>
</svg>
