<svg width="192" height="192" viewBox="0 0 192 192" fill="none" xmlns="http://www.w3.org/2000/svg">
<path d="M165.864 97.4692C165.889 97.2343 165.99 97.0413 166.166 96.8987C166.343 96.7561 166.552 96.689 166.787 96.7141L179.047 97.8971C179.299 97.9223 179.492 98.023 179.626 98.1908C179.769 98.367 179.827 98.5767 179.802 98.8116C179.777 99.0549 179.676 99.2563 179.508 99.3905C179.341 99.5248 179.131 99.5835 178.879 99.5667L173.584 99.0549L172.77 107.487L178.065 107.999C178.317 108.024 178.51 108.125 178.644 108.301C178.787 108.477 178.846 108.687 178.82 108.913C178.795 109.165 178.703 109.358 178.535 109.5C178.367 109.643 178.158 109.693 177.906 109.677L165.655 108.494C165.42 108.468 165.227 108.368 165.076 108.2C164.933 108.032 164.866 107.814 164.891 107.571C164.916 107.336 165.008 107.134 165.193 106.992C165.369 106.849 165.571 106.782 165.814 106.807L171.293 107.336L172.107 98.8955L166.628 98.367C166.393 98.3418 166.2 98.2495 166.049 98.0817C165.906 97.9139 165.839 97.6958 165.864 97.4525V97.4692Z" fill="white"/>
<path d="M163.842 112.588C163.918 112.361 164.06 112.194 164.262 112.076C164.471 111.959 164.681 111.942 164.908 112.017L176.614 115.835C176.848 115.91 177.016 116.061 177.109 116.271C177.201 116.481 177.209 116.707 177.142 116.926C177.067 117.152 176.932 117.32 176.739 117.404C176.546 117.496 176.328 117.505 176.093 117.429L166.124 114.174L173.895 125.895C174.037 126.113 174.063 126.348 173.987 126.599C173.912 126.834 173.769 127.01 173.576 127.103C173.383 127.203 173.165 127.212 172.921 127.136L161.216 123.319C160.989 123.243 160.821 123.109 160.72 122.916C160.62 122.723 160.603 122.497 160.678 122.262C160.754 122.035 160.888 121.867 161.098 121.767C161.299 121.666 161.518 121.641 161.744 121.725L171.696 124.972L163.918 113.276C163.859 113.184 163.825 113.066 163.808 112.94C163.792 112.806 163.808 112.697 163.834 112.596L163.842 112.588Z" fill="white"/>
<path d="M156.793 129.527C157.104 128.974 157.481 128.453 157.926 127.984C158.371 127.514 158.858 127.128 159.369 126.834C159.881 126.541 160.368 126.381 160.846 126.373C161.039 126.44 161.232 126.524 161.417 126.624C161.602 126.725 161.702 126.885 161.719 127.103C161.736 127.312 161.677 127.497 161.543 127.656C161.409 127.807 161.232 127.891 160.997 127.917C160.486 128.026 159.965 128.286 159.437 128.688C158.908 129.091 158.472 129.611 158.119 130.249C157.809 130.811 157.624 131.365 157.591 131.902C157.549 132.447 157.641 132.934 157.867 133.395C158.094 133.848 158.455 134.209 158.942 134.486C159.63 134.872 160.301 134.947 160.955 134.721C161.61 134.494 162.13 134.024 162.525 133.32L163.087 132.304C163.187 132.128 163.33 132.011 163.515 131.96C163.699 131.91 163.884 131.927 164.06 132.028C164.262 132.137 164.387 132.288 164.446 132.472C164.505 132.657 164.48 132.841 164.387 133.026L163.926 133.857C163.607 134.419 163.532 134.989 163.683 135.585C163.834 136.172 164.22 136.642 164.849 136.994C165.495 137.355 166.108 137.389 166.67 137.112C167.24 136.835 167.719 136.34 168.113 135.627C168.407 135.107 168.575 134.561 168.625 134.008C168.675 133.445 168.6 132.9 168.382 132.38C168.264 132.12 168.222 131.885 168.256 131.675C168.289 131.465 168.424 131.306 168.65 131.197C168.818 131.113 169.003 131.096 169.212 131.147C169.414 131.197 169.565 131.323 169.666 131.507C169.984 132.204 170.152 132.967 170.161 133.789C170.161 134.612 169.926 135.467 169.431 136.357C169.003 137.12 168.499 137.708 167.903 138.135C167.308 138.555 166.687 138.798 166.041 138.865C165.394 138.933 164.773 138.807 164.194 138.479C163.75 138.228 163.389 137.909 163.129 137.515C162.869 137.12 162.692 136.709 162.6 136.281C162.508 135.853 162.483 135.426 162.533 135.014C162.583 134.603 162.676 134.259 162.818 133.982L163.271 134.234C163.087 134.545 162.818 134.863 162.474 135.182C162.13 135.509 161.727 135.786 161.266 135.996C160.804 136.214 160.301 136.323 159.755 136.332C159.21 136.332 158.656 136.181 158.077 135.862C157.389 135.476 156.869 134.947 156.525 134.268C156.181 133.588 156.021 132.833 156.055 132.002C156.088 131.18 156.34 130.35 156.802 129.527H156.793Z" fill="white"/>
<path d="M146.833 144.092C146.799 143.883 146.875 143.681 147.043 143.488C147.21 143.295 147.404 143.195 147.622 143.186L156.659 142.977L158.354 151.35C158.396 151.576 158.346 151.794 158.195 151.979C158.044 152.164 157.859 152.273 157.632 152.281C157.398 152.281 157.205 152.231 157.062 152.113C156.919 151.987 156.827 151.811 156.793 151.576L155.451 144.596L147.68 144.814C147.454 144.814 147.261 144.755 147.11 144.638C146.959 144.52 146.866 144.336 146.841 144.084L146.833 144.092ZM152.489 136.793C152.64 136.609 152.833 136.508 153.059 136.483C153.286 136.457 153.496 136.525 153.68 136.676L163.238 144.445C163.431 144.604 163.54 144.797 163.557 145.015C163.573 145.233 163.506 145.443 163.355 145.628C163.196 145.821 163.011 145.93 162.793 145.955C162.575 145.98 162.365 145.905 162.172 145.754L158.044 142.398L156.214 144.646L155.056 143.706L156.886 141.458L152.614 137.984C152.43 137.833 152.321 137.649 152.296 137.422C152.27 137.196 152.338 136.986 152.489 136.793Z" fill="white"/>
<path d="M140.388 149.261C141.202 148.589 142.058 148.12 142.948 147.834C143.846 147.549 144.743 147.457 145.633 147.549C146.531 147.65 147.387 147.918 148.217 148.371C149.048 148.816 149.795 149.445 150.458 150.259C151.121 151.064 151.591 151.912 151.876 152.81C152.161 153.707 152.262 154.605 152.187 155.503C152.111 156.4 151.851 157.256 151.406 158.087C150.961 158.909 150.332 159.664 149.518 160.327C148.721 160.99 147.865 161.46 146.967 161.745C146.069 162.03 145.171 162.122 144.274 162.03C143.376 161.938 142.511 161.669 141.681 161.216C140.85 160.763 140.111 160.142 139.449 159.345C138.777 158.532 138.299 157.684 138.022 156.778C137.737 155.88 137.636 154.983 137.712 154.085C137.787 153.187 138.056 152.323 138.5 151.492C138.945 150.662 139.574 149.923 140.372 149.261H140.388ZM141.37 150.452C140.749 150.964 140.279 151.543 139.944 152.189C139.608 152.843 139.415 153.514 139.356 154.219C139.298 154.924 139.381 155.629 139.608 156.333C139.843 157.038 140.212 157.693 140.716 158.305C141.228 158.926 141.798 159.412 142.444 159.765C143.082 160.117 143.762 160.335 144.467 160.411C145.18 160.495 145.876 160.428 146.573 160.226C147.269 160.017 147.924 159.656 148.545 159.152C149.166 158.649 149.636 158.07 149.98 157.424C150.324 156.778 150.508 156.107 150.559 155.402C150.609 154.697 150.525 153.993 150.298 153.288C150.08 152.583 149.711 151.929 149.199 151.316C148.687 150.695 148.108 150.209 147.462 149.856C146.816 149.504 146.136 149.286 145.432 149.202C144.727 149.118 144.03 149.185 143.334 149.386C142.637 149.588 141.974 149.949 141.362 150.46L141.37 150.452Z" fill="white"/>
<path d="M131.787 155.629C131.997 155.511 132.215 155.494 132.433 155.561C132.652 155.629 132.819 155.771 132.929 155.981L138.643 166.888C138.76 167.115 138.786 167.333 138.71 167.542C138.635 167.752 138.5 167.912 138.291 168.029L131.007 171.846C130.797 171.956 130.587 171.981 130.378 171.922C130.168 171.863 130.008 171.729 129.899 171.519C129.799 171.326 129.782 171.133 129.849 170.924C129.916 170.722 130.059 170.563 130.269 170.454L136.805 167.022L134.674 162.961L129.958 165.437C129.731 165.554 129.522 165.579 129.32 165.512C129.119 165.453 128.968 165.319 128.859 165.118C128.758 164.916 128.733 164.715 128.8 164.514C128.859 164.312 129.01 164.153 129.228 164.035L133.944 161.56L131.771 157.424L125.234 160.847C125.024 160.956 124.814 160.981 124.604 160.923C124.395 160.864 124.244 160.738 124.143 160.545C124.034 160.335 124.009 160.126 124.076 159.924C124.143 159.723 124.286 159.564 124.495 159.454L131.779 155.637L131.787 155.629Z" fill="white"/>
<path d="M72.7296 160.956C73.6442 161.267 74.4414 161.737 75.1211 162.357C75.8008 162.97 76.3294 163.691 76.7071 164.522C77.0847 165.344 77.3028 166.225 77.3532 167.173C77.4119 168.113 77.2777 169.061 76.942 170.009C76.6231 170.949 76.1532 171.763 75.5323 172.476C74.9197 173.18 74.2065 173.743 73.3925 174.154C72.5786 174.565 71.7143 174.817 70.808 174.892C69.8933 174.968 68.9787 174.85 68.0557 174.531C67.2081 174.238 66.5033 173.868 65.9411 173.407C65.3788 172.946 64.867 172.358 64.4138 171.62C64.3467 171.519 64.3048 171.427 64.2964 171.326C64.288 171.234 64.2964 171.133 64.3299 171.049C64.3635 170.974 64.4138 170.89 64.4726 170.823C64.5397 170.655 64.6572 170.546 64.825 170.487C64.9929 170.429 65.1607 170.429 65.3369 170.487C65.5131 170.546 65.6641 170.663 65.79 170.84C66.0921 171.36 66.4445 171.805 66.8557 172.157C67.2585 172.509 67.8291 172.811 68.5507 173.063C69.2388 173.298 69.9353 173.382 70.6402 173.306C71.345 173.231 72.0079 173.029 72.6373 172.702C73.2666 172.375 73.8205 171.939 74.3072 171.377C74.7938 170.814 75.1547 170.185 75.4064 169.464C75.6665 168.717 75.7756 167.979 75.7337 167.249C75.6917 166.519 75.5239 165.831 75.2302 165.176C74.9365 164.522 74.5337 163.96 74.0219 163.482C73.51 163.003 72.9142 162.643 72.2177 162.408C71.6219 162.206 71.0178 162.106 70.422 162.122C69.8178 162.139 69.222 162.248 68.6263 162.441C68.3997 162.517 68.1983 162.508 68.0221 162.433C67.8459 162.357 67.72 162.232 67.6361 162.055C67.5606 161.879 67.5606 161.686 67.6361 161.46C67.6697 161.351 67.72 161.267 67.7871 161.174C67.8543 161.09 67.9466 161.023 68.064 160.973C68.8277 160.671 69.5996 160.52 70.3884 160.52C71.1772 160.52 71.9576 160.663 72.7212 160.931L72.7296 160.956Z" fill="white"/>
<path d="M60.3693 155.025C61.2671 155.57 61.9972 156.216 62.5594 156.971C63.1216 157.726 63.4992 158.54 63.709 159.412C63.9104 160.285 63.9355 161.191 63.7845 162.122C63.6335 163.045 63.2894 163.968 62.744 164.858C62.2069 165.747 61.5608 166.477 60.8056 167.039C60.0504 167.601 59.2364 167.995 58.3637 168.222C57.491 168.449 56.5932 168.482 55.6617 168.331C54.7387 168.18 53.8241 167.836 52.9178 167.291C52.0283 166.754 51.3067 166.108 50.7361 165.353C50.1739 164.598 49.7879 163.784 49.5865 162.903C49.3767 162.022 49.3515 161.124 49.5026 160.193C49.6536 159.27 49.9976 158.355 50.5347 157.466C51.0801 156.568 51.7346 155.838 52.4815 155.276C53.2367 154.714 54.0506 154.32 54.9233 154.102C55.8044 153.875 56.7023 153.842 57.6337 153.993C58.5651 154.144 59.4714 154.488 60.3609 155.025H60.3693ZM59.5721 156.342C58.884 155.931 58.1875 155.671 57.4659 155.57C56.7442 155.469 56.0394 155.503 55.3513 155.679C54.6632 155.855 54.0255 156.174 53.4381 156.619C52.8507 157.063 52.3556 157.634 51.936 158.313C51.5165 159.001 51.2479 159.698 51.1305 160.428C51.0046 161.149 51.0214 161.854 51.1808 162.55C51.3402 163.247 51.6255 163.884 52.0535 164.472C52.4815 165.059 53.0353 165.562 53.7234 165.973C54.4031 166.393 55.1079 166.653 55.8296 166.762C56.5428 166.871 57.2477 166.829 57.9358 166.645C58.6239 166.46 59.2532 166.15 59.8406 165.705C60.428 165.269 60.9315 164.707 61.351 164.019C61.7622 163.339 62.0307 162.626 62.1566 161.896C62.2825 161.166 62.2573 160.453 62.1062 159.773C61.9468 159.085 61.6615 158.439 61.2419 157.852C60.8224 157.256 60.2686 156.761 59.5805 156.342H59.5721Z" fill="white"/>
<path d="M50.7696 149.118L51.3151 150.611L39.1729 155.83C38.7869 155.989 38.4596 155.939 38.1911 155.679C37.9142 155.419 37.8639 155.092 38.0233 154.722L42.8902 142.381L44.3335 142.851L39.7435 154.286L39.5253 154.076L50.7696 149.11V149.118ZM54.6716 147.809C54.8478 147.977 54.9317 148.17 54.9401 148.396C54.9401 148.615 54.8646 148.816 54.6884 149.001L52.6157 151.132C52.4395 151.316 52.2381 151.4 52.0199 151.4C51.7934 151.4 51.6004 151.316 51.4242 151.148L42.3532 142.33C42.177 142.154 42.0847 141.961 42.0763 141.743C42.0679 141.525 42.1602 141.324 42.3364 141.139L44.4091 139.008C44.5853 138.823 44.7783 138.731 45.0048 138.731C45.223 138.731 45.4244 138.807 45.6006 138.991C45.7768 139.167 45.8691 139.36 45.8775 139.579C45.8775 139.797 45.7936 139.998 45.6174 140.183L44.0147 141.827L51.8857 149.47L53.48 147.826C53.6562 147.641 53.8492 147.549 54.0758 147.549C54.294 147.549 54.4954 147.633 54.6716 147.801V147.809Z" fill="white"/>
<path d="M41.1868 138.186C41.3211 138.379 41.3714 138.589 41.3295 138.815C41.2875 139.042 41.17 139.218 40.9686 139.352L30.8152 146.316C30.6054 146.458 30.3956 146.509 30.1775 146.458C29.9593 146.408 29.7831 146.291 29.6488 146.098L24.9917 139.31C24.8574 139.117 24.8071 138.916 24.8406 138.698C24.8742 138.488 24.9917 138.312 25.193 138.177C25.3693 138.052 25.5623 138.018 25.772 138.06C25.9818 138.102 26.158 138.228 26.2923 138.421L30.4712 144.512L34.2556 141.919L31.2432 137.531C31.1005 137.322 31.0502 137.112 31.0921 136.911C31.1341 136.709 31.2432 136.533 31.4278 136.407C31.6124 136.281 31.8138 136.231 32.0235 136.273C32.2333 136.306 32.4095 136.432 32.5438 136.642L35.5563 141.03L39.4163 138.387L35.2374 132.296C35.1031 132.095 35.0528 131.893 35.0864 131.684C35.1199 131.474 35.229 131.306 35.4052 131.189C35.5982 131.054 35.808 131.004 36.0178 131.046C36.2276 131.088 36.4038 131.214 36.538 131.407L41.1868 138.194V138.186Z" fill="white"/>
<path d="M34.6164 127.74C34.7171 127.958 34.7255 128.177 34.65 128.386C34.5745 128.604 34.4235 128.755 34.2053 128.856L23.0365 134.033C22.8183 134.133 22.6001 134.142 22.3904 134.066C22.1806 133.991 22.0212 133.84 21.9205 133.622L20.41 130.366C20.0324 129.553 19.8814 128.755 19.9569 127.975C20.0324 127.195 20.2926 126.482 20.7541 125.844C21.2156 125.207 21.8533 124.686 22.6757 124.309C23.4644 123.94 24.2532 123.797 25.0336 123.856C25.814 123.914 26.5189 124.175 27.1566 124.636C27.7943 125.097 28.2978 125.735 28.6754 126.549L29.825 129.041L33.5004 127.338C33.7186 127.237 33.9284 127.22 34.1465 127.296C34.3563 127.371 34.5158 127.522 34.6248 127.749L34.6164 127.74ZM28.3901 129.687L27.2405 127.195C26.9972 126.675 26.6699 126.264 26.2587 125.97C25.8476 125.676 25.3861 125.5 24.8826 125.467C24.3791 125.425 23.8672 125.525 23.3554 125.76C22.8099 126.012 22.3904 126.348 22.0799 126.767C21.7778 127.187 21.5932 127.648 21.5512 128.16C21.5009 128.672 21.6016 129.183 21.8449 129.704L22.9945 132.195L28.3985 129.695L28.3901 129.687Z" fill="white"/>
<path d="M26.5776 103.267C26.7622 103.384 26.8881 103.569 26.9384 103.829C26.9888 104.081 26.9552 104.299 26.821 104.466L21.3163 111.153L13.7893 107.923C13.5711 107.822 13.4369 107.663 13.3781 107.428C13.3278 107.193 13.3614 106.992 13.4956 106.816C13.6215 106.623 13.7809 106.514 13.9571 106.48C14.1417 106.455 14.3431 106.48 14.5529 106.564L20.7792 109.274L25.4951 103.518C25.6462 103.334 25.814 103.216 25.9902 103.158C26.1664 103.099 26.3594 103.132 26.5776 103.267ZM28.7426 111.606C28.7929 111.833 28.7593 112.043 28.6419 112.236C28.5244 112.437 28.3482 112.563 28.1132 112.613L22.7596 113.863L23.4057 116.64L21.954 116.976L21.3079 114.199L16.1221 115.407C15.8787 115.466 15.6606 115.432 15.4676 115.306C15.2746 115.172 15.1571 115.004 15.1067 114.786C15.048 114.543 15.0816 114.325 15.1907 114.14C15.3081 113.956 15.4844 113.83 15.7361 113.779L20.9219 112.571L20.2674 109.777L21.7191 109.433L22.3736 112.227L27.7356 110.977C27.9706 110.927 28.1803 110.952 28.3733 111.069C28.5663 111.187 28.6922 111.363 28.7509 111.606H28.7426ZM30.4628 119.971C30.3285 120.189 30.1691 120.307 29.9845 120.332C29.7999 120.357 29.5985 120.332 29.3803 120.24L22.6253 117.219L18.2199 122.329C18.0689 122.513 17.901 122.631 17.7248 122.681C17.5486 122.74 17.3556 122.706 17.1626 122.597C16.9612 122.488 16.8353 122.312 16.785 122.077C16.7346 121.842 16.785 121.632 16.936 121.448L22.2729 115.298L30.1607 118.813C30.3537 118.906 30.4796 119.073 30.5467 119.325C30.6054 119.568 30.5802 119.787 30.4712 119.98L30.4628 119.971Z" fill="white"/>
<path d="M26.9552 101.379C26.9552 101.689 26.8293 101.924 26.5608 102.075C26.3007 102.235 26.0238 102.243 25.7385 102.117L13.5124 97.0414C13.1264 96.8903 12.9334 96.6218 12.9334 96.2527C12.9334 95.8584 13.118 95.5899 13.504 95.4389L25.7217 90.2455C26.007 90.128 26.2755 90.1448 26.5273 90.3042C26.779 90.4636 26.9049 90.6985 26.9049 91.0089C26.9049 91.1684 26.8629 91.3194 26.7706 91.462C26.6783 91.6046 26.5524 91.7137 26.3846 91.7808L15.006 96.4708V95.9507L26.4182 100.582C26.5944 100.649 26.7287 100.758 26.8126 100.901C26.8965 101.043 26.9384 101.203 26.9384 101.371L26.9552 101.379ZM23.7833 100.355L22.3652 99.701L22.34 92.5863L23.7581 91.9319L23.7917 100.355H23.7833Z" fill="white"/>
<path d="M27.2741 87.46C27.2237 87.6949 27.1063 87.8795 26.9217 88.0053C26.737 88.1312 26.5189 88.1731 26.2839 88.1228L14.2089 85.7317C13.9655 85.6813 13.7809 85.5639 13.6551 85.3709C13.5376 85.1863 13.4956 84.9766 13.546 84.7332C13.5963 84.4899 13.7138 84.3054 13.8984 84.1795C14.083 84.0537 14.2928 84.0201 14.5361 84.0704L19.7555 85.1024L21.4086 76.7879L16.1892 75.756C15.9459 75.7056 15.7613 75.5882 15.6354 75.4036C15.5179 75.2106 15.476 75.0009 15.5263 74.766C15.5767 74.5226 15.6941 74.3381 15.8703 74.2122C16.055 74.0864 16.2647 74.0528 16.5165 74.1031L28.5915 76.4943C28.8265 76.5446 29.0111 76.6621 29.1369 76.8383C29.2628 77.0229 29.3048 77.2326 29.2544 77.4843C29.2125 77.7192 29.0866 77.8954 28.902 78.0213C28.709 78.1471 28.4992 78.1891 28.2643 78.1471L22.8687 77.0732L21.2156 85.3877L26.6112 86.4616C26.8461 86.5119 27.0307 86.621 27.1566 86.8056C27.2825 86.9902 27.3244 87.2083 27.2741 87.4516V87.46Z" fill="white"/>
<path d="M30.7732 72.6601C30.6726 72.8782 30.5215 73.0376 30.3033 73.1299C30.0852 73.2222 29.867 73.2222 29.6488 73.1299L18.3793 68.1798C18.1444 68.0791 17.9933 67.9197 17.9262 67.6932C17.8507 67.4751 17.8675 67.2569 17.9598 67.0388C18.0605 66.8206 18.2031 66.678 18.4045 66.6025C18.6059 66.527 18.8241 66.5438 19.0506 66.6444L28.6503 70.8646L22.0631 58.439C21.9456 58.2041 21.9372 57.9692 22.0463 57.7259C22.147 57.491 22.2981 57.34 22.5078 57.2644C22.7092 57.1805 22.9274 57.1889 23.1624 57.2896L34.4402 62.2397C34.6584 62.3404 34.8094 62.483 34.8934 62.6928C34.9773 62.9025 34.9689 63.1207 34.8682 63.3472C34.7759 63.5653 34.6164 63.7163 34.4067 63.8002C34.1969 63.8841 33.9787 63.8757 33.7605 63.7835L24.1777 59.5717L30.7732 71.9721C30.8236 72.0728 30.8488 72.1902 30.8488 72.3161C30.8488 72.4503 30.832 72.5594 30.79 72.6601H30.7732Z" fill="white"/>
<path d="M37.4779 59.0012C37.3436 59.1941 37.159 59.3116 36.9324 59.3535C36.7059 59.3955 36.4961 59.3535 36.3031 59.2109L26.2252 52.1466C26.0154 52.0039 25.8979 51.8193 25.8644 51.5928C25.8308 51.3747 25.8811 51.1649 26.0154 50.972L30.7397 44.2348C30.8739 44.0418 31.0502 43.9244 31.2599 43.8824C31.4697 43.8405 31.6795 43.8824 31.8725 44.025C32.0487 44.1509 32.1494 44.3187 32.183 44.5284C32.2165 44.7466 32.1662 44.9479 32.0235 45.1409L27.786 51.1901L31.5452 53.8245L34.5997 49.4618C34.7423 49.2604 34.9185 49.1345 35.1283 49.101C35.3381 49.0674 35.5311 49.101 35.7241 49.2436C35.9087 49.3779 36.0178 49.5373 36.0597 49.747C36.0933 49.9568 36.043 50.1581 35.9003 50.3679L32.8459 54.7307L36.6723 57.4155L40.9099 51.3663C41.0442 51.1733 41.2204 51.0475 41.4302 51.0139C41.6399 50.972 41.8329 51.0139 42.0092 51.1398C42.2022 51.274 42.3196 51.4502 42.3532 51.6683C42.3868 51.8781 42.3364 52.0878 42.1938 52.2808L37.4695 59.0179L37.4779 59.0012Z" fill="white"/>
<path d="M90.7541 26.943C90.1247 26.9934 89.487 26.9682 88.8408 26.8507C88.1947 26.7417 87.6073 26.5571 87.0787 26.2886C86.55 26.0285 86.1472 25.7013 85.8787 25.3154C85.8284 25.114 85.7948 24.9127 85.778 24.7029C85.7613 24.4932 85.8368 24.3254 86.0046 24.1911C86.1724 24.0569 86.357 24.0065 86.5584 24.0317C86.7598 24.0569 86.9276 24.166 87.0787 24.3421C87.4563 24.7029 87.9598 24.9966 88.5891 25.2063C89.2185 25.4161 89.8981 25.4916 90.6198 25.4412C91.2659 25.3909 91.8197 25.2315 92.2896 24.963C92.7596 24.7029 93.1204 24.3421 93.3721 23.9059C93.6239 23.4696 93.7246 22.9662 93.6826 22.4124C93.6155 21.6238 93.3134 21.0197 92.768 20.6002C92.2225 20.1807 91.5428 20.0045 90.7289 20.0716L89.5709 20.1639C89.3695 20.1807 89.1933 20.1304 89.0422 19.9961C88.8912 19.8703 88.8157 19.7109 88.7989 19.5011C88.7821 19.2746 88.8325 19.0816 88.9583 18.9306C89.0842 18.7796 89.2436 18.6873 89.4534 18.6789L90.4016 18.6034C91.0477 18.5531 91.568 18.3014 91.9792 17.8483C92.3904 17.3952 92.5582 16.8079 92.5078 16.0948C92.4491 15.3565 92.147 14.8279 91.6016 14.5091C91.0561 14.1987 90.3764 14.0644 89.5625 14.1315C88.9667 14.1735 88.4213 14.3329 87.9262 14.6014C87.4311 14.8699 87.0199 15.239 86.7011 15.7005C86.55 15.9438 86.3822 16.1116 86.1808 16.1955C85.9794 16.2794 85.778 16.2626 85.5683 16.1367C85.4088 16.0445 85.2913 15.9018 85.2158 15.7005C85.1487 15.4991 85.1655 15.3061 85.2662 15.1216C85.6689 14.4671 86.2144 13.905 86.8941 13.4436C87.5738 12.9821 88.4213 12.7136 89.4366 12.6297C90.3093 12.5626 91.0813 12.6549 91.761 12.9234C92.4407 13.1919 92.9861 13.5694 93.4057 14.0728C93.8253 14.5678 94.0602 15.1551 94.1105 15.8263C94.1525 16.3297 94.077 16.8079 93.9008 17.2442C93.7162 17.6805 93.4728 18.058 93.1623 18.3685C92.8519 18.6873 92.5078 18.939 92.1386 19.1236C91.7694 19.3082 91.4337 19.4172 91.1233 19.4592L91.0813 18.939C91.4421 18.9222 91.8533 18.9642 92.3148 19.0732C92.7763 19.1739 93.2295 19.3585 93.6658 19.627C94.1022 19.8955 94.4714 20.2478 94.7735 20.7009C95.0839 21.1539 95.2602 21.7077 95.3105 22.3621C95.3692 23.1424 95.2182 23.8723 94.849 24.5351C94.4798 25.2063 93.9343 25.7517 93.2295 26.1796C92.5246 26.6074 91.6939 26.8591 90.7541 26.9346V26.943Z" fill="white"/>
<path d="M99.1285 26.5068C98.8936 26.4816 98.7006 26.3809 98.5495 26.2047C98.4069 26.0285 98.3398 25.8272 98.3649 25.5839L99.5145 13.3261C99.5397 13.0744 99.6404 12.8814 99.8166 12.7472C99.9928 12.6046 100.194 12.5458 100.438 12.571L108.627 13.3345C108.862 13.3597 109.055 13.4519 109.198 13.6114C109.341 13.7792 109.399 13.9721 109.374 14.2154C109.349 14.4252 109.257 14.6014 109.089 14.7356C108.921 14.8699 108.72 14.9286 108.476 14.9034L101.126 14.2154L100.698 18.7796L106.001 19.2746C106.253 19.2998 106.446 19.3921 106.58 19.5515C106.714 19.7193 106.773 19.9122 106.748 20.1304C106.731 20.3569 106.639 20.5415 106.471 20.6757C106.311 20.81 106.102 20.8687 105.85 20.8435L100.547 20.3485L100.11 25.005L107.461 25.6929C107.696 25.7181 107.889 25.8104 108.032 25.9698C108.174 26.1292 108.233 26.3222 108.216 26.5319C108.191 26.7668 108.099 26.9514 107.931 27.0857C107.763 27.2199 107.562 27.2702 107.318 27.2535L99.1285 26.49V26.5068Z" fill="white"/>
<path d="M111.405 28.1512C111.17 28.0841 111.002 27.9582 110.885 27.7653C110.767 27.5639 110.742 27.3541 110.809 27.1192L113.998 15.2306C114.057 14.9957 114.191 14.8279 114.384 14.7104C114.585 14.6014 114.795 14.5762 115.03 14.6349L118.496 15.5662C119.36 15.8011 120.073 16.1871 120.627 16.7492C121.181 17.3113 121.558 17.9658 121.76 18.7292C121.953 19.4927 121.936 20.315 121.701 21.1875C121.474 22.0265 121.088 22.7313 120.543 23.285C119.998 23.8471 119.343 24.2163 118.579 24.4093C117.816 24.6022 117.002 24.5771 116.138 24.3505L113.486 23.6458L112.437 27.5555C112.378 27.7904 112.252 27.9582 112.059 28.0757C111.866 28.1931 111.648 28.2099 111.405 28.1512ZM113.889 22.1188L116.54 22.8236C117.094 22.9746 117.614 22.983 118.11 22.8487C118.605 22.7229 119.024 22.4796 119.385 22.1188C119.746 21.758 119.998 21.305 120.14 20.7596C120.291 20.1807 120.308 19.6438 120.182 19.1404C120.056 18.637 119.813 18.2007 119.452 17.8399C119.091 17.4791 118.638 17.2274 118.084 17.0764L115.433 16.3717L113.889 22.1188Z" fill="white"/>
<path d="M121.911 31.2555C121.693 31.1464 121.55 30.987 121.474 30.7773C121.399 30.5591 121.416 30.3494 121.516 30.1312L126.862 19.0397C126.971 18.8131 127.13 18.6621 127.348 18.595C127.558 18.5279 127.776 18.5447 127.986 18.6453C128.213 18.7544 128.364 18.9138 128.431 19.1236C128.498 19.3333 128.481 19.5515 128.381 19.778L126.065 24.5687L133.701 28.2519L136.017 23.4528C136.126 23.2263 136.285 23.0836 136.495 23.0081C136.705 22.9326 136.923 22.9578 137.141 23.0585C137.368 23.1675 137.519 23.327 137.586 23.5283C137.661 23.7381 137.636 23.9562 137.527 24.1827L132.182 35.2743C132.073 35.4924 131.922 35.6351 131.712 35.719C131.502 35.7945 131.284 35.7777 131.057 35.6686C130.839 35.5596 130.697 35.4085 130.621 35.1904C130.545 34.9723 130.562 34.7625 130.663 34.5444L133.054 29.5859L125.418 25.9027L123.027 30.8612C122.926 31.0793 122.767 31.2219 122.557 31.3058C122.347 31.3813 122.129 31.373 121.902 31.2639L121.911 31.2555Z" fill="white"/>
<path d="M134.162 37.5564C133.91 37.3718 133.81 37.1201 133.843 36.8181C133.877 36.516 134.036 36.2895 134.313 36.1385L145.767 29.5104C146.12 29.3006 146.447 29.309 146.741 29.5272C147.051 29.7621 147.152 30.0809 147.034 30.4668L143.745 43.3287C143.669 43.6307 143.485 43.8321 143.208 43.9328C142.931 44.0334 142.662 43.9915 142.419 43.8069C142.293 43.7146 142.201 43.5888 142.142 43.4294C142.083 43.2699 142.075 43.1105 142.117 42.926L145.306 31.0457L145.717 31.3562L135.102 37.6151C134.934 37.7158 134.775 37.7493 134.607 37.7326C134.439 37.7074 134.296 37.657 134.162 37.548V37.5564ZM136.906 35.6518L138.291 34.9303L143.963 39.226L143.619 40.7446L136.906 35.6518Z" fill="white"/>
<path d="M147.999 139.914C147.924 139.931 147.831 139.822 147.748 139.763C147.806 139.679 147.865 139.604 147.915 139.528C148.008 139.579 148.092 139.629 148.176 139.679C148.117 139.763 148.066 139.897 147.999 139.906V139.914ZM37.5534 81.159C37.5534 81.159 37.5366 81.2262 37.5282 81.2513C37.5282 81.2178 37.5282 81.1674 37.5282 81.1339L37.5618 81.1507L37.5534 81.159ZM37.2345 103.124C37.0919 103.09 36.9492 103.049 36.7982 103.015C36.7646 103.141 36.7311 103.258 36.6975 103.376C36.8318 103.409 36.9828 103.493 37.0919 103.46C37.1674 103.434 37.1926 103.241 37.2345 103.124ZM36.3115 105.851C35.2626 97.5783 35.0025 89.3393 37.5282 81.2597C37.5282 81.4108 37.5282 81.5618 37.5954 81.5953C39.9869 82.8203 38.8457 84.8171 38.5016 86.4531C37.3604 91.9486 37.8639 97.4776 37.8555 102.998C37.8555 104.534 38.9715 105.901 38.6611 107.588C37.5031 107.47 36.4961 107.252 36.3115 105.851ZM37.5198 81.1423C37.5198 81.1423 37.545 81.1423 37.5534 81.1423C37.5534 81.1507 37.5534 81.159 37.5534 81.1674L37.5198 81.1507V81.1423ZM51.6591 58.1789C46.7251 63.7666 43.0833 70.1346 40.8008 77.2661C40.2554 78.9693 40.0037 81.008 37.5534 81.1423C37.6961 78.1387 39.0219 75.4622 40.1379 72.7691C42.9826 65.9228 46.8342 59.6723 52.1123 54.3866C52.1962 54.3027 52.3892 54.3195 52.5402 54.2859C53.5639 55.8884 52.8339 56.8617 51.6591 58.1873V58.1789ZM57.6085 142.565C52.5822 138.345 48.2439 133.613 44.8286 128.084C42.5798 124.443 40.3645 120.76 39.2736 116.54C38.9799 115.399 38.938 114.266 38.8373 113.125C38.7953 112.672 38.4429 112.227 39.1561 112.051C39.7855 111.9 39.9365 112.387 40.1127 112.823C41.0442 115.138 42.0511 117.429 42.8986 119.778C44.3 123.688 46.8593 126.977 48.7977 130.601C49.7207 132.321 51.3906 133.664 52.7668 135.132C54.252 136.734 55.4016 138.664 57.4827 139.704C58.884 140.409 58.2295 141.449 57.6085 142.565ZM154.108 80.6892C154.108 80.6892 154.091 80.706 154.083 80.7228L154.108 80.6892ZM150.961 116.523C150.382 115.944 150.651 115.13 150.978 114.811C153.697 112.168 152.371 108.569 153.227 105.49C154.184 102.033 153.974 98.3921 154.033 94.7928C154.091 91.227 153.437 87.7787 152.833 84.3389C152.531 82.6441 153.286 81.7715 154.083 80.7144C155.283 83.7012 156.013 86.7048 155.568 90.0189C155.367 91.5039 156.172 93.0561 156.181 94.6753C156.214 100.297 156.08 105.859 154.083 111.22C152.505 115.441 152.564 115.457 150.961 116.523ZM151.28 78.6001C150.156 73.8094 147.823 69.5221 145.507 65.26C144.131 62.7095 141.379 60.9979 140.9 57.8685C135.723 54.395 131.712 49.4953 126.283 46.2903C117.875 41.315 108.82 38.5799 99.1453 37.9171C93.6574 37.5479 88.2031 38.1436 82.8411 39.4776C82.1446 39.6538 81.2216 40.4592 80.6006 39.2259C80.4244 38.8735 80.2314 38.9155 79.9545 39.2511C78.0497 41.5667 75.3645 41.2563 72.7967 41.2899C72.696 41.2899 72.5954 41.0801 72.4863 40.9626C74.4414 39.3602 74.8946 39.3014 77.0763 40.5767C76.2539 39.1168 76.9169 38.7477 77.9993 38.345C82.9837 36.4824 88.1779 36.0965 93.4309 35.8112C101.587 35.3749 109.399 36.7593 117.044 39.528C124.856 42.3554 131.745 46.6594 137.644 52.4569C141.664 56.4086 145.18 60.7211 147.932 65.7886C150.064 69.7151 151.968 73.6332 153.47 77.8114C153.814 78.7847 153.378 79.8418 154.066 80.6892C152.178 81.2849 151.624 80.1019 151.272 78.5917L151.28 78.6001ZM154.083 80.7144C154.083 80.7144 154.083 80.706 154.083 80.6976C154.091 80.6976 154.1 80.6976 154.117 80.6976L154.091 80.7228L154.083 80.7144ZM148.671 124.829C147.127 127.455 145.734 130.232 143.879 132.665C138.534 139.671 131.98 145.267 124.101 149.328C117.43 152.768 110.465 155.083 102.938 155.746C101.545 155.872 100.74 155.419 99.7663 154.513C99.1537 156.191 97.8866 156.468 96.3594 156.358C94.4966 156.224 92.6085 156.291 90.7457 156.107C89.5625 155.998 88.3122 156.09 87.322 154.999C86.55 154.152 85.9123 155.763 84.6284 155.327C80.3237 153.867 75.9519 152.885 71.7394 150.863C68.1312 149.135 64.4978 147.499 61.1581 145.284C60.1931 144.646 58.0701 144.034 59.0267 142.607C60.0924 141.022 61.3007 142.884 62.2993 143.547C73.275 150.855 85.2326 154.613 98.5412 154.026C106.748 153.665 114.527 151.727 121.81 148.161C130.923 143.698 138.282 137.087 144.215 128.806C145.264 127.329 146.85 125.911 147.58 124.418C148.301 122.95 148.461 121.011 149.216 119.325C149.837 117.932 150.626 117.202 152.463 117.429C151.029 119.887 150.08 122.413 148.662 124.829H148.671ZM180.062 125.391C186.138 108.192 186.381 89.9685 182.093 73.994C180.969 69.7822 179.853 65.6124 178.074 61.5768C175.179 54.9823 171.461 48.908 167.694 42.8168C165.411 39.1252 162.13 36.4656 159.185 33.4368C144.425 18.251 126.299 9.93648 105.456 7.42788C92.768 5.9009 80.3237 7.78865 68.148 11.3544C65.4712 12.143 62.6349 12.3528 60.2182 14.4251C58.347 16.0192 54.9149 17.8315 53.2367 17.1099C50.9123 16.1031 49.7459 17.0847 48.0677 17.563C47.9586 18.7711 51.0382 19.9038 48.1935 21.0113C45.1643 22.1859 43.0497 24.5686 40.5407 26.4396C39.9533 26.8842 39.1394 27.7904 38.6359 26.8926C36.9157 23.8471 35.4136 26.8171 33.3913 26.6158C34.0878 27.396 34.3899 28.0505 34.8095 28.1427C38.5184 28.9482 36.0598 30.4332 34.9185 30.8695C33.0893 31.5743 32.4683 33.1935 31.2767 34.3597C24.9497 40.5264 21.8198 49.3694 14.276 54.5209C14.9977 55.4018 15.9795 54.1601 16.7263 55.0075C16.634 55.3599 16.592 55.8129 16.4074 56.1821C11.0706 67.0471 7.91544 78.4155 7.21057 90.581C6.34627 105.44 8.70422 119.677 15.0984 133.034C22.8183 149.16 33.9368 162.533 49.5697 171.762C64.5397 180.597 80.5922 184.851 98.088 184.742C115.173 184.641 135.094 177.845 148.964 167.467C163.557 156.56 173.995 142.582 180.062 125.408V125.391ZM150.659 174.229C138.484 182.745 124.94 187.787 110.213 190.103C94.3036 192.595 78.8804 191.017 63.8349 185.656C46.9348 179.649 32.8207 169.648 21.5848 155.561C17.6913 150.678 14.6033 145.334 11.2719 140.099C8.56157 135.828 9.03148 131.365 9.24965 126.801C9.28322 126.037 9.42587 125.24 9.24965 124.527C9.11539 123.965 8.81331 123.226 8.03292 123.159C7.41196 123.109 7.01757 123.461 6.94205 124.107C6.85814 124.837 6.5141 125.441 5.7421 125.366C4.66802 125.265 4.92815 124.208 4.76871 123.562C4.0135 120.365 3.35059 117.144 2.6625 113.93C-3.58899 77.9457 6.69031 47.5907 34.0459 23.2262C40.8931 17.1183 48.7138 12.3276 57.0967 8.71994C68.8445 3.66078 81.1712 0.531312 94.0686 0.615212C96.6112 0.631992 99.9425 -1.28931 101.914 2.23448C101.965 2.31838 102.3 2.28482 102.477 2.23448C111.187 -0.492266 119.108 3.29162 126.979 5.75827C141.32 10.2637 153.739 18.2845 164.153 29.116C168.449 33.5795 172.233 38.496 175.766 43.6978C183.234 54.6803 187.891 66.6528 190.14 79.5314C193.195 97.0749 191.567 114.333 184.963 130.92C177.872 148.724 166.393 163.221 150.668 174.212L150.659 174.229Z" fill="white"/>
<path d="M77.4203 57.7427L80.76 59.1606L74.3491 74.2206L82.5474 77.7108L81.2971 80.6389L69.7507 75.7308L77.4035 57.7343L77.4203 57.7427Z" fill="white"/>
<path d="M99.9425 66.8961C105.674 69.3376 107.746 75.1015 105.523 80.3201C103.299 85.5387 97.7104 88.0473 91.9792 85.6058C86.2731 83.1811 84.1669 77.4256 86.399 72.1818C88.6227 66.9633 94.2364 64.463 99.9425 66.8961ZM89.7387 73.6081C88.2702 77.0564 89.3191 81.0836 93.2043 82.7364C97.1146 84.3977 100.714 82.3505 102.183 78.9022C103.66 75.4288 102.628 71.4435 98.7174 69.7739C94.8322 68.1211 91.2156 70.1347 89.7387 73.6081Z" fill="white"/>
<path d="M123.295 92.5863L132.417 81.1339L135.756 82.5519L122.574 98.1908L119.922 97.0665L121.181 81.5451L110.868 93.2155L108.216 92.0913L110.348 71.7456L113.687 73.1635L111.766 87.6781L121.735 76.5866L124.361 77.7024L123.287 92.5779L123.295 92.5863Z" fill="white"/>
<path d="M63.6419 95.0865C63.4656 92.8547 62.2573 90.7069 59.5301 89.5407C55.6953 87.913 52.0451 89.5743 50.4508 93.3246C48.7557 97.3098 50.2074 100.959 53.9583 102.562C57.147 103.921 59.7735 103.091 61.4182 101.152L54.6045 98.2579L55.7708 95.506L66.1844 99.9359L66.1592 99.9862C63.902 105.28 58.4896 107.806 52.7835 105.381C46.9768 102.906 44.8874 97.1085 47.0943 91.9151C49.3347 86.6462 54.9317 84.1963 60.7385 86.6713C65.0348 88.5003 67.2333 92.1668 66.9396 96.5044L63.6251 95.0949L63.6419 95.0865Z" fill="white"/>
<path d="M73.4764 107.646L70.7241 106.48L68.5256 111.648L65.1858 110.23L72.8387 92.2339L80.76 95.5983C84.5865 97.2259 86.0717 101.228 84.5697 104.777C83.3697 107.604 80.6258 109.266 77.6301 109.022L80.4328 116.707L76.0106 114.828L73.4764 107.646ZM76.0945 105.364C78.3014 106.304 80.3824 105.339 81.2299 103.359C82.0691 101.379 81.3139 99.2395 79.107 98.2999L74.9701 96.5379L71.966 103.611L76.1029 105.373L76.0945 105.364Z" fill="white"/>
<path d="M99.6404 124.879L96.0657 123.361L96.1916 119.711L87.8591 116.171L85.3165 118.797L81.7418 117.278L97.0811 102.554L99.5984 103.627L99.632 124.888L99.6404 124.879ZM96.6783 107.009L90.066 113.846L96.3426 116.515L96.6867 107.009H96.6783Z" fill="white"/>
<path d="M109.844 107.965L113.184 109.383L105.531 127.38L102.191 125.962L109.844 107.965Z" fill="white"/>
<path d="M117.069 111.044L119.872 112.236L124.797 129.418L130.235 116.64L133.499 118.033L125.846 136.03L123.044 134.838L118.11 117.681L112.689 130.433L109.425 129.041L117.077 111.044H117.069Z" fill="white"/>
<path d="M61.6279 33.1348C61.2 33.1936 60.7888 33.202 60.3944 33.1768C55.0828 32.8076 53.6227 25.2063 53.3877 23.7632C53.3625 23.6122 53.3542 23.5283 53.3542 23.5283C62.9873 25.6594 61.6279 33.1348 61.6279 33.1348Z" fill="white"/>
<path d="M63.6754 35.1233C63.5747 35.0058 63.4824 34.8884 63.3985 34.7709C60.3441 30.6346 64.4558 25.7013 66.369 23.7716C66.8893 23.2431 67.2501 22.941 67.2501 22.941C70.6821 32.1784 63.6754 35.1149 63.6754 35.1149V35.1233Z" fill="white"/>
<path d="M56.3247 38.9323C54.6884 38.882 52.75 38.3618 50.5095 37.0614C50.5095 37.0614 53.7821 34.3094 57.3232 33.6718C59.3539 33.3026 61.4769 33.6382 63.1132 35.5931C63.1132 35.5931 60.8979 39.075 56.3247 38.9323Z" fill="white"/>
<path d="M158.648 65.99C158.816 65.5873 159.017 65.2349 159.235 64.9077C162.239 60.5198 169.54 63.0955 170.899 63.624C171.042 63.6828 171.117 63.7163 171.117 63.7163C164.404 70.9401 158.648 65.99 158.648 65.99Z" fill="white"/>
<path d="M155.895 66.7451C156.047 66.72 156.189 66.7032 156.332 66.6864C161.451 66.141 163.624 72.1902 164.312 74.8163C164.505 75.5294 164.58 75.9993 164.58 75.9993C154.872 74.2877 155.887 66.7535 155.887 66.7535L155.895 66.7451Z" fill="white"/>
<path d="M156.323 58.481C157.196 57.0966 158.623 55.6871 160.88 54.4118C160.88 54.4118 161.593 58.632 160.351 62.0048C159.638 63.9429 158.279 65.6041 155.77 66.0236C155.77 66.0236 153.89 62.3572 156.323 58.481Z" fill="white"/>
<path d="M103.358 165.311C103.744 165.504 104.088 165.73 104.398 165.973C108.569 169.271 105.498 176.377 104.877 177.694C104.809 177.837 104.776 177.912 104.776 177.912C98.0293 170.722 103.366 165.319 103.366 165.319L103.358 165.311Z" fill="white"/>
<path d="M102.796 162.517C102.812 162.668 102.821 162.819 102.829 162.961C103.014 168.105 96.8377 169.85 94.1693 170.37C93.4393 170.512 92.9777 170.554 92.9777 170.554C95.3525 160.99 102.804 162.517 102.804 162.517H102.796Z" fill="white"/>
<path d="M111.011 163.515C112.336 164.48 113.637 165.999 114.761 168.339C114.761 168.339 110.507 168.767 107.226 167.291C105.346 166.443 103.777 164.975 103.526 162.441C103.526 162.441 107.318 160.814 111.011 163.515Z" fill="white"/>
</svg>
